<svg aria-hidden="true" xmlns="http://www.w3.org/2000/svg" xmlns:xlink="http://www.w3.org/1999/xlink"><symbol viewBox="0 0 50 50" id="check_mark" xmlns="http://www.w3.org/2000/svg"><path d="M 11 4 C 7.101563 4 4 7.101563 4 11 L 4 39 C 4 42.898438 7.101563 46 11 46 L 39 46 C 42.898438 46 46 42.898438 46 39 L 46 15 L 44 17.3125 L 44 39 C 44 41.800781 41.800781 44 39 44 L 11 44 C 8.199219 44 6 41.800781 6 39 L 6 11 C 6 8.199219 8.199219 6 11 6 L 37.40625 6 L 39 4 Z M 43.25 7.75 L 23.90625 30.5625 L 15.78125 22.96875 L 14.40625 24.4375 L 23.3125 32.71875 L 24.09375 33.4375 L 24.75 32.65625 L 44.75 9.03125 Z"/></symbol><symbol viewBox="0 0 16 16" id="communication" xmlns="http://www.w3.org/2000/svg">
  <path d="M5 8a1 1 0 1 1-2 0 1 1 0 0 1 2 0zm4 0a1 1 0 1 1-2 0 1 1 0 0 1 2 0zm3 1a1 1 0 1 0 0-2 1 1 0 0 0 0 2z"/>
  <path d="m2.165 15.803.02-.004c1.83-.363 2.948-.842 3.468-1.105A9.06 9.06 0 0 0 8 15c4.418 0 8-3.134 8-7s-3.582-7-8-7-8 3.134-8 7c0 1.76.743 3.37 1.97 4.6a10.437 10.437 0 0 1-.524 2.318l-.003.011a10.722 10.722 0 0 1-.244.637c-.079.186.074.394.273.362a21.673 21.673 0 0 0 .693-.125zm.8-3.108a1 1 0 0 0-.287-.801C1.618 10.83 1 9.468 1 8c0-3.192 3.004-6 7-6s7 2.808 7 6c0 3.193-3.004 6-7 6a8.06 8.06 0 0 1-2.088-.272 1 1 0 0 0-.711.074c-.387.196-1.24.57-2.634.893a10.97 10.97 0 0 0 .398-2z"/>
</symbol><symbol viewBox="0 0 24 24" id="instagram" xmlns="http://www.w3.org/2000/svg">
  <path fill-rule="evenodd" d="M12 18a6 6 0 1 0 0-12 6 6 0 0 0 0 12Zm0-2a4 4 0 1 0 0-8 4 4 0 0 0 0 8Z" clip-rule="evenodd"/>
  <path d="M18 5a1 1 0 1 0 0 2 1 1 0 0 0 0-2Z"/>
  <path fill-rule="evenodd" d="M1.654 4.276C1 5.56 1 7.24 1 10.6v2.8c0 3.36 0 5.04.654 6.324a6 6 0 0 0 2.622 2.622C5.56 23 7.24 23 10.6 23h2.8c3.36 0 5.04 0 6.324-.654a6 6 0 0 0 2.622-2.622C23 18.44 23 16.76 23 13.4v-2.8c0-3.36 0-5.04-.654-6.324a6 6 0 0 0-2.622-2.622C18.44 1 16.76 1 13.4 1h-2.8c-3.36 0-5.04 0-6.324.654a6 6 0 0 0-2.622 2.622ZM13.4 3h-2.8c-1.713 0-2.878.002-3.778.075-.877.072-1.325.202-1.638.361a4 4 0 0 0-1.748 1.748c-.16.313-.29.761-.36 1.638C3.001 7.722 3 8.887 3 10.6v2.8c0 1.713.002 2.878.075 3.778.072.877.202 1.325.361 1.638a4 4 0 0 0 1.748 1.748c.313.16.761.29 1.638.36.9.074 2.065.076 3.778.076h2.8c1.713 0 2.878-.002 3.778-.075.877-.072 1.325-.202 1.638-.361a4 4 0 0 0 1.748-1.748c.16-.313.29-.761.36-1.638.074-.9.076-2.065.076-3.778v-2.8c0-1.713-.002-2.878-.075-3.778-.072-.877-.202-1.325-.361-1.638a4 4 0 0 0-1.748-1.748c-.313-.16-.761-.29-1.638-.36C16.278 3.001 15.113 3 13.4 3Z" clip-rule="evenodd"/>
</symbol><symbol viewBox="0 0 24 24" id="phone" xmlns="http://www.w3.org/2000/svg">
  <path stroke-linecap="round" stroke-linejoin="round" stroke-width="2" d="M21 5.5C21 14.06 14.06 21 5.5 21a15.7 15.7 0 0 1-1.148-.042c-.435-.032-.653-.048-.851-.162a1.06 1.06 0 0 1-.402-.432C3 20.158 3 19.918 3 19.438v-2.817c0-.404 0-.606.066-.779a1 1 0 0 1 .278-.396c.14-.122.33-.191.71-.329l3.206-1.166c.442-.16.662-.24.872-.227a1 1 0 0 1 .513.182c.171.121.292.322.534.725L10 16a12.1 12.1 0 0 0 6-6l-1.369-.821c-.402-.242-.604-.363-.725-.534a1 1 0 0 1-.182-.513c-.014-.21.066-.43.227-.872h0l1.166-3.207c.138-.38.207-.569.329-.709a1 1 0 0 1 .396-.278C16.015 3 16.217 3 16.621 3h2.817c.48 0 .72 0 .926.1.17.081.338.237.432.401.114.198.13.416.162.85.028.38.042.763.042 1.149Z"/>
</symbol><symbol viewBox="0 0 24 24" id="point" xmlns="http://www.w3.org/2000/svg">
  <path fill-rule="evenodd" d="M3.25 10.143C3.25 5.244 7.155 1.25 12 1.25c4.845 0 8.75 3.994 8.75 8.893 0 2.365-.674 4.905-1.866 7.099-1.19 2.191-2.928 4.095-5.104 5.112a4.2 4.2 0 0 1-3.56 0c-2.176-1.017-3.914-2.92-5.104-5.112-1.192-2.194-1.866-4.734-1.866-7.099ZM12 2.75c-3.992 0-7.25 3.297-7.25 7.393 0 2.097.603 4.392 1.684 6.383 1.082 1.993 2.612 3.624 4.42 4.469a2.7 2.7 0 0 0 2.291 0c1.809-.845 3.339-2.476 4.421-4.469 1.081-1.99 1.684-4.286 1.684-6.383 0-4.096-3.258-7.393-7.25-7.393Zm0 5a2.25 2.25 0 1 0 0 4.5 2.25 2.25 0 0 0 0-4.5ZM8.25 10a3.75 3.75 0 1 1 7.5 0 3.75 3.75 0 0 1-7.5 0Z" clip-rule="evenodd"/>
</symbol><symbol viewBox="0 0 24 24" id="telegram" xmlns="http://www.w3.org/2000/svg">
  <path fill-rule="evenodd" d="M23.112 4.494c.318-1.55-1.205-2.837-2.68-2.267L2.342 9.216c-1.647.637-1.72 2.941-.117 3.682l3.94 1.818 1.873 6.559a1 1 0 0 0 1.67.432l2.886-2.887 4.043 3.033a2 2 0 0 0 3.16-1.198l3.315-16.16ZM3.063 11.082l18.09-6.99-3.316 16.161L13.1 16.7a1 1 0 0 0-1.307.093l-1.236 1.236.371-2.043 7.28-7.279a1 1 0 0 0-1.204-1.575L6.95 12.876l-3.888-1.794Zm5.114 3.397.606 2.123.233-1.281a1 1 0 0 1 .277-.528l2.22-2.22-3.336 1.906Z" clip-rule="evenodd"/>
</symbol><symbol viewBox="0 0 32 32" id="telegram_icon" xmlns="http://www.w3.org/2000/svg">
<path d="M 26.070313 3.996094 C 25.734375 4.011719 25.417969 4.109375 25.136719 4.21875 L 25.132813 4.21875 C 24.847656 4.332031 23.492188 4.902344 21.433594 5.765625 C 19.375 6.632813 16.703125 7.757813 14.050781 8.875 C 8.753906 11.105469 3.546875 13.300781 3.546875 13.300781 L 3.609375 13.277344 C 3.609375 13.277344 3.25 13.394531 2.875 13.652344 C 2.683594 13.777344 2.472656 13.949219 2.289063 14.21875 C 2.105469 14.488281 1.957031 14.902344 2.011719 15.328125 C 2.101563 16.050781 2.570313 16.484375 2.90625 16.722656 C 3.246094 16.964844 3.570313 17.078125 3.570313 17.078125 L 3.578125 17.078125 L 8.460938 18.722656 C 8.679688 19.425781 9.949219 23.597656 10.253906 24.558594 C 10.433594 25.132813 10.609375 25.492188 10.828125 25.765625 C 10.933594 25.90625 11.058594 26.023438 11.207031 26.117188 C 11.265625 26.152344 11.328125 26.179688 11.390625 26.203125 C 11.410156 26.214844 11.429688 26.21875 11.453125 26.222656 L 11.402344 26.210938 C 11.417969 26.214844 11.429688 26.226563 11.441406 26.230469 C 11.480469 26.242188 11.507813 26.246094 11.558594 26.253906 C 12.332031 26.488281 12.953125 26.007813 12.953125 26.007813 L 12.988281 25.980469 L 15.871094 23.355469 L 20.703125 27.0625 L 20.8125 27.109375 C 21.820313 27.550781 22.839844 27.304688 23.378906 26.871094 C 23.921875 26.433594 24.132813 25.875 24.132813 25.875 L 24.167969 25.785156 L 27.902344 6.65625 C 28.007813 6.183594 28.035156 5.742188 27.917969 5.3125 C 27.800781 4.882813 27.5 4.480469 27.136719 4.265625 C 26.769531 4.046875 26.40625 3.980469 26.070313 3.996094 Z M 25.96875 6.046875 C 25.964844 6.109375 25.976563 6.101563 25.949219 6.222656 L 25.949219 6.234375 L 22.25 25.164063 C 22.234375 25.191406 22.207031 25.25 22.132813 25.308594 C 22.054688 25.371094 21.992188 25.410156 21.667969 25.28125 L 15.757813 20.75 L 12.1875 24.003906 L 12.9375 19.214844 C 12.9375 19.214844 22.195313 10.585938 22.59375 10.214844 C 22.992188 9.84375 22.859375 9.765625 22.859375 9.765625 C 22.886719 9.3125 22.257813 9.632813 22.257813 9.632813 L 10.082031 17.175781 L 10.078125 17.15625 L 4.242188 15.191406 L 4.242188 15.1875 C 4.238281 15.1875 4.230469 15.183594 4.226563 15.183594 C 4.230469 15.183594 4.257813 15.171875 4.257813 15.171875 L 4.289063 15.15625 L 4.320313 15.144531 C 4.320313 15.144531 9.53125 12.949219 14.828125 10.71875 C 17.480469 9.601563 20.152344 8.476563 22.207031 7.609375 C 24.261719 6.746094 25.78125 6.113281 25.867188 6.078125 C 25.949219 6.046875 25.910156 6.046875 25.96875 6.046875 Z"/>
</symbol></svg>