<?xml version="1.0" encoding="utf-8"?>

<!DOCTYPE svg PUBLIC "-//W3C//DTD SVG 1.1//EN" "http://www.w3.org/Graphics/SVG/1.1/DTD/svg11.dtd">
<svg version="1.1" id="Layer_1" xmlns="http://www.w3.org/2000/svg" xmlns:xlink="http://www.w3.org/1999/xlink" x="0px" y="0px"
	 viewBox="0 0 1554.103 1655.549" enable-background="new 0 0 1554.103 1655.549" xml:space="preserve" >
<g>
	<g>
		<g>
			<path fill="#040000" d="M880.896,31.827c8.586-6.366,22.543-3.462,32.296-2.933c13.729,0.745,27.282,0.833,39.921,6.902
				c5.579,2.679,8.725,6.565,13.728,9.668c6.16,3.818,7.658,3.593,15.733,4.294c21.052,1.826,42.866,10.63,61.015,21.09
				c8.612,4.964,17.765,20.161,27.134,21.869c10.129,1.849,26.239-12.491,35.777-16.144c56.509-21.641,108.355-4.681,141.872,45.499
				c11.681,17.488,19.163,37.681,18.811,58.89c-0.185,11.178-7.517,24.502-6.628,34.981c1.511,17.809,22.119,12.416,34.375,14.285
				c12.84,1.959,23.307,6.852,31.873,17.132c15.454,18.551,18.037,50.135,19.737,73.401c1.725,23.628,4.294,47.72,22.732,63.427
				c19.993,17.032,39.678,30.853,53.39,53.645c21.538,35.8,22.944,68.116,21.272,108.768c-0.763,18.546-5.525,35.896-9.857,53.824
				c-3.518,14.558-2.109,12.441,9.075,21.206c11.109,8.705,17.169,17.616,22.679,30.319c5.942,13.699,9.702,24.006,9.585,38.794
				c-0.06,7.56-0.357,15.126-0.763,22.676c-0.265,4.985-0.597,9.965-0.996,14.94c3.141,1.773,6.257,3.591,9.347,5.452
				c9.391,12.082,18.277,22.442,24.838,36.2c7.398,15.517,14.672,36.458,17.254,53.971c4.993,33.863-7.967,49.498-35.738,64.766
				c23.528,28.487,42.667,66.538,37.954,104.647c-2.736,22.131-9.717,40.395-24.388,57.226c-7.405,8.494-15.051,16.462-23.306,24.12
				c-6.185,5.739-23.045,17.783-26.022,26.096c-3.102,8.659,4.257,24.176,2.914,34.407c-1.087,8.288-6.771,16.356-7.355,24.289
				c-0.56,7.604,5.909,19.081,7.343,29.514c1.475,10.733,4.447,20.909,5.659,31.595c4.065,35.849-5.751,62.123-25.473,91.5
				c-8.981,13.378-16.349,27.445-26.732,39.748c-15.417,18.268-28.265,27.033-50.456,34.831c-5.758,2.023-14.963,3.516-20.157,6.262
				c-14.816,7.832-10.621,40.288-18.413,56.459c-8.36,17.349-13.638,36.369-27.07,50.892c-10.228,11.06-23.395,14.855-36.284,21.771
				c-27.002,14.488-55.351,17.727-85.77,14.05c-17.746-2.145-48.335-15.154-62.399-7.176c-5.936,3.367-12.499,13.241-17.777,18.06
				c-7.605,6.944-15.634,13.639-21.588,21.979c-9.395,13.159-16.697,20.809-32.313,29.021
				c-19.197,10.096-44.709,22.968-66.108,26.684c-21.415,3.719-48.811,4.664-69.855-0.737c-5.013-1.286-9.509-3.01-14.117-5.456
				c-7.438-3.95-12.737-13.847-19.193-17.031c-0.754-0.371-8.198,2.194-10.607,1.407c-6.094-1.991-11.333-4.85-16.928-7.972
				c-9.911-5.531-19.208-11.991-26.215-21.195c-15.992-21.003-18.357-46.07-15.142-71.682c0.498-3.967,1.607-7.849,2.17-11.839
				c0.618-4.387-0.485-7.004,1.15-11.644c0.662-1.877,6.465-5.722,6.763-7.346c2.07-11.267-3.715-28.997-5.448-40.166
				c-4.159-26.802-16.345-51.467-17.13-78.78c-0.362-12.577-0.281-27.762,4.455-39.641c5.05-12.665,21.104-26.688,19.859-40.579
				c-1.136-12.671-12.472-27.066-16.914-39.421c-8.942-24.87-4.945-52.574-4.473-78.462c0.429-23.531,3.761-38.067,9.075-60.034
				c3.809-15.746,7.838-29.267,13.336-44.364c4.626-12.701,4.177-13.426-3.808-24.442c-3.773-5.206-7.526-11.215-9.082-17.534
				c-7.054-28.647,10.766-70.177,32.176-89.641c-9.503-10.264-17.181-19.044-23.565-32.176
				c-10.083-20.742-5.522-47.146-5.412-70.179c0.148-30.859-1.001-62.305,1.704-93.096c0.651-7.405,2.288-13.739,4.116-20.841
				c2.521-9.793,5.238-18.883,9.354-28.263c4.995-11.381,9.295-22.911,14.158-34.336c4.5-10.576,11.237-21.407,15.1-32.013
				c-27.491-6.662-43.957-55.247-44.725-80.281c-0.795-25.934-1.682-55.02,1.855-80.78c0.8-5.828,2.805-11.454,4.429-17.09
				c2.466-8.553,4.249-17.013,6.086-25.709c2.292-10.848,3.765-10.786-2.041-17.198c-4.387-4.842-7.875-2.637-10.333-9.937
				c-1.79-5.315,0.558-17.48,2.193-22.932c3.683-12.29,12.382-19.084,22.42-26.465c-11.585-3.267-28.458-26.352-33.878-36.534
				c-7.99-15.006-5.984-33.979,0.825-49.024c5.203-11.496,12.553-22.154,18.856-33.072c3.198-5.538,9.41-12.688,11.328-18.639
				c2.856-8.867-3.219-15.839-7.11-25.68c-8.658-21.889-8.239-57.093-1.371-79.073c2.981-9.54,9.903-20.165,17.643-26.445
				C847.513,46.894,867.323,42.619,880.896,31.827 M900.738,42.549c-27.41,9.575-54.624,15.914-66.064,45.744
				c-10.137,26.432-9.745,60.812,3.351,86.293c11.373-10.13,23.419-19.044,35.852-27.789c5.104-3.591,19.285-18.366,25.306-18.471
				c13.526-0.235,3.851,16.85-3.019,22.446c-8.857,7.212-20.819,11.381-30.205,18.153c-16.777,12.104-27.157,26.107-37.883,43.098
				c-17.208,27.261-30.572,47.588-10.89,78.155c12.286,19.08,20.564,30.269,43.455,18.677c13.626-6.9,27.736-12.485,42.694-16.222
				c16.838-4.206,33.755-2.357,50.7,0.573c15.085,2.607,29.146,6.749,43.496,11.377c7.419,2.393,34.602,5.705,33.797,17.576
				c-27.068,4.411-53.321-13.802-79.449-18.09c-19.408-3.185-38.909-1.166-57.644,4.623c-18.348,5.669-65.887,21.29-68.216,43.958
				c-0.976,9.5,6.782,21.697,7.045,32.105c0.239,9.471-0.327,22.048-3.24,31.146c-4.943,15.431-11.267,27.731-12.554,44.512
				c-3.234,42.147-7.501,108.118,38.24,131.65c3.247-7.178,16.376-19.966,25.368-17.394c-0.876,17.674-21.364,38.575-28.969,54.131
				c-9.446,19.322-17.582,39.866-25.431,59.903c-16.747,42.757-11.216,98.735-11.188,143.929
				c0.041,63.778,46.92,94.808,101.833,115.5c10.631,4.005,20.052,7.463,29.118,13.964c7.017,5.031,14.508,12.783,1.598,14.041
				c-5.713,0.557-13.109-6.292-18.041-8.297c-6.574-2.674-13.009-3.975-19.846-6.243c-13.74-4.559-26.381-9.839-39.093-16.869
				c-5.569-3.08-11.424-7.193-17.402-9.422c-8.595-3.204-4.708-4.899-12.925-0.331c-13.371,7.431-22.656,33.282-23.862,47.475
				c-1.11,13.066,4.744,24.651,8.666,36.944c7.646-8.134,9.283-19.279,21.389-22.057c3.482-0.799,17.304-1.401,17.313,4.909
				c0.006,4.443-20.189,20.292-23.501,25.17c-5.329,7.849-8.361,16.158-12.457,24.667c-11.368,23.619-20.07,53.372-23.818,79.767
				c-6.458,45.471,0.27,86.137,17.519,128.052c6.907,16.782,14.336,34.204,19.424,51.526c2.474,8.422,3.913,20.851-8.583,15.137
				c-6.316-2.888-11.682-18.675-13.084-24.602c-13.857,12.769-21.011,26.937-17.104,46.993
				c5.502,28.246,41.096,46.297,66.965,48.652c27.102,2.466,62.304-1.023,84.945-17.728c11.662-8.604,21.537-22.118,26.241-35.802
				c4.832-14.059-1.569-29.968,14.717-33.901c16.877-4.077,38.56,3.156,52.073-11.106c14.983-15.814,12.665-49.462,6-68.122
				c-2.357-6.599-16.085-20.422-14.484-27.381c2.977-12.936,13.147-1.663,17.943,2.908c15.39,14.66,27.059,26.917,46.529,36.512
				c43.057,21.22,90.828,18.58,136.335,5.275c20.84-6.093,42.295-14.934,55.582-32.861c20.037-27.033,36.575-66.384,42.546-99.423
				c2.145-11.869,1.736-23.161-0.094-35.06c-0.695-4.519-8.156-19.429-7.778-21.502c1.532-8.415,19.189-10.487,25.609-12.652
				c16.91-5.7,33.185-13.491,44.568-27.748c6.347-7.949,10.725-17.243,13.525-26.988c4.607-16.035-9.965-22.957-13.563-38.833
				c-2.464-10.87-4.095-33.619,11.808-23.918c12.829,7.825,11.266,25.936,27.363,31.719c13.272,4.768,31.179-13.132,38.674-8.924
				c5.106,2.865,5.791,15.626,4.293,20.046c-4.066,11.992-17.733,12.838-28.539,13.518c-8.731,0.549-19.679-1.406-23.989,4.189
				c-3.462,4.496-3.726,17.908-6.526,24.054c-12.362,27.133-44.211,49.907-73.932,50.954c16.904,41.302-3.618,83.124-20.829,120.533
				c-13.215,28.724-29.06,57.238-59.002,70.354c-29.971,13.129-65.467,15.675-97.952,16.489
				c-40.509,1.016-65.041-7.446-98.84-30.531c0.942,24.662,2.932,46.621-10.771,68.802c-15.299,24.764-33.097,24.113-59.27,18.588
				c-2.29,39.351-37.791,75.726-76.46,81.475c-43.625,6.486-74.017,1.117-114.066-13.018c2.095,21.696,7.427,25.126,22.895,39.158
				c14.358,13.025,30.954,18.958,46.751,29.251c13.246,8.631,14.317,20.043-3.95,14.138c-20.768-6.714-35.784-19.252-54.082-31.249
				c-1.406,25.853-12.486,50.251-9.193,76.36c3.958,31.381,23.542,45.675,47.45,63.222c-0.43-9.285-0.229-20.597,7.418-27.261
				c5.269,6.273,6.432,14.577,10.585,21.451c6.586,10.903,16.667,16.721,28.496,20.907c33.795,11.958,66.729,3.638,99.015-8.385
				c39.782-14.814,58.755-52.073,94.657-72.849c-12.817-7.431-23.808-12.529-35.754-22.104c-13.164-10.552-30.692-17-42.343-28.805
				c-12.306,18.589-39.505,36.077-62.184,36.745c-21.389,0.63-13.631-9.499,0.229-15.906c16.409-7.586,33.259-13.876,45.643-27.767
				c6.813-7.641,11.609-16.71,14.352-26.553c3.659-13.132,2.213-38.615,14.386-46.928c11.084,14.011,4.403,31.412,0.136,46.175
				c-2.722,9.419-3.003,11.561,1.808,18.813c1.197,1.805,12.604,13.134,14.767,13.427c5.396,0.728,26.874-14.838,31.977-19.458
				c5.219-4.723,10.514-11.946,12.796-18.708c8.645-25.61-1.788-44.363-14.52-65.477c-4.005-6.642-13.091-21.724,2.116-21.599
				c7.886,0.064,18.714,13.93,24.82,18.037c8.818,5.93,18.08,9.067,28.458,11.295c5.545,1.19,11.517,2.506,17.218,2.547
				c3.688,0.027,19.084-4.977,21.617-2.975c5.266,4.162-7.541,17.123-12.142,19.297c-6.216,2.936-16.204,2.099-22.926,1.618
				c-3.511,0.25-7.01,0.071-10.494-0.539c-6.332-4.436-9.415-2.546-9.251,5.669c-9.685,15.685-6.718,36.127-17.2,52.172
				c-9.64,14.757-21.167,26.539-39.599,29.499c46.469,43.151,125.063,51.951,182.07,28.512c22.798-9.374,35.796-22.46,47.687-43.906
				c12.974-23.402,14.52-46.12,22-71.295c-22.877,0.131-39.292-0.772-61.513-6.336c1.957,27.808-6.861,49.995-34.537,60.816
				c-9.495,3.713-75.113,12.079-67.67-9.153c2.886-8.23,27.229-5.454,32.994-5.515c15.281-0.164,28.5-1.86,40.41-12.611
				c9.964-8.994,20.289-26.762,11.558-38.291c-7.375-9.738-24.322-19.081-33.754-27.64c-5.654-5.13-18.852-15.801-20.815-24.006
				c-5.885-24.598,21.109,2.348,25.976,7.288c16.806,17.059,39.328,33.218,63.247,37.674c51.974,9.681,104.84-2.566,135.897-47.694
				c31.86-46.292,48.979-91.714,26.27-145.722c-8.522,5.486-79.575,23.552-79.17,0.983c14.156-5.109,30.04-0.483,44.567-5.085
				c17.203-5.45,30.429-20.489,34.831-37.895c4.036-15.956-2.025-26.18-3.353-41.46c-1.297-14.906,1.653-14.346,14.997-19.606
				c44.608-17.58,71.839-73.271,61.489-119.081c-2.451-10.844-6.016-23.531-10.798-33.431c-2.882-5.967-7.025-11.454-10.693-16.929
				c-6.314-9.426-5.262-11.404-14.147-11.041c-13.031,0.533-26.185,10.418-39.212,11.941c-12.945,1.514-19.324-2.509-29.356,6.16
				c-39.556,34.18-51.983,90.181-111.736,97.489c-9.241,1.13-46.997,1.915-21.938-11.629c21.369-11.549,45.703-8.531,66.037-25.129
				c12.059-9.843,19.551-23.193,28.084-35.949c4.636-6.929,10.631-14.122,13.823-21.89c2.546-6.197,0.831-16.992,5.359-21.573
				c8.487-8.585,29.706,0.914,39.9,0.078c15.067-1.236,32.532-10.674,45.795-18.005c16.624-9.188,35.986-25.835,39.058-45.405
				c3.88-24.71-14.824-67.958-34.609-82.844c-10.934-8.227-10.468-2.71-18.09,6.975c-4.186,5.32-8.506,11.119-13.814,15.386
				c-2.783,2.239-13.073,5.198-14.38,6.953c-3.082,4.14-4.303,24.282-6.981,30.874c-3.23,7.952-7.024,12.57-11.623,19.306
				c-6.686,9.792-13.81,22.558-23.673,29.6c-7.858,5.611-27.173,9.912-23.638-3.655c2.62-10.059,22.803-19.054,29.694-27.48
				c19.428-23.749,24.337-56.429,15.524-85.073c-5.247-17.051-12.875-34.831-24.609-48.473c-4.845-5.633-35.437-28.654-6.885-24.208
				c12.838,1.999,26.377,24.076,32.083,34.05c9.572,16.728,14.619,35.231,19.371,53.777c24.169-12.355,33.698-44.879,31.915-70.311
				c-1.146-16.355-7.115-35.607-17.784-48.077c-2.356-2.753-14.805-15.947-19.356-15.359c-4.762,0.615-10.043,11.477-13.903,14.829
				c-3.966,3.444-12.707,10.639-18.004,8.073c-10.206-4.945,2.213-12.251,5.334-15.422c12.392-12.594,18.091-28.133,24.065-44.525
				c10.654-29.234,13.11-62.083,8.759-92.771c-4.713-33.248-20.553-60.605-45.618-81.998
				c-12.372-10.559-26.961-32.067-42.585-26.996c-9.061,2.942-32.071,20.466-32.151,2.946c-0.009-1.939,5.891-15.838,7.321-19.071
				c3.572-8.074,3.75-3.848,10.689-8.853c9.621-6.941,6.704-10.988,6.065-24.766c-0.495-10.672,0.442-21.483-0.579-32.124
				c-3.229-33.665-17.51-56.411-50.814-63.192c-4.269-0.869-22.894-5.668-25.66-2.176c-1.22,1.539,6.637,19.455,7.619,24.029
				c1.588,7.4,1.969,13.992,1.974,21.813c0.004,6.31,3.638,24.554-3.812,27.205c-8.836,3.144-8.55-6.939-9.055-12.294
				c-1.704-18.078-2.745-31.792-9.806-49.434c-22.536,14.222-23.977-2.376-28.848-19.514c-3.064-10.784-2.716-10.857-13.559-16.39
				c-4.882-2.492-10.781-6.017-15.798-7.886c-4.343-1.619-25.339-2.831-25.732-10.269c-1.154-21.841,77.885,20.609,84.111,25.334
				c8.661-24.931,16.801-47.011,5.176-72.134c-10.734-23.199-32.321-52.87-56.194-63.516c-20.203-9.007-43.714-8.36-64.303-1.837
				c-9.065,2.872-18.973,6.854-27.403,11.11c-7.603,3.839-12.176,9.37-20.297,11.798c0.879,3.348,5.095,12.866,6.988,15.649
				c4.26,6.269,0.036,3.882,8.651,6.93c7.912,2.8,21.638-2.231,28.682,2.017c13.448,8.108-11.532,12.15-20.229,11.884
				c-11.297-0.347-14.245-5.315-17.191,6.583c-1.339,5.406-0.999,11.882-1.837,17.508c-1.395,9.372,3.222,44.359-2.56,49.946
				c-8.069,7.798-15.475-4.071-16.471-10.912c-1.491-10.245,2.5-26.533,3.768-36.95c2.433-19.957,6.179-37.613-3.899-56.636
				c-17.053-32.191-52.843-45.993-86.419-52.716c6.689,11.001,11.223,22.011,14.687,34.546c1.548,5.604,0.874,16.868,4.319,21.706
				c2.415,3.392,9.825,4.523,12.989,8.309c11.137,13.324,7.868,43.264-4.293,54.172c-14.263,12.794-35.322,9.085-52.539,6.181
				c-3.808-0.642-19.641-1.159-20.109-5.64c-1.27-12.159,23.739-3.518,26.7-3.334c15.821,0.98,40.46-13.176,32.631-33.148
				c-1.596-4.071-5.269-3.082-6.777-5.878c-4.02-7.445-4.198-12.098-5.116-21.222C977.509,78.303,949.274,28.286,900.738,42.549
				C896.36,44.078,902.969,41.895,900.738,42.549z"/>
			<path fill="#040000" d="M1070.576,241.287c19.301-7.173,47.871,26.599,52.292,42.316c4.095,14.562,4.239,36.456,1.475,51.236
				c12.608-1.067,24.872-1.896,36.987-5.432c11.035-3.221,17.845-8.103,14.001,6.719c-3.443,13.274-15.203,15.937-27.406,17.307
				c-8.079,0.906-18.697-2.944-26.068-1.152c-7.778,1.892-9.788,8.138-17.308,13.887c-16.661,12.735-34.61,12.237-54.244,13.626
				c2.334,6.66,16.587,54.203-3.281,36.146c-7.768-7.06-8.901-22.496-13.57-31.705c-2.492-4.913-27.166-29.657-18.13-36.464
				c6.088-4.586,24.617,19.321,31.104,19.734c11.615,0.741,38.379-13.013,47.369-20.12c17.494-13.83,16.139-36.765,10.743-56.432
				C1097.981,267.045,1081.007,261.147,1070.576,241.287C1073.454,240.216,1072.851,245.618,1070.576,241.287z"/>
			<path fill="#040000" d="M909.722,349.866c-1.05-16.531,22.949,8.871,24.737,11.491c6.199,9.082,20.002,29.555,2.206,31.408
				c30.417,0,59.239,9.508,80.109,32.359c27.183,29.765,37.014,73.163,67.409,100.253c24.951,22.237,45.675,28.623,77.296,18.243
				c20.529-6.739,26.815-19.134,42.581-30.588c38.294,48.883-69.861,52.506-93.553,53.493c16.933,22.647-4.023,61.043-20.835,77.668
				c22.724,16.555,27.363,47.957,12.914,72.035c-18.176,30.289-58.499,39.016-91.093,33.569c-0.361,15.54,0.827,28.77-3.367,43.436
				c45.317,8.002,82.034,49.417,83.167,95.364c11.871-2.715,22.613-7.119,35.012-7.003c26.265,0.244,53.212,12.381,76.8,22.423
				c5.682-24.501,22.373-42.75,46.237-49.995c10.997-3.338,41.544-10.934,50.027,0.971c-15.224,7.342-32.379,4.62-47.688,12.039
				c-12.961,6.28-20.611,16.689-26.582,29.449c-3.23,6.902-5.666,21.129-12.24,25.831c-9.989,7.146-19.51-6.609-28.346-11.813
				c-14.029-8.262-33.271-14.997-49.643-16.101c-8.803-0.593-38.69,1.461-43.913,7.436c-3.805,4.352-1.168,21.812-2.252,28.451
				c-1.039,6.362-2.863,11.885-4.4,18.024c-1.367,5.464-1.434,12.155-4.658,16.967c-3.267,4.877-18.469,13.853-23.579,5.525
				c-2.738-4.461,12.115-24.848,13.667-29.283c5.817-16.626,9.65-40.564,6.795-58.035c-4.536-27.754-24.898-58.468-50.431-70.878
				c-27.943-13.583-46.779-7.803-63.677,17.026c-4.219,6.199-10.12,18.221-18.603,18.597c-9.63,0.427-22.957-14.751-32.721-17.727
				c-22.908-6.981-34.953,4.043-47.323,19.945c-10.214,13.129-31.146,26.467-22.791-2.197
				c13.656-46.852,68.914-33.077,101.144-21.625c10.31-26.177,27.225-36.2,54.131-35.462c-1.041-13.788,2.647-26.712-1.069-40.253
				c-3.934-14.337-11.552-22.36-22.103-31.978c-4.809-4.383-16.331-12.391-8.948-18.108c3.786-2.932,8.689,0.15,12.314,1.325
				c9.535,3.09,17.461,10.94,23.09,18.879c3.955,5.578,6.184,12.871,12.138,15.377c4.586,1.93,13.961,0.311,18.826-0.125
				c12.521-1.121,26.034-4.955,37.095-11.205c9.187-5.19,14.991-11.803,19.257-21.415c8.696-19.596,0.118-28.701-8.836-44.532
				c-7.843-13.869-0.434-19.179,7.327-30.959c7.438-11.291,13.001-24.627,12.371-38.276c-0.779-16.886-3.025-31.93-15.195-45.136
				c-14.512-15.747-28.336-27.494-38.203-47.282c-13.17-26.414-26.578-56.143-50.528-74.864
				c-21.383-16.716-56.102-20.139-82.541-18.764c-5.624,0.293-33.59,5.423-23.848-7.599c6.423-8.585,31.282-4.156,39.366-3.814
				c-3.186-6.341-3.243-13.991-5.894-20.589C917.781,364.133,911.605,358.184,909.722,349.866
				C909.45,345.569,911.834,359.196,909.722,349.866z"/>
			<path fill="#040000" d="M1210.111,350.877c13.33,20.183,15.984,58.346,14.138,81.536c-0.461,5.79-3.512,12.359-3.548,17.877
				c-0.049,7.35,3.071,12.751,7.96,19.598c9.354,13.104,21.592,24.099,31.731,36.609c19.186-31.705,29.345-53.845,19.766-92.14
				c-2.502-10.003-5.665-18.012-12.599-25.595c-5.507-6.024-15.332-10.415-14.959-19.589c15.886,0.076,33.673,16.969,41.764,30.283
				c7.885,12.971,4.756,33.304,5.812,47.66c14.959-0.429,26.836,0.28,41.251,4.077c8.681,2.288,37.18,6.591,35.253,19.261
				c-2.837,18.642-20.052,3.651-26.214-0.194c-13.617-8.497-24.208-8.481-39.567-7.221c-14.675,1.204-9.246,0.815-12.717,13.459
				c-1.725,6.283-6.119,11.853-9.218,17.48c-3.094,5.617-5.868,11.287-9.978,16.259c-7.306,8.843-8.268,4.913-5.395,14.036
				c3.452,10.96,17.435,20.539,23.162,30.788c7.904,14.146,14.307,31.172,18.286,46.919c22.499-27.655,48.423-41.463,84.687-30.455
				c-0.701,12.136-24.3,9.486-31.4,11.138c-6.514,1.516-14.354,4.249-19.945,8.185c-3.623,2.551-6.654,6.354-9.876,9.387
				c-4.337,4.081-17.67,12.365-19.304,17.537c-1.488,4.705,1.935,13.141,2.457,17.804c3.605,32.149-0.458,82.495-23.383,108.198
				c15.991,2.052,34.897,13.665,45.382,25.681c4.407,5.052,19.087,33.154,9.15,37.123c-11.204,4.475-27.269-32.738-35.632-38.695
				c-4.471-3.185-22.552-14.449-27.79-12.878c-5.756,1.725-13.233,15.771-17.535,20.393c-12.823,13.779-28.355,26.039-45.539,33.926
				c-5.778,2.651-26.799,12.418-33.1,6.018c-7.628-7.748,12.095-14.864,17.054-16.958c56.495-23.855,99.367-80.453,98.584-143.405
				c-0.734-58.988-34.512-127.641-83.018-162.936c-10.621-7.728-31.425-10.926-31.416-24.636
				c0.009-14.269,14.26-29.197,15.705-44.138c1.091-11.299-1.076-24.065-4.251-34.823
				C1202.963,378.603,1194.491,355.824,1210.111,350.877C1216.256,360.179,1206.076,352.155,1210.111,350.877z"/>
			<path fill="#040000" d="M916.731,476.641c15.008-1.574,30.757,16.302,41.821,23.649c7.97,5.293,17.122,11.078,26.666,12.823
				c10.517,1.922,18.263-2.288,28.516-2.921c5.965,17.974-6.299,25.297-20.325,26.532c-12.984,1.144-19.437-3.627-27.829,7.858
				c-5.622,7.694-8.787,17.087-11.142,26.198c-5.175,20.025-4.346,34.891,1.571,54.438c1.259,4.159,2.167,8.469,3.393,12.597
				c2.76,9.291-0.873,6.947,6.727,11.526c8.31,5.007,16.905-0.711,22.192,10.88c-1.985,5.374-55.605-4.061-64.844-1.973
				c-10.82,2.444-20.935,9.001-29.841,15.353c-5.835,4.162-17.697,18.873-25.264,17.913c-21.276-2.7,19.229-33.248,26.142-36.88
				c17.558-9.225,33.756-7.876,52.61-8.585c-16.132-26.997-18.616-61.352-4.961-91.405c2.428-5.342,15.992-20.066,15.483-25.531
				c-0.34-3.647-10.655-12.783-13.083-15.547c-5.095-5.801-9.883-13.502-15.857-18.001
				C924.85,492.664,895.469,479.291,916.731,476.641C920.29,476.267,910.134,477.462,916.731,476.641z"/>
			<path fill="#040000" d="M997.257,983.266c-4.03-15.266,18.484-1.069,21.357,3.955c3.961,6.926,4.8,12.993,5.306,20.927
				c1.254,19.656,0.357,34.941-12.783,49.646c19.939,4.826,46.101-2.548,64.946-8.739c11.802-3.876,20.805-8.838,29.775-17.551
				c6.577-6.388,12.487-16.797,22.479-18.046c6.972,22.474-11.386,30.993-26.485,41.167c-25.067,16.891-50.494,17.574-80.288,18.859
				c-11.155,0.481-23.318,1.689-34.101-1.883c-1.967-0.652-3.464-2.239-5.342-2.987c-4.32-1.722-8.288-4.402-13.001-5.151
				c-9.738-1.547-13.991,1.835-23.247,6.071c-12.034,5.507-38.837,18.338-52.745,14.506c-26.96-7.429,24.112-17.046,28.326-18.535
				c10.102-3.57,11.564-9.431,19.324-15.282c10.885-8.209,23.233-5.979,35.85-4.452c9.512,1.15,12.581,3.592,19.736-4.103
				c4.642-4.993,7.031-13.647,8.239-20.145C1007.356,1006.73,1000.017,997.314,997.257,983.266
				C996.357,979.854,998.178,987.946,997.257,983.266z"/>
			<path fill="#040000" d="M1213.68,1007.205c1.417-2.252,2.833-4.502,4.251-6.754c18.687,14.544,19.306,42.388,24.582,63.449
				c5.099,20.351,10.124,45.299-3.56,62.668c-13.625,17.295-34.748,22.931-56.002,23.586c-11.098,0.341-21.401-0.089-31.68-4.827
				c-2.078-0.958-5.456-3.234-7.598-3.72c-2.573-4.918-5.161-5.638-7.763-2.159c-2.588,2.058-5.14,4.161-7.654,6.31
				c-48.179,30.398-113.875,33.451-166.852,18.896c2.384,20.168,6.085,43.961-11.351,59.153
				c-7.079,6.167-31.957,12.687-40.641,6.936c-11.618-7.693,5.199-14.704,12.629-19.335c10.912-6.802,22.601-10.485,25.672-24.101
				c1.57-6.962,0.566-27.632-2.66-31.842c-1.422-1.856-73.764-37.975-47.296-48.219c7.613-2.946,19.265,12.991,24.416,17.412
				c9.811,8.423,19.957,14.72,31.936,19.678c29.911,12.377,56.55,16.459,88.44,12.063c25.736-3.548,51.422-10.925,72.071-27.26
				c4.668-3.692,9.536-10.874,14.814-13.453c8.169-3.991,6.224-1.113,14.096,3.542c27.554,16.294,76.825,16.395,87.087-20.641
				C1238.956,1068.494,1213.888,1037.051,1213.68,1007.205C1214.553,1004.657,1213.734,1015.043,1213.68,1007.205z"/>
		</g>
	</g>
	<g>
		<g>
			<path fill="#040000" d="M673.208,31.827c13.572,10.792,33.383,15.067,47.574,26.575c7.74,6.28,14.662,16.905,17.643,26.445
				c6.868,21.98,7.287,57.184-1.371,79.073c-3.891,9.84-9.966,16.813-7.11,25.68c1.918,5.952,8.13,13.101,11.328,18.639
				c6.303,10.917,13.653,21.575,18.856,33.072c6.809,15.045,8.816,34.018,0.826,49.024c-5.42,10.182-22.293,33.267-33.878,36.534
				c10.038,7.382,18.737,14.176,22.42,26.465c1.634,5.452,3.982,17.617,2.193,22.932c-2.459,7.3-5.947,5.094-10.333,9.937
				c-5.807,6.411-4.333,6.35-2.041,17.198c1.837,8.696,3.62,17.157,6.087,25.709c1.624,5.636,3.629,11.261,4.429,17.09
				c3.537,25.761,2.65,54.846,1.855,80.78c-0.768,25.034-17.234,73.619-44.725,80.281c3.863,10.605,10.6,21.437,15.1,32.013
				c4.863,11.426,9.162,22.956,14.158,34.336c4.116,9.379,6.832,18.47,9.354,28.263c1.828,7.102,3.465,13.436,4.116,20.841
				c2.705,30.791,1.556,62.237,1.704,93.096c0.109,23.032,4.67,49.436-5.412,70.179c-6.384,13.132-14.063,21.912-23.565,32.176
				c21.41,19.464,39.23,60.994,32.176,89.641c-1.556,6.319-5.308,12.328-9.081,17.534c-7.985,11.016-8.433,11.742-3.808,24.442
				c5.499,15.097,9.527,28.618,13.336,44.364c5.314,21.967,8.646,36.503,9.075,60.034c0.472,25.888,4.469,53.592-4.473,78.462
				c-4.442,12.355-15.778,26.75-16.914,39.421c-1.245,13.892,14.809,27.915,19.859,40.579c4.736,11.879,4.817,27.064,4.455,39.641
				c-0.784,27.313-12.97,51.978-17.13,78.78c-1.733,11.169-7.518,28.899-5.448,40.166c0.298,1.624,6.101,5.469,6.763,7.346
				c1.635,4.64,0.533,7.257,1.15,11.644c0.562,3.99,1.672,7.872,2.17,11.839c3.215,25.612,0.85,50.679-15.142,71.682
				c-7.007,9.205-16.304,15.665-26.215,21.195c-5.595,3.122-10.834,5.981-16.928,7.972c-2.408,0.787-9.853-1.778-10.607-1.407
				c-6.456,3.184-11.754,13.081-19.193,17.031c-4.608,2.446-9.103,4.17-14.117,5.456c-21.044,5.401-48.44,4.456-69.855,0.737
				c-21.398-3.715-46.911-16.588-66.108-26.684c-15.616-8.212-22.918-15.862-32.313-29.021
				c-5.954-8.339-13.983-15.034-21.588-21.979c-5.278-4.819-11.84-14.693-17.777-18.06c-14.064-7.978-44.653,5.031-62.399,7.176
				c-30.419,3.677-58.768,0.438-85.77-14.05c-12.889-6.916-26.056-10.711-36.284-21.771c-13.432-14.524-18.71-33.543-27.07-50.892
				c-7.793-16.171-3.597-48.626-18.413-56.459c-5.194-2.746-14.399-4.239-20.157-6.262c-22.19-7.798-35.039-16.562-50.456-34.831
				c-10.383-12.303-17.751-26.369-26.732-39.748c-19.722-29.377-29.538-55.651-25.473-91.5c1.212-10.686,4.184-20.863,5.659-31.595
				c1.434-10.433,7.903-21.91,7.343-29.514c-0.584-7.934-6.267-16.001-7.355-24.289c-1.343-10.23,6.016-25.748,2.914-34.407
				c-2.977-8.313-19.837-20.357-26.022-26.096c-8.255-7.658-15.901-15.626-23.306-24.12c-14.671-16.832-21.652-35.095-24.388-57.226
				c-4.713-38.109,14.426-76.16,37.954-104.647c-27.771-15.268-40.731-30.903-35.738-64.766
				c2.582-17.512,9.856-38.453,17.254-53.971c6.56-13.758,15.447-24.119,24.838-36.2c3.09-1.862,6.206-3.679,9.347-5.452
				c-0.399-4.975-0.732-9.955-0.996-14.94c-0.406-7.55-0.702-15.115-0.763-22.676c-0.117-14.788,3.643-25.094,9.585-38.794
				c5.51-12.703,11.571-21.614,22.68-30.319c11.184-8.764,12.593-6.648,9.075-21.206c-4.332-17.928-9.094-35.279-9.857-53.824
				c-1.672-40.653-0.266-72.968,21.272-108.768c13.712-22.791,33.398-36.612,53.39-53.645
				c18.438-15.707,21.007-39.799,22.732-63.427c1.7-23.266,4.283-54.85,19.737-73.401c8.565-10.281,19.032-15.173,31.873-17.132
				c12.256-1.869,32.864,3.524,34.375-14.285c0.888-10.478-6.443-23.803-6.628-34.981c-0.352-21.21,7.13-41.402,18.811-58.89
				c33.517-50.18,85.363-67.14,141.872-45.499c9.537,3.652,25.648,17.992,35.777,16.144c9.369-1.709,18.523-16.905,27.134-21.869
				c18.149-10.46,39.963-19.265,61.015-21.09c8.075-0.701,9.573-0.476,15.733-4.294c5.003-3.103,8.148-6.989,13.728-9.668
				c12.639-6.068,26.192-6.157,39.921-6.902C650.664,28.365,664.622,25.461,673.208,31.827 M653.365,42.549
				c-48.536-14.263-76.771,35.754-80.735,75.265c-0.918,9.124-1.096,13.778-5.116,21.222c-1.508,2.796-5.181,1.808-6.777,5.878
				c-7.829,19.972,16.81,34.127,32.631,33.148c2.962-0.184,27.97-8.825,26.7,3.334c-0.469,4.48-16.302,4.998-20.109,5.64
				c-17.217,2.904-38.276,6.613-52.539-6.181c-12.161-10.908-15.43-40.848-4.293-54.172c3.164-3.786,10.575-4.917,12.989-8.309
				c3.444-4.839,2.77-16.103,4.319-21.706c3.464-12.535,7.998-23.545,14.687-34.546c-33.575,6.723-69.366,20.525-86.419,52.716
				c-10.078,19.023-6.332,36.679-3.899,56.636c1.268,10.417,5.258,26.705,3.768,36.95c-0.996,6.841-8.402,18.71-16.471,10.912
				c-5.782-5.587-1.164-40.574-2.56-49.946c-0.838-5.627-0.498-12.102-1.837-17.508c-2.946-11.898-5.894-6.93-17.191-6.583
				c-8.696,0.266-33.676-3.776-20.229-11.884c7.044-4.248,20.77,0.783,28.682-2.017c8.616-3.048,4.392-0.661,8.651-6.93
				c1.892-2.783,6.108-12.301,6.988-15.649c-8.121-2.428-12.694-7.96-20.297-11.798c-8.429-4.256-18.338-8.238-27.403-11.11
				c-20.588-6.523-44.1-7.17-64.303,1.837c-23.873,10.645-45.46,40.316-56.194,63.516c-11.625,25.123-3.484,47.202,5.176,72.134
				c6.226-4.726,85.266-47.176,84.112-25.334c-0.393,7.438-21.389,8.65-25.732,10.269c-5.017,1.869-10.916,5.395-15.798,7.886
				c-10.843,5.533-10.495,5.606-13.559,16.39c-4.871,17.137-6.312,33.735-28.848,19.514c-7.061,17.642-8.102,31.355-9.806,49.434
				c-0.505,5.355-0.218,15.438-9.055,12.294c-7.45-2.651-3.815-20.895-3.812-27.205c0.005-7.821,0.386-14.413,1.975-21.813
				c0.982-4.574,8.839-22.489,7.619-24.029c-2.767-3.492-21.392,1.307-25.66,2.176c-33.304,6.781-47.585,29.527-50.814,63.192
				c-1.021,10.641-0.084,21.452-0.579,32.124c-0.639,13.778-3.556,17.824,6.065,24.766c6.939,5.005,7.117,0.779,10.689,8.853
				c1.43,3.233,7.33,17.132,7.321,19.071c-0.081,17.52-23.09-0.004-32.151-2.946c-15.624-5.071-30.213,16.436-42.585,26.996
				c-25.065,21.393-40.906,48.751-45.618,81.998c-4.351,30.688-1.895,63.536,8.759,92.771c5.973,16.391,11.672,31.931,24.065,44.525
				c3.121,3.171,15.54,10.477,5.334,15.422c-5.297,2.566-14.038-4.628-18.004-8.073c-3.86-3.352-9.142-14.214-13.903-14.829
				c-4.551-0.588-17,12.607-19.356,15.359c-10.67,12.469-16.638,31.721-17.784,48.077c-1.783,25.432,7.746,57.956,31.915,70.311
				c4.753-18.546,9.799-37.049,19.371-53.777c5.706-9.974,19.245-32.051,32.083-34.05c28.552-4.446-2.04,18.575-6.885,24.208
				c-11.734,13.643-19.362,31.422-24.609,48.473c-8.813,28.644-3.904,61.324,15.524,85.073c6.891,8.426,27.074,17.421,29.694,27.48
				c3.534,13.567-15.78,9.266-23.638,3.655c-9.863-7.043-16.987-19.809-23.673-29.6c-4.6-6.736-8.393-11.354-11.623-19.306
				c-2.678-6.592-3.899-26.734-6.981-30.874c-1.307-1.755-11.597-4.714-14.38-6.953c-5.307-4.267-9.627-10.066-13.814-15.386
				c-7.622-9.685-7.156-15.201-18.09-6.975c-19.785,14.887-38.488,58.134-34.608,82.844c3.072,19.57,22.434,36.217,39.058,45.405
				c13.263,7.332,30.729,16.769,45.795,18.005c10.195,0.836,31.413-8.663,39.9-0.078c4.528,4.581,2.813,15.376,5.358,21.573
				c3.191,7.768,9.187,14.961,13.823,21.89c8.533,12.756,16.026,26.106,28.084,35.949c20.334,16.598,44.668,13.58,66.037,25.129
				c25.06,13.544-12.697,12.758-21.937,11.629c-59.753-7.307-72.18-63.309-111.736-97.489c-10.033-8.668-16.412-4.646-29.356-6.16
				c-13.027-1.523-26.182-11.408-39.212-11.941c-8.885-0.363-7.834,1.615-14.147,11.041c-3.668,5.475-7.811,10.962-10.693,16.929
				c-4.782,9.901-8.347,22.587-10.798,33.431c-10.35,45.81,16.881,101.5,61.489,119.081c13.344,5.26,16.294,4.7,14.997,19.606
				c-1.329,15.28-7.39,25.504-3.353,41.46c4.402,17.406,17.628,32.445,34.831,37.895c14.527,4.602,30.41-0.024,44.567,5.085
				c0.404,22.569-70.648,4.502-79.17-0.983c-22.709,54.008-5.59,99.43,26.27,145.722c31.058,45.128,83.923,57.375,135.897,47.694
				c23.92-4.456,46.441-20.615,63.247-37.674c4.867-4.94,31.861-31.886,25.976-7.288c-1.963,8.205-15.162,18.876-20.815,24.006
				c-9.432,8.559-26.378,17.902-33.753,27.64c-8.731,11.529,1.594,29.296,11.558,38.291c11.91,10.75,25.129,12.446,40.41,12.611
				c5.764,0.062,30.108-2.715,32.993,5.515c7.443,21.233-58.175,12.866-67.67,9.153c-27.676-10.821-36.493-33.007-34.537-60.816
				c-22.221,5.564-38.636,6.467-61.513,6.336c7.481,25.175,9.026,47.893,22,71.295c11.891,21.446,24.889,34.531,47.687,43.906
				c57.007,23.44,135.601,14.639,182.07-28.512c-18.431-2.96-29.959-14.742-39.599-29.499c-10.482-16.045-7.515-36.487-17.2-52.172
				c0.164-8.215-2.919-10.105-9.251-5.669c-3.484,0.61-6.983,0.789-10.494,0.539c-6.722,0.481-16.71,1.318-22.926-1.618
				c-4.601-2.173-17.408-15.135-12.142-19.297c2.533-2.003,17.928,3.002,21.617,2.975c5.701-0.041,11.674-1.357,17.218-2.547
				c10.378-2.227,19.639-5.365,28.458-11.295c6.106-4.107,16.933-17.973,24.82-18.037c15.207-0.126,6.121,14.956,2.116,21.599
				c-12.731,21.115-23.165,39.867-14.52,65.477c2.281,6.762,7.577,13.984,12.796,18.708c5.103,4.62,26.581,20.186,31.977,19.458
				c2.163-0.293,13.571-11.622,14.767-13.427c4.81-7.252,4.529-9.394,1.808-18.813c-4.267-14.764-10.948-32.164,0.136-46.175
				c12.173,8.313,10.727,33.796,14.386,46.928c2.742,9.843,7.538,18.911,14.352,26.553c12.383,13.891,29.233,20.181,45.643,27.767
				c13.86,6.407,21.618,16.536,0.228,15.906c-22.68-0.667-49.878-18.155-62.184-36.745c-11.652,11.805-29.179,18.253-42.343,28.805
				c-11.946,9.576-22.936,14.674-35.754,22.104c35.901,20.776,54.874,58.035,94.657,72.849
				c32.286,12.023,65.221,20.343,99.015,8.385c11.829-4.185,21.911-10.003,28.496-20.907c4.153-6.874,5.316-15.178,10.585-21.451
				c7.646,6.664,7.848,17.977,7.418,27.261c23.908-17.547,43.492-31.841,47.45-63.222c3.293-26.109-7.788-50.507-9.193-76.36
				c-18.298,11.997-33.314,24.535-54.082,31.249c-18.267,5.904-17.196-5.507-3.95-14.138c15.797-10.294,32.393-16.226,46.751-29.251
				c15.468-14.032,20.8-17.462,22.895-39.158c-40.049,14.135-70.442,19.503-114.066,13.018c-38.669-5.749-74.17-42.124-76.46-81.475
				c-26.173,5.525-43.971,6.176-59.27-18.588c-13.703-22.181-11.713-44.141-10.771-68.802c-33.8,23.085-58.332,31.547-98.841,30.531
				c-32.485-0.814-67.981-3.36-97.952-16.489c-29.942-13.116-45.786-41.631-59.002-70.354
				c-17.212-37.408-37.733-79.231-20.83-120.533c-29.721-1.046-61.571-23.821-73.932-50.954c-2.8-6.147-3.063-19.559-6.526-24.054
				c-4.31-5.595-15.258-3.64-23.989-4.189c-10.806-0.68-24.473-1.526-28.539-13.518c-1.498-4.42-0.813-17.181,4.293-20.046
				c7.495-4.208,25.402,13.692,38.674,8.924c16.096-5.782,14.534-23.894,27.363-31.719c15.904-9.7,14.272,13.048,11.808,23.918
				c-3.598,15.877-18.171,22.799-13.563,38.833c2.8,9.745,7.178,19.039,13.525,26.988c11.383,14.257,27.658,22.048,44.568,27.748
				c6.42,2.165,24.078,4.237,25.609,12.652c0.378,2.073-7.084,16.983-7.778,21.502c-1.829,11.9-2.239,23.192-0.094,35.06
				c5.971,33.04,22.509,72.391,42.546,99.423c13.287,17.927,34.742,26.768,55.582,32.861c45.507,13.305,93.278,15.945,136.335-5.275
				c19.47-9.595,31.138-21.853,46.528-36.512c4.796-4.57,14.966-15.843,17.944-2.908c1.601,6.958-12.127,20.782-14.484,27.381
				c-6.664,18.66-8.983,52.308,6,68.122c13.513,14.262,35.197,7.029,52.073,11.106c16.286,3.933,9.885,19.842,14.717,33.901
				c4.704,13.684,14.579,27.198,26.241,35.802c22.641,16.705,57.843,20.194,84.945,17.728c25.87-2.354,61.463-20.406,66.965-48.652
				c3.907-20.057-3.247-34.225-17.104-46.993c-1.402,5.927-6.768,21.714-13.084,24.602c-12.496,5.714-11.057-6.715-8.583-15.137
				c5.088-17.322,12.517-34.745,19.424-51.526c17.249-41.915,23.976-82.581,17.519-128.052
				c-3.749-26.395-12.45-56.148-23.818-79.767c-4.095-8.509-7.128-16.818-12.457-24.667c-3.312-4.878-23.508-20.727-23.501-25.17
				c0.009-6.31,13.832-5.708,17.313-4.909c12.106,2.778,13.743,13.923,21.389,22.057c3.922-12.292,9.776-23.877,8.666-36.944
				c-1.205-14.192-10.491-40.044-23.862-47.475c-8.218-4.568-4.33-2.873-12.925,0.331c-5.977,2.229-11.833,6.342-17.402,9.422
				c-12.712,7.03-25.352,12.31-39.093,16.869c-6.837,2.268-13.272,3.569-19.846,6.243c-4.932,2.005-12.328,8.854-18.041,8.297
				c-12.91-1.258-5.419-9.01,1.598-14.041c9.066-6.501,18.487-9.958,29.118-13.964c54.913-20.692,101.792-51.723,101.833-115.5
				c0.028-45.193,5.559-101.172-11.188-143.929c-7.849-20.037-15.985-40.581-25.431-59.903
				c-7.605-15.556-28.093-36.457-28.969-54.131c8.992-2.571,22.121,10.216,25.368,17.394c45.742-23.532,41.474-89.503,38.24-131.65
				c-1.288-16.78-7.612-29.081-12.554-44.512c-2.913-9.098-3.479-21.676-3.24-31.146c0.263-10.408,8.021-22.605,7.045-32.105
				c-2.329-22.668-49.868-38.289-68.216-43.958c-18.734-5.789-38.235-7.808-57.644-4.623c-26.128,4.288-52.381,22.501-79.449,18.09
				c-0.805-11.871,26.378-15.183,33.797-17.576c14.35-4.628,28.412-8.77,43.496-11.377c16.945-2.93,33.861-4.778,50.7-0.573
				c14.957,3.737,29.068,9.322,42.694,16.222c22.891,11.593,31.169,0.403,43.455-18.677c19.682-30.567,6.318-50.893-10.89-78.155
				c-10.726-16.991-21.107-30.995-37.883-43.098c-9.386-6.772-21.348-10.94-30.205-18.153c-6.871-5.596-16.546-22.681-3.019-22.446
				c6.021,0.105,20.202,14.88,25.306,18.471c12.434,8.745,24.479,17.659,35.852,27.789c13.096-25.481,13.488-59.861,3.351-86.293
				C707.989,58.463,680.776,52.124,653.365,42.549C651.134,41.895,657.743,44.078,653.365,42.549z"/>
			<path fill="#040000" d="M483.527,241.287c-10.431,19.86-27.405,25.758-33.964,49.67c-5.396,19.666-6.751,42.601,10.743,56.432
				c8.99,7.107,35.755,20.86,47.369,20.12c6.487-0.413,25.016-24.32,31.104-19.734c9.037,6.807-15.638,31.551-18.13,36.464
				c-4.669,9.209-5.801,24.645-13.57,31.705c-19.868,18.057-5.615-29.486-3.281-36.146c-19.634-1.389-37.583-0.891-54.244-13.626
				c-7.52-5.749-9.53-11.994-17.308-13.887c-7.37-1.792-17.988,2.058-26.067,1.152c-12.204-1.37-23.963-4.032-27.406-17.307
				c-3.844-14.823,2.966-9.94,14.001-6.719c12.115,3.536,24.379,4.365,36.987,5.432c-2.764-14.78-2.62-36.674,1.475-51.236
				C435.656,267.886,464.227,234.114,483.527,241.287C481.252,245.618,480.649,240.216,483.527,241.287z"/>
			<path fill="#040000" d="M644.381,349.866c-1.883,8.318-8.06,14.267-11.154,21.977c-2.651,6.599-2.708,14.249-5.894,20.589
				c8.084-0.341,32.943-4.771,39.366,3.814c9.743,13.022-18.223,7.891-23.848,7.599c-26.44-1.375-61.159,2.048-82.541,18.764
				c-23.949,18.722-37.357,48.45-50.528,74.864c-9.867,19.788-23.691,31.535-38.203,47.282
				c-12.17,13.205-14.416,28.25-15.195,45.136c-0.63,13.649,4.932,26.985,12.371,38.276c7.76,11.78,15.169,17.09,7.327,30.959
				c-8.954,15.832-17.533,24.936-8.836,44.532c4.266,9.612,10.07,16.225,19.257,21.415c11.061,6.25,24.574,10.084,37.095,11.205
				c4.864,0.435,14.24,2.054,18.826,0.125c5.954-2.506,8.183-9.799,12.138-15.377c5.629-7.939,13.556-15.789,23.09-18.879
				c3.625-1.175,8.528-4.257,12.314-1.325c7.383,5.717-4.139,13.725-8.948,18.108c-10.552,9.618-18.169,17.641-22.103,31.978
				c-3.717,13.541-0.028,26.465-1.069,40.253c26.906-0.738,43.821,9.286,54.131,35.462c32.23-11.451,87.488-25.227,101.144,21.625
				c8.355,28.663-12.577,15.326-22.791,2.197c-12.371-15.902-24.415-26.926-47.323-19.945c-9.764,2.976-23.092,18.154-32.721,17.727
				c-8.483-0.376-14.385-12.398-18.603-18.597c-16.899-24.829-35.734-30.608-63.677-17.026
				c-25.533,12.41-45.896,43.124-50.431,70.878c-2.855,17.471,0.978,41.409,6.795,58.035c1.552,4.436,16.406,24.822,13.667,29.283
				c-5.111,8.328-20.312-0.648-23.579-5.525c-3.224-4.812-3.29-11.503-4.658-16.967c-1.537-6.139-3.361-11.662-4.4-18.024
				c-1.084-6.64,1.553-24.099-2.252-28.451c-5.224-5.975-35.11-8.029-43.913-7.436c-16.372,1.104-35.614,7.839-49.643,16.101
				c-8.836,5.205-18.357,18.959-28.346,11.813c-6.574-4.702-9.01-18.93-12.24-25.831c-5.971-12.76-13.621-23.169-26.582-29.449
				c-15.309-7.419-32.463-4.697-47.688-12.039c8.483-11.905,39.03-4.308,50.027-0.971c23.864,7.244,40.555,25.494,46.237,49.995
				c23.588-10.042,50.535-22.179,76.8-22.423c12.399-0.115,23.14,4.288,35.012,7.003c1.132-45.947,37.85-87.362,83.167-95.364
				c-4.194-14.666-3.007-27.896-3.367-43.436c-32.594,5.447-72.917-3.28-91.093-33.569c-14.449-24.078-9.811-55.48,12.914-72.035
				c-16.811-16.625-37.768-55.021-20.835-77.668c-23.691-0.987-131.847-4.61-93.553-53.493
				c15.766,11.454,22.052,23.849,42.581,30.588c31.621,10.381,52.345,3.994,77.296-18.243
				c30.395-27.089,40.226-70.488,67.409-100.253c20.869-22.852,49.692-32.359,80.109-32.359
				c-17.796-1.853-3.994-22.326,2.206-31.408C621.432,358.737,645.431,333.335,644.381,349.866
				C642.269,359.196,644.654,345.569,644.381,349.866z"/>
			<path fill="#040000" d="M343.992,350.877c15.62,4.948,7.148,27.726,4.241,37.569c-3.175,10.758-5.342,23.524-4.251,34.823
				c1.444,14.941,15.696,29.869,15.705,44.138c0.009,13.71-20.795,16.908-31.416,24.636
				c-48.506,35.295-82.283,103.949-83.018,162.936c-0.783,62.952,42.089,119.549,98.584,143.405
				c4.959,2.094,24.682,9.21,17.054,16.958c-6.301,6.4-27.322-3.367-33.1-6.018c-17.184-7.886-32.716-20.147-45.539-33.926
				c-4.302-4.622-11.779-18.668-17.535-20.393c-5.238-1.571-23.319,9.693-27.79,12.878c-8.363,5.957-24.428,43.17-35.632,38.695
				c-9.938-3.969,4.742-32.072,9.15-37.123c10.485-12.016,29.391-23.63,45.382-25.681c-22.925-25.703-26.988-76.049-23.383-108.198
				c0.522-4.663,3.945-13.099,2.457-17.804c-1.634-5.171-14.968-13.455-19.304-17.537c-3.222-3.034-6.253-6.836-9.876-9.387
				c-5.591-3.936-13.431-6.669-19.945-8.185c-7.101-1.652-30.699,0.998-31.4-11.138c36.263-11.007,62.188,2.8,84.687,30.455
				c3.98-15.747,10.382-32.773,18.286-46.919c5.727-10.249,19.71-19.828,23.162-30.788c2.873-9.123,1.911-5.193-5.395-14.036
				c-4.109-4.972-6.884-10.643-9.978-16.259c-3.099-5.627-7.492-11.197-9.218-17.48c-3.471-12.644,1.958-12.255-12.717-13.459
				c-15.358-1.259-25.949-1.276-39.566,7.221c-6.162,3.845-23.377,18.836-26.214,0.194c-1.927-12.67,26.572-16.973,35.253-19.261
				c14.414-3.797,26.292-4.506,41.251-4.077c1.055-14.355-2.073-34.688,5.812-47.66c8.092-13.314,25.879-30.208,41.764-30.283
				c0.374,9.174-9.451,13.566-14.959,19.589c-6.934,7.583-10.097,15.592-12.599,25.595c-9.578,38.296,0.58,60.436,19.767,92.14
				c10.139-12.509,22.378-23.505,31.731-36.609c4.889-6.848,8.008-12.249,7.96-19.598c-0.036-5.518-3.087-12.087-3.548-17.877
				C328.007,409.222,330.662,371.059,343.992,350.877C348.027,352.155,337.848,360.179,343.992,350.877z"/>
			<path fill="#040000" d="M637.372,476.641c21.262,2.65-8.119,16.023-11.974,18.924c-5.975,4.5-10.762,12.2-15.857,18.001
				c-2.428,2.764-12.743,11.899-13.083,15.547c-0.51,5.465,13.055,20.189,15.483,25.531c13.656,30.052,11.172,64.408-4.961,91.405
				c18.854,0.709,35.051-0.641,52.61,8.585c6.913,3.632,47.418,34.18,26.142,36.88c-7.567,0.96-19.429-13.751-25.264-17.913
				c-8.906-6.352-19.021-12.909-29.84-15.353c-9.24-2.087-62.86,7.347-64.844,1.973c5.287-11.591,13.882-5.873,22.192-10.88
				c7.6-4.579,3.967-2.235,6.727-11.526c1.226-4.127,2.134-8.437,3.393-12.597c5.917-19.547,6.746-34.413,1.571-54.438
				c-2.355-9.111-5.52-18.505-11.142-26.198c-8.392-11.485-14.844-6.714-27.829-7.858c-14.025-1.235-26.289-8.558-20.325-26.532
				c10.252,0.633,17.999,4.842,28.516,2.921c9.544-1.745,18.696-7.529,26.666-12.823
				C606.615,492.942,622.364,475.067,637.372,476.641C643.969,477.462,633.813,476.267,637.372,476.641z"/>
			<path fill="#040000" d="M556.846,983.266c-2.76,14.047-10.098,23.464-7.346,38.256c1.208,6.499,3.597,15.153,8.239,20.145
				c7.155,7.695,10.224,5.253,19.736,4.103c12.617-1.526,24.965-3.756,35.85,4.452c7.759,5.851,9.221,11.712,19.324,15.282
				c4.213,1.489,55.285,11.106,28.326,18.535c-13.907,3.832-40.71-8.998-52.745-14.506c-9.256-4.236-13.509-7.618-23.247-6.071
				c-4.713,0.748-8.681,3.429-13.001,5.151c-1.878,0.748-3.375,2.335-5.342,2.987c-10.784,3.573-22.946,2.365-34.101,1.883
				c-29.794-1.285-55.221-1.968-80.288-18.859c-15.099-10.174-33.457-18.693-26.485-41.167c9.992,1.249,15.902,11.658,22.479,18.046
				c8.97,8.713,17.973,13.675,29.775,17.551c18.845,6.19,45.007,13.565,64.946,8.739c-13.14-14.705-14.037-29.99-12.783-49.646
				c0.506-7.934,1.345-14.001,5.306-20.927C538.362,982.197,560.876,968.001,556.846,983.266
				C555.925,987.946,557.746,979.854,556.846,983.266z"/>
			<path fill="#040000" d="M340.423,1007.205c-0.208,29.846-25.275,61.288-16.937,91.382c10.263,37.036,59.533,36.935,87.087,20.641
				c7.872-4.655,5.927-7.533,14.096-3.542c5.278,2.579,10.146,9.761,14.814,13.453c20.648,16.335,46.335,23.712,72.071,27.26
				c31.891,4.397,58.529,0.314,88.441-12.063c11.979-4.958,22.125-11.255,31.936-19.678c5.152-4.421,16.804-20.358,24.416-17.412
				c26.468,10.245-45.874,46.363-47.296,48.219c-3.226,4.21-4.23,24.88-2.66,31.842c3.071,13.616,14.76,17.299,25.672,24.101
				c7.429,4.631,24.247,11.643,12.629,19.335c-8.684,5.75-33.562-0.769-40.641-6.936c-17.436-15.192-13.735-38.985-11.351-59.153
				c-52.977,14.554-118.673,11.501-166.852-18.896c-2.514-2.149-5.066-4.252-7.654-6.31c-2.602-3.479-5.19-2.759-7.763,2.159
				c-2.141,0.487-5.519,2.763-7.598,3.72c-10.279,4.739-20.582,5.169-31.68,4.827c-21.253-0.655-42.377-6.291-56.002-23.586
				c-13.684-17.37-8.659-42.318-3.56-62.668c5.276-21.061,5.895-48.905,24.582-63.449
				C337.59,1002.703,339.006,1004.954,340.423,1007.205C340.369,1015.043,339.55,1004.657,340.423,1007.205z"/>
		</g>
	</g>
</g>
</svg>
