<!DOCTYPE svg PUBLIC "-//W3C//DTD SVG 20010904//EN" "http://www.w3.org/TR/2001/REC-SVG-20010904/DTD/svg10.dtd">
<svg version="1.0" xmlns="http://www.w3.org/2000/svg" width="1280px" height="380px" viewBox="0 0 12000 3560" preserveAspectRatio="xMidYMid meet">
<g id="layer101" fill="#ffffff" stroke="none">
<path d="M0 1780 l0 -1780 6000 0 6000 0 0 1780 0 1780 -6000 0 -6000 0 0 -1780z"/>
</g>
<g id="layer102" fill="#ffffff" stroke="none">
<path d="M0 1780 l0 -1780 6000 0 6000 0 0 1780 0 1780 -6000 0 -6000 0 0 -1780z m9120 886 c0 -74 3 -141 6 -150 5 -13 22 -16 78 -16 39 0 81 3 93 6 16 5 46 48 105 150 l82 144 99 0 99 0 -18 -27 c-10 -16 -46 -74 -81 -130 -34 -56 -69 -113 -78 -126 -17 -27 -14 -31 39 -57 46 -23 94 -73 101 -106 3 -16 10 -37 16 -46 12 -23 12 -75 -1 -83 -5 -3 -10 -18 -10 -32 0 -51 -45 -109 -107 -139 -55 -27 -65 -28 -222 -30 -164 -3 -211 5 -211 33 0 8 -10 25 -22 38 -13 12 -32 35 -43 49 -11 15 -25 32 -31 39 -5 6 -13 20 -17 30 -3 9 -13 17 -22 17 -8 0 -15 8 -15 18 0 10 -4 22 -9 28 -5 5 -12 125 -16 267 l-8 257 97 0 96 0 0 -134z m1176 8 l0 -121 76 -134 c42 -74 108 -190 147 -257 39 -68 71 -128 71 -133 0 -14 -176 -11 -187 4 -6 6 -45 80 -88 162 -97 187 -119 220 -132 203 -9 -12 -39 -66 -131 -238 -22 -41 -48 -90 -58 -107 l-19 -33 -98 0 c-54 0 -96 3 -94 8 2 4 71 124 153 267 l148 260 -3 112 c-1 62 0 117 4 123 4 7 44 10 108 8 l102 -3 1 -121z m-1276 -575 c0 -11 -4 -17 -10 -14 -5 3 -10 13 -10 21 0 8 5 14 10 14 6 0 10 -9 10 -21z m819 -581 c-1 -79 -4 -192 -8 -253 l-6 -110 -30 45 c-16 25 -42 57 -57 72 -16 14 -28 31 -28 38 0 7 -15 26 -34 44 -53 49 -65 83 -69 195 -2 55 -2 103 1 106 3 3 56 5 119 5 l113 0 -1 -142z m779 -307 c1 -319 -1 -448 -9 -457 -9 -11 -9 -17 0 -28 9 -10 8 -16 -4 -26 -12 -10 -42 -11 -122 -6 -58 4 -110 9 -115 12 -4 3 -8 144 -8 315 0 245 -3 309 -13 309 -7 0 -46 -39 -86 -87 -41 -49 -100 -117 -132 -153 -31 -36 -73 -83 -93 -105 l-35 -40 -26 28 c-14 15 -33 43 -41 62 l-14 35 107 133 c104 129 233 283 335 400 l50 58 101 -3 102 -3 3 -444z m-848 -21 c0 -5 -6 -10 -14 -10 -8 0 -18 5 -21 10 -3 6 3 10 14 10 12 0 21 -4 21 -10z m210 -240 c0 -5 -4 -10 -10 -10 -5 0 -10 5 -10 10 0 6 5 10 10 10 6 0 10 -4 10 -10z"/>
<path d="M9133 2389 c-17 -17 -18 -235 -1 -245 16 -10 216 -5 260 7 47 12 70 53 70 119 0 98 -38 122 -202 128 -85 3 -118 1 -127 -9z"/>
</g>
<g id="layer103" fill="#ffffff" stroke="none">
<path d="M0 1780 l0 -1780 6000 0 6000 0 0 1780 0 1780 -6000 0 -6000 0 0 -1780z m2130 1353 c69 -46 188 -165 234 -235 19 -29 50 -82 68 -118 20 -40 39 -64 48 -63 8 1 47 13 87 27 39 14 99 28 132 32 34 4 64 11 67 15 7 12 141 12 148 0 5 -7 92 -21 153 -25 11 0 19 -4 17 -8 -4 -6 13 -101 23 -128 8 -21 9 -211 2 -216 -4 -2 -10 -24 -13 -48 -4 -24 -18 -79 -31 -122 -14 -44 -25 -84 -25 -91 0 -6 33 -27 73 -47 135 -67 290 -205 355 -315 l25 -43 -19 -36 c-25 -47 -125 -156 -182 -200 -59 -44 -93 -50 -108 -17 -11 22 -8 28 35 67 81 74 149 158 149 183 0 42 -109 156 -218 228 -66 45 -85 46 -104 8 -8 -15 -39 -53 -67 -82 -29 -30 -52 -58 -50 -63 1 -4 -12 2 -28 15 -30 23 -37 57 -12 51 7 -1 10 1 7 6 -3 5 6 24 20 43 47 63 95 158 92 181 -2 18 -15 25 -73 40 -95 25 -207 38 -222 26 -7 -5 -14 -5 -18 2 -3 5 -24 10 -46 10 -21 0 -39 5 -39 10 0 6 -9 10 -21 10 -12 0 -19 5 -16 13 2 6 -6 24 -18 39 -19 22 -24 44 -30 133 -4 58 -17 143 -28 188 -21 80 -23 82 -54 85 -19 2 -33 -1 -33 -7 0 -6 -6 -11 -14 -11 -17 0 -78 -31 -88 -45 -10 -13 -55 13 -61 36 -4 13 7 26 39 46 58 37 57 57 -10 151 -54 76 -185 202 -210 202 -7 0 -31 -13 -53 -29 l-39 -28 -22 33 -22 34 26 0 c21 0 24 3 15 14 -9 10 0 21 41 50 29 20 55 36 58 36 3 0 30 -16 60 -37z m5493 -333 c73 0 161 -22 197 -48 55 -41 70 -78 70 -174 0 -59 -5 -99 -15 -117 -36 -70 -142 -118 -238 -107 -29 3 -65 6 -81 6 -28 0 -76 41 -76 66 0 7 -8 15 -17 18 -30 12 1 21 79 24 51 2 87 10 118 25 l45 22 1 57 c0 46 -4 62 -20 77 -34 30 -105 41 -266 41 l-151 0 -29 30 c-41 42 -39 60 8 61 20 1 45 1 55 0 9 -1 17 3 17 8 0 7 33 11 89 11 50 0 92 4 96 10 4 6 15 6 31 0 14 -6 53 -10 87 -10z m882 -333 l0 -327 143 0 142 0 0 -60 0 -60 -387 2 -388 3 0 55 0 55 142 3 141 3 -5 38 c-3 23 -1 41 6 45 14 9 15 83 1 91 -11 7 -14 467 -3 479 4 4 52 5 107 4 l101 -3 0 -328z m615 202 c0 -72 5 -139 10 -150 9 -16 22 -19 78 -19 37 0 77 3 89 6 16 5 46 48 105 150 l82 144 99 0 99 0 -18 -27 c-10 -16 -46 -74 -81 -130 -34 -56 -69 -113 -78 -126 -17 -27 -14 -31 39 -57 46 -23 94 -73 101 -106 3 -16 10 -37 16 -46 12 -23 12 -75 -1 -83 -5 -3 -10 -18 -10 -32 0 -50 -45 -109 -107 -140 l-58 -28 -277 -3 -278 -4 0 391 0 391 95 0 95 0 0 -131z m1176 5 l0 -121 76 -134 c42 -74 108 -190 147 -257 39 -68 71 -128 71 -133 0 -14 -176 -11 -187 4 -6 6 -45 80 -88 162 -97 187 -119 220 -132 203 -9 -12 -39 -66 -131 -238 -22 -41 -48 -90 -58 -107 l-19 -33 -98 0 c-54 0 -96 3 -94 8 2 4 71 124 153 267 l148 260 -3 112 c-1 62 0 117 4 123 4 7 44 10 108 8 l102 -3 1 -121z m-2496 -545 c0 -8 5 -7 15 1 9 7 17 11 19 9 6 -5 10 -48 8 -78 -2 -24 -2 -24 -17 -5 -13 16 -14 16 -9 2 12 -36 -32 -18 -69 27 -25 30 -33 45 -23 45 8 0 18 -5 21 -10 4 -6 12 -4 21 5 18 18 34 20 34 4z m1445 -469 c3 -5 30 -10 59 -10 28 0 57 -5 64 -12 16 -16 15 -113 -1 -126 -8 -7 -110 -12 -286 -14 l-273 -3 -24 -29 c-19 -21 -24 -35 -19 -56 4 -16 1 -37 -6 -49 -10 -15 -10 -25 -1 -43 6 -13 11 -32 9 -43 -2 -20 3 -20 241 -16 182 2 246 0 257 -9 10 -9 15 -32 15 -76 l0 -64 -134 0 c-84 0 -137 -4 -141 -11 -5 -7 -46 -8 -125 -3 l-119 7 -7 -27 c-5 -21 -1 -141 7 -193 2 -12 13 -17 30 -15 3 1 4 -11 2 -26 -3 -24 -2 -25 7 -7 11 19 18 20 293 15 l282 -5 3 -63 c3 -53 0 -63 -15 -68 -10 -3 -28 -10 -40 -16 -12 -6 -41 -8 -65 -5 -24 4 -125 7 -226 9 -181 2 -182 2 -206 28 -14 14 -28 37 -31 53 -4 15 -13 27 -21 27 -8 0 -14 7 -14 15 0 8 -9 20 -20 27 -11 7 -20 18 -20 24 0 5 -13 20 -30 32 -16 13 -30 29 -30 36 0 7 -6 19 -14 26 -8 6 -12 19 -9 28 3 12 2 13 -4 4 -7 -9 -15 -7 -33 10 -14 13 -28 24 -32 24 -5 1 -11 2 -15 3 -5 1 -1 6 7 12 11 8 12 12 3 16 -7 2 -13 13 -13 23 0 10 -5 20 -11 22 -6 2 -12 77 -16 201 -7 224 1 259 64 298 59 37 101 42 363 49 140 3 263 7 272 8 9 1 20 -2 23 -8z m595 -320 c0 -265 2 -320 14 -320 14 0 44 33 306 345 83 99 174 206 202 238 l50 58 101 -3 102 -3 3 -444 c1 -319 -1 -448 -9 -457 -9 -11 -9 -17 0 -28 23 -28 -12 -37 -130 -34 l-114 3 -3 318 c-2 248 -5 317 -15 317 -7 0 -42 -35 -77 -77 -60 -72 -97 -116 -205 -243 -22 -25 -71 -84 -110 -130 -38 -47 -94 -110 -124 -142 l-54 -58 -77 0 c-46 0 -81 5 -88 12 -9 9 -12 132 -12 490 l0 478 120 0 120 0 0 -320z"/>
<path d="M9131 2382 c-12 -22 -15 -199 -5 -226 5 -13 25 -16 118 -15 171 0 218 28 218 126 0 101 -36 125 -204 131 -109 4 -117 3 -127 -16z"/>
</g>
<g id="layer104" fill="#ffffff" stroke="none">
<path d="M0 1780 l0 -1780 6000 0 6000 0 0 1780 0 1780 -6000 0 -6000 0 0 -1780z m2130 1353 c69 -46 188 -165 234 -235 19 -29 50 -82 68 -118 20 -40 39 -64 48 -63 8 1 47 13 87 27 39 14 99 28 132 32 34 4 64 11 67 15 7 12 141 12 148 0 5 -7 92 -21 153 -25 11 0 19 -4 17 -8 -4 -6 13 -101 23 -128 8 -21 9 -211 2 -216 -4 -2 -10 -24 -13 -48 -4 -24 -18 -79 -31 -122 -14 -44 -25 -84 -25 -91 0 -6 33 -27 73 -47 135 -67 290 -205 355 -315 l25 -43 -19 -36 c-25 -47 -125 -156 -182 -200 -59 -44 -93 -50 -108 -17 -11 22 -8 28 35 67 81 74 149 158 149 183 0 42 -109 156 -218 228 -66 45 -85 46 -104 8 -8 -15 -39 -53 -67 -82 -29 -30 -52 -58 -50 -63 1 -4 -12 2 -28 15 -30 23 -37 57 -12 51 7 -1 10 1 7 6 -3 5 6 24 20 43 47 63 95 158 92 181 -2 18 -15 25 -73 40 -95 25 -207 38 -222 26 -7 -5 -14 -5 -18 2 -3 5 -24 10 -46 10 -21 0 -39 5 -39 10 0 6 -9 10 -21 10 -12 0 -19 5 -16 13 2 6 -6 24 -18 39 -19 22 -24 44 -30 133 -4 58 -17 143 -28 188 -21 80 -23 82 -54 85 -19 2 -33 -1 -33 -7 0 -6 -6 -11 -14 -11 -17 0 -78 -31 -88 -45 -10 -13 -55 13 -61 36 -4 13 7 26 39 46 58 37 57 57 -10 151 -54 76 -185 202 -210 202 -7 0 -31 -13 -53 -29 l-39 -28 -22 33 -22 34 26 0 c21 0 24 3 15 14 -9 10 0 21 41 50 29 20 55 36 58 36 3 0 30 -16 60 -37z m5493 -333 c73 0 161 -22 197 -48 55 -41 70 -78 70 -174 0 -59 -5 -99 -15 -117 -36 -70 -142 -118 -238 -107 -29 3 -65 6 -81 6 -28 0 -76 41 -76 66 0 7 -8 15 -17 18 -30 12 1 21 79 24 51 2 87 10 118 25 l45 22 1 57 c0 46 -4 62 -20 77 -34 30 -105 41 -266 41 l-151 0 -29 30 c-41 42 -39 60 8 61 20 1 45 1 55 0 9 -1 17 3 17 8 0 7 33 11 89 11 50 0 92 4 96 10 4 6 15 6 31 0 14 -6 53 -10 87 -10z m885 -325 l-3 -335 143 0 142 0 0 -60 0 -60 -387 2 -388 3 0 55 0 55 142 3 141 3 -5 38 c-3 23 -1 41 6 45 14 9 15 83 1 91 -6 4 -10 98 -10 251 l0 244 110 0 111 0 -3 -335z m622 186 c0 -83 3 -152 8 -154 4 -2 46 0 94 6 101 11 90 1 194 190 l59 107 101 0 102 0 -47 -77 c-25 -43 -70 -114 -99 -158 -45 -70 -50 -81 -35 -90 84 -52 110 -74 127 -110 11 -22 23 -48 28 -57 11 -23 10 -94 -1 -116 -4 -9 -18 -38 -30 -65 -22 -51 -59 -80 -126 -99 -22 -6 -43 -14 -47 -17 -4 -3 -124 -5 -267 -3 l-261 3 0 394 0 395 100 0 100 0 0 -149z m1169 21 l-2 -128 40 -70 c22 -38 60 -103 83 -144 24 -41 68 -120 100 -175 31 -55 62 -110 69 -122 l12 -23 -98 0 -98 0 -19 33 c-10 17 -51 96 -91 174 -40 78 -80 152 -88 163 l-15 22 -14 -25 c-7 -14 -34 -63 -59 -108 -25 -46 -66 -122 -91 -169 l-45 -85 -102 -3 c-55 -1 -101 0 -101 4 0 3 22 43 48 88 27 44 63 106 79 136 17 30 64 111 104 180 l72 125 -2 128 -3 127 112 0 111 0 -2 -128z m-2499 -553 c0 -8 5 -7 15 1 9 7 17 11 19 9 6 -5 10 -48 8 -78 -2 -24 -2 -24 -17 -5 -13 16 -14 16 -9 2 12 -36 -32 -18 -69 27 -25 30 -33 45 -23 45 8 0 18 -5 21 -10 4 -6 12 -4 21 5 18 18 34 20 34 4z m1445 -469 c3 -5 30 -10 59 -10 68 0 78 -12 74 -87 l-3 -58 -283 -5 -284 -5 -24 -29 c-19 -21 -24 -35 -19 -56 4 -16 1 -37 -6 -49 -10 -15 -10 -25 -1 -43 6 -13 11 -32 9 -43 -2 -20 3 -20 241 -16 182 2 246 0 257 -9 10 -9 15 -32 15 -76 l0 -64 -134 0 c-84 0 -137 -4 -141 -11 -5 -7 -46 -8 -125 -3 l-119 7 -7 -27 c-5 -21 -1 -141 7 -193 2 -12 13 -17 30 -15 3 1 4 -11 2 -26 -3 -24 -2 -25 7 -7 11 19 18 20 293 15 l282 -5 3 -63 c3 -53 0 -63 -15 -68 -10 -3 -28 -10 -40 -16 -12 -6 -41 -8 -65 -5 -24 4 -125 7 -226 9 -181 2 -182 2 -206 28 -14 14 -28 37 -31 53 -4 15 -13 27 -21 27 -8 0 -14 7 -14 15 0 8 -9 20 -20 27 -11 7 -20 18 -20 24 0 5 -13 20 -30 32 -16 13 -30 29 -30 36 0 7 -6 19 -14 26 -8 6 -12 19 -9 28 3 12 2 13 -4 4 -7 -9 -15 -7 -33 10 -14 13 -28 24 -32 24 -5 1 -11 2 -15 3 -5 1 -1 6 7 12 11 8 12 12 3 16 -7 2 -13 13 -13 23 0 10 -5 20 -11 22 -6 2 -12 77 -16 201 -7 224 1 259 64 298 59 37 101 42 363 49 140 3 263 7 272 8 9 1 20 -2 23 -8z m595 -320 c0 -271 2 -320 14 -320 8 0 68 64 134 143 65 78 140 166 166 196 25 30 46 60 46 67 0 6 10 18 23 27 27 17 137 150 137 164 0 5 8 18 19 27 15 14 36 16 127 14 l109 -3 0 -480 0 -480 -127 -3 -128 -3 0 321 c0 176 -3 320 -7 320 -11 0 -83 -78 -173 -185 -196 -233 -299 -354 -349 -407 l-54 -58 -77 0 c-50 0 -81 4 -88 13 -6 8 -11 181 -12 482 -2 259 -2 473 -1 478 0 4 55 7 121 7 l120 0 0 -320z"/>
<path d="M2695 2675 c-73 -13 -105 -23 -105 -34 0 -30 23 -138 31 -148 6 -7 8 -26 4 -45 -12 -53 -9 -140 6 -148 14 -9 72 -7 132 5 22 4 42 3 50 -3 17 -15 148 -35 158 -25 20 20 41 180 37 275 -5 110 -16 132 -60 126 -16 -3 -31 -1 -34 4 -7 12 -137 8 -219 -7z"/>
<path d="M9243 2383 l-113 -4 0 -119 0 -120 108 0 c175 0 214 20 217 113 2 72 -10 103 -50 121 -18 9 -37 15 -42 14 -4 -1 -59 -4 -120 -5z"/>
</g>
<g id="layer105" fill="#ffffff" stroke="none">
<path d="M0 1780 l0 -1780 6000 0 6000 0 0 1780 0 1780 -6000 0 -6000 0 0 -1780z m2123 1360 c26 -16 49 -30 51 -30 5 0 156 -152 156 -157 0 -2 12 -20 27 -40 15 -20 46 -72 68 -117 23 -45 45 -80 50 -79 11 2 122 41 145 50 8 3 19 5 24 4 5 -1 16 1 25 5 33 14 79 18 176 18 110 -1 153 -5 173 -17 6 -5 16 -6 21 -2 5 3 13 0 16 -6 4 -5 13 -8 21 -5 8 3 11 0 8 -8 -3 -8 0 -17 5 -21 6 -3 9 -11 6 -16 -4 -5 -3 -14 1 -21 11 -18 14 -52 14 -178 0 -133 -2 -160 -14 -178 -4 -7 -5 -16 -2 -19 3 -3 2 -11 -3 -17 -10 -14 -55 -156 -50 -160 2 -2 40 -22 84 -44 44 -22 107 -63 140 -91 33 -28 68 -54 78 -57 9 -4 17 -12 17 -19 0 -7 16 -27 35 -44 19 -17 35 -32 35 -35 0 -2 16 -27 35 -56 l35 -51 -35 -55 c-19 -30 -35 -58 -35 -63 0 -5 -16 -18 -35 -30 -20 -11 -38 -27 -41 -35 -3 -8 -23 -26 -45 -41 -22 -14 -38 -29 -35 -34 3 -4 0 -8 -7 -9 -7 -1 -25 -4 -42 -6 -24 -4 -32 -1 -41 19 -11 22 -8 28 35 67 72 66 147 160 149 186 0 12 -8 28 -19 35 -10 6 -19 16 -19 22 0 14 -92 105 -107 105 -8 0 -16 6 -19 14 -7 18 -109 86 -128 86 -8 0 -17 -8 -20 -18 -3 -10 -34 -47 -68 -82 -34 -36 -60 -69 -59 -74 1 -4 -12 2 -28 15 -30 23 -37 57 -12 51 7 -1 10 1 7 6 -3 5 8 27 24 49 35 47 90 156 90 177 0 20 -98 50 -200 61 -30 4 -61 8 -69 11 -7 2 -19 0 -26 -6 -9 -8 -15 -8 -20 0 -3 5 -24 10 -46 10 -21 0 -39 5 -39 10 0 6 -9 10 -21 10 -12 0 -19 5 -16 13 2 6 -6 24 -18 39 -19 22 -24 44 -30 131 -4 58 -17 143 -29 189 -21 82 -22 83 -54 84 -18 1 -32 -3 -32 -7 0 -5 -6 -9 -14 -9 -17 0 -78 -31 -88 -45 -10 -13 -55 13 -61 36 -4 13 7 26 39 46 50 32 58 64 24 101 -11 12 -20 24 -20 27 0 15 -76 108 -116 141 -26 20 -57 48 -70 61 -30 30 -43 29 -91 -6 l-39 -28 -22 33 -22 34 26 0 c21 0 24 3 15 14 -9 10 0 21 41 50 29 20 55 36 58 36 3 0 27 -13 53 -30z m5562 -335 c17 -3 43 -7 58 -9 15 -2 43 -16 62 -30 18 -14 37 -26 42 -26 4 0 21 -27 36 -60 37 -81 36 -139 -3 -216 -25 -52 -36 -62 -82 -83 -51 -24 -98 -28 -242 -23 -28 2 -76 44 -76 68 0 7 -7 15 -16 18 -30 11 -6 19 69 23 123 7 171 37 172 107 1 84 -26 99 -172 97 -61 -1 -104 2 -108 9 -3 5 -40 10 -81 10 -70 0 -77 2 -104 30 -41 42 -39 60 5 60 19 0 35 5 35 10 0 6 5 10 11 10 5 0 7 -4 4 -10 -3 -5 1 -10 9 -10 9 0 16 4 16 9 0 25 250 36 365 16z m825 -327 l-1 -333 148 -5 148 -5 0 -55 0 -55 -397 -3 -398 -2 0 60 0 59 141 3 140 3 -1 333 -1 332 111 0 111 0 -1 -332z m622 185 l3 -148 84 2 c104 2 110 7 191 168 11 22 29 54 40 70 11 17 23 36 26 43 4 8 37 12 110 12 l104 0 -23 -41 c-33 -61 -40 -72 -64 -106 -13 -17 -23 -36 -23 -41 0 -6 -10 -23 -23 -39 -23 -28 -47 -76 -47 -93 0 -5 14 -16 30 -24 17 -9 44 -23 60 -32 17 -8 30 -20 30 -25 0 -6 9 -29 20 -51 22 -45 28 -152 10 -163 -6 -4 -9 -12 -8 -18 5 -21 -53 -108 -78 -118 -13 -5 -36 -14 -51 -21 -16 -6 -32 -10 -37 -9 -4 1 -13 -2 -20 -7 -6 -6 -126 -9 -271 -8 l-260 1 -3 398 -2 397 100 0 99 0 3 -147z m1167 22 c-1 -79 2 -129 9 -137 6 -8 16 -25 22 -38 6 -14 21 -43 35 -65 13 -22 34 -58 45 -80 23 -44 41 -74 70 -120 11 -16 28 -48 39 -70 10 -22 26 -46 35 -54 9 -7 16 -21 16 -31 0 -10 7 -23 15 -30 8 -7 15 -21 15 -31 0 -17 -9 -19 -100 -19 l-101 0 -45 93 c-118 241 -174 332 -174 284 0 -7 -16 -37 -35 -67 -19 -30 -35 -60 -35 -66 0 -7 -16 -38 -35 -70 -19 -33 -43 -77 -54 -99 -38 -76 -37 -75 -156 -75 -102 0 -107 1 -93 18 8 9 20 28 26 42 7 14 21 39 32 55 11 17 29 48 41 70 11 22 29 54 39 70 11 17 26 44 34 61 8 17 19 35 25 38 6 4 11 15 11 25 0 10 9 26 20 36 11 10 22 27 26 39 4 11 18 41 32 65 24 41 25 51 23 162 l-2 119 111 0 111 0 -2 -125z m-2499 -556 c0 -8 5 -7 15 1 9 7 17 11 19 9 6 -5 10 -48 8 -78 -2 -24 -2 -24 -17 -5 -13 16 -14 16 -9 2 12 -36 -32 -18 -69 27 -25 30 -33 45 -23 45 8 0 18 -5 21 -10 4 -6 12 -4 21 5 18 18 34 20 34 4z m1390 -463 c58 -3 124 -7 148 -11 l43 -7 -3 -72 -3 -71 -260 -3 c-153 -1 -263 -6 -269 -12 -6 -6 -20 -10 -32 -10 -38 0 -47 -24 -48 -124 l-1 -94 31 5 c18 3 34 0 38 -6 5 -8 72 -9 232 -4 l224 6 0 -76 c0 -75 -1 -77 -27 -84 -16 -5 -135 -7 -265 -7 l-237 1 6 -28 c3 -17 0 -35 -7 -44 -11 -14 -11 -41 2 -142 1 -12 12 -17 29 -15 3 1 4 -11 2 -26 -3 -24 -2 -25 7 -7 11 19 18 20 293 15 l282 -5 3 -59 c5 -93 -2 -96 -165 -90 -95 3 -140 1 -150 -7 -10 -9 -19 -9 -36 -1 -12 7 -57 13 -99 15 -87 4 -121 24 -133 78 -4 16 -13 29 -21 29 -8 0 -14 7 -14 15 0 8 -9 20 -20 27 -11 7 -20 18 -20 24 0 5 -13 20 -30 32 -16 13 -30 29 -30 36 0 7 -6 19 -14 26 -8 6 -12 19 -9 28 3 12 2 13 -4 4 -7 -9 -15 -7 -33 10 -14 13 -28 24 -32 24 -5 1 -11 2 -15 3 -5 1 -1 6 7 12 11 8 12 12 3 16 -7 2 -13 13 -13 23 0 10 -5 20 -11 22 -6 2 -12 77 -16 208 -5 178 -4 210 10 237 22 41 60 70 111 85 22 6 45 15 50 19 5 4 21 5 36 2 16 -3 31 0 35 7 5 8 49 10 164 5 86 -3 203 -7 261 -9z m652 -323 c2 -242 6 -317 16 -321 6 -2 12 3 12 11 0 8 11 22 25 31 14 9 25 23 25 31 0 8 14 24 30 37 17 12 30 27 30 34 0 6 11 19 25 28 14 9 25 23 25 31 0 7 14 23 30 35 17 12 30 28 30 35 0 8 11 22 25 31 14 9 25 22 25 28 0 6 12 23 28 38 15 15 38 41 52 58 14 18 40 46 58 64 17 18 32 36 32 41 0 4 10 18 23 30 12 13 30 35 40 49 18 26 19 27 130 24 l112 -3 0 -480 0 -480 -127 -3 -128 -3 0 314 c0 173 -3 316 -6 320 -8 8 -54 -34 -54 -50 0 -7 -11 -20 -25 -29 -14 -9 -25 -22 -25 -30 0 -7 -11 -21 -25 -30 -14 -9 -25 -22 -25 -30 0 -7 -16 -25 -35 -40 -19 -14 -35 -32 -35 -39 0 -7 -11 -20 -25 -29 -14 -9 -25 -23 -25 -31 0 -7 -13 -23 -30 -35 -16 -12 -30 -27 -30 -35 0 -8 -13 -23 -30 -35 -16 -12 -30 -27 -30 -35 0 -7 -11 -20 -25 -29 -14 -9 -25 -23 -25 -31 0 -7 -13 -23 -30 -35 -16 -12 -30 -27 -30 -34 0 -8 -15 -25 -34 -40 -32 -24 -43 -26 -130 -26 l-96 0 0 493 0 492 125 -3 125 -3 2 -316z"/>
<path d="M2714 2669 c-3 -6 -14 -7 -25 -4 -10 4 -24 3 -31 -1 -7 -4 -23 -9 -36 -10 -13 -2 -26 -5 -29 -7 -6 -7 16 -128 28 -150 6 -10 7 -33 3 -50 -11 -52 -7 -139 7 -147 13 -9 67 -7 136 5 29 5 48 4 57 -4 8 -7 23 -11 33 -9 10 1 23 0 28 -4 6 -3 27 -9 47 -13 36 -7 37 -7 48 34 6 23 8 46 5 52 -4 5 -2 15 3 22 5 7 10 70 10 140 0 120 -2 129 -22 142 -25 16 -252 19 -262 4z"/>
<path d="M2573 2293 c4 -3 10 -3 14 0 3 4 0 7 -7 7 -7 0 -10 -3 -7 -7z"/>
<path d="M7271 2733 c-1 -17 16 -25 25 -12 4 7 3 9 -4 5 -5 -3 -13 0 -15 6 -4 9 -6 10 -6 1z"/>
<path d="M9243 2383 l-113 -4 0 -109 c0 -133 1 -134 120 -124 124 10 134 11 158 19 44 15 58 105 27 178 -6 14 -74 53 -79 45 0 -1 -52 -4 -113 -5z"/>
<path d="M8730 914 c0 -8 5 -12 10 -9 6 4 8 11 5 16 -9 14 -15 11 -15 -7z"/>
<path d="M8830 760 c0 -5 5 -10 10 -10 6 0 10 5 10 10 0 6 -4 10 -10 10 -5 0 -10 -4 -10 -10z"/>
</g>
<g id="layer106" fill="#ffffff" stroke="none">
<path d="M0 1780 l0 -1780 6000 0 6000 0 0 1780 0 1780 -6000 0 -6000 0 0 -1780z m2128 1373 c122 -81 260 -241 319 -369 16 -35 30 -53 38 -50 166 63 388 82 552 46 51 -11 51 -12 65 -63 8 -33 13 -108 13 -202 -1 -150 -11 -217 -50 -318 -8 -20 -15 -39 -15 -41 0 -3 24 -16 54 -29 72 -33 159 -93 231 -159 60 -54 175 -200 175 -221 0 -20 -127 -183 -178 -227 -63 -57 -143 -110 -222 -150 -80 -40 -77 -36 -57 -58 47 -52 82 -338 58 -474 -12 -68 -33 -122 -44 -111 -4 3 -13 0 -21 -6 -8 -7 -20 -10 -26 -6 -6 4 -17 2 -25 -5 -9 -7 -30 -9 -59 -5 -30 5 -51 3 -60 -4 -11 -9 -16 -9 -21 -1 -5 7 -31 11 -69 9 -33 -1 -69 1 -78 6 -10 4 -25 5 -33 2 -8 -4 -17 -2 -20 3 -3 4 -24 11 -48 15 -23 4 -60 16 -81 27 -31 16 -44 18 -58 9 -14 -9 -18 -8 -18 5 0 9 -5 12 -12 8 -7 -4 -8 -3 -4 4 4 7 14 12 21 12 16 0 50 103 41 119 -4 5 -1 13 5 16 6 4 8 18 5 30 -3 13 -2 26 3 29 10 6 9 206 -2 223 -4 6 -4 18 -1 27 4 12 0 16 -15 16 -12 0 -24 -7 -27 -15 -4 -8 -12 -15 -20 -15 -7 0 -17 -6 -21 -13 -15 -25 -235 -103 -255 -91 -17 11 -7 24 20 24 15 0 32 4 37 8 6 5 42 20 80 35 39 15 85 40 102 56 17 15 38 31 47 34 9 4 16 11 16 16 0 9 -26 24 -45 26 -5 1 -25 9 -44 19 -33 18 -34 17 -95 -12 -33 -17 -78 -34 -99 -37 -31 -6 -42 -14 -55 -41 -8 -19 -20 -34 -26 -34 -6 1 -27 21 -46 45 -22 29 -40 43 -50 40 -8 -4 -11 -3 -7 1 4 4 2 13 -3 19 -8 10 10 14 77 17 70 3 101 10 148 32 66 31 129 75 121 83 -3 3 8 22 26 41 32 37 78 126 78 152 0 9 4 20 9 25 4 6 4 48 -1 95 -5 47 -9 92 -10 100 0 8 -7 22 -14 30 -7 9 -21 34 -32 58 -26 58 -162 162 -221 168 -13 2 -31 6 -40 10 -21 8 -131 8 -152 0 -9 -4 -27 -8 -40 -9 -13 -1 -51 -20 -83 -42 -33 -22 -69 -46 -81 -52 -51 -29 -110 -137 -122 -222 -4 -25 -9 -39 -11 -31 -3 8 -13 21 -24 28 -24 18 -23 34 11 133 16 46 27 95 26 110 -5 38 -32 99 -44 99 -16 0 -69 -76 -99 -139 -19 -41 -27 -50 -33 -38 -11 19 13 78 57 138 36 49 45 85 19 76 -8 -4 -17 -2 -19 2 -3 5 -52 8 -108 8 -123 0 -144 5 -164 44 -17 34 -12 49 20 49 12 0 27 5 33 11 7 7 42 10 95 8 l83 -4 -4 88 c-2 55 1 93 8 101 6 7 9 21 5 30 -3 9 -3 24 2 34 4 9 8 26 9 37 1 11 6 29 10 39 6 15 5 18 -6 14 -8 -3 -25 -1 -39 5 -38 15 -84 20 -205 20 -116 1 -158 -10 -154 -41 1 -9 -1 -25 -5 -34 -4 -9 -6 -50 -4 -91 2 -42 0 -73 -5 -70 -4 2 -7 8 -7 13 0 5 -10 20 -22 33 -59 63 -60 66 -53 152 4 44 9 91 10 105 1 16 7 24 17 22 9 -1 29 3 44 9 43 18 78 22 189 22 122 1 198 -9 242 -30 19 -9 45 -17 58 -18 12 -2 32 -6 44 -10 17 -5 25 3 52 57 48 96 99 166 180 246 62 61 179 152 196 152 3 0 30 -17 61 -37z m4652 -347 c59 -8 136 -34 150 -52 7 -7 18 -14 25 -14 20 0 63 -56 75 -98 6 -21 10 -160 10 -332 l0 -295 -107 0 -108 0 -5 304 -5 304 -25 19 c-29 21 -78 30 -170 30 -78 0 -133 -7 -158 -21 -42 -23 -45 -34 -43 -215 2 -123 -1 -176 -10 -181 -6 -4 -14 -4 -18 1 -3 5 -15 14 -26 20 -11 6 -22 20 -23 30 -2 10 -14 30 -25 43 -16 17 -18 25 -9 28 16 6 15 20 -2 26 -10 4 -13 1 -9 -9 11 -29 -13 -12 -41 29 -17 23 -36 46 -43 50 -16 10 -18 123 -3 132 6 4 9 12 8 18 -7 38 67 118 143 155 77 37 250 49 419 28z m967 -9 c61 -16 117 -56 139 -99 21 -41 30 -165 14 -212 -16 -48 -54 -92 -100 -116 -42 -21 -148 -41 -177 -34 -11 3 -59 1 -108 -4 -73 -8 -93 -14 -107 -32 -26 -32 -23 -83 6 -117 l24 -28 209 -2 208 -1 0 -64 0 -63 -110 -13 c-153 -18 -344 -11 -412 16 -66 25 -129 89 -144 145 -13 47 -6 155 12 189 23 46 74 89 124 104 29 9 109 19 192 23 166 7 183 15 183 87 0 50 -25 80 -75 90 -17 3 -120 4 -228 2 l-197 -3 0 63 c0 41 4 64 13 67 66 25 444 27 534 2z m765 -314 l3 -328 140 -3 c96 -2 142 -6 147 -15 9 -14 11 -89 2 -111 -5 -14 -51 -16 -405 -16 l-399 0 0 70 0 69 143 3 142 3 3 328 2 327 110 0 110 0 2 -327z m620 180 l3 -148 24 -3 c14 -2 53 -1 87 3 l63 6 82 141 c45 77 87 142 94 144 6 3 57 3 112 2 l101 -3 -96 -154 c-88 -141 -95 -155 -78 -165 122 -73 137 -94 144 -201 6 -96 -11 -150 -62 -201 -67 -68 -103 -74 -418 -74 l-268 0 0 400 0 400 105 0 104 0 3 -147z m1168 25 l0 -121 150 -261 c82 -144 152 -269 156 -279 6 -16 -1 -17 -100 -15 l-107 3 -98 183 c-54 101 -102 185 -107 185 -5 1 -54 -82 -109 -185 l-100 -188 -113 0 c-62 0 -111 3 -109 8 48 83 280 487 296 512 18 31 21 50 21 158 l0 122 110 0 110 0 0 -122z m-9003 -495 c-4 -3 -10 -3 -14 0 -3 4 0 7 7 7 7 0 10 -3 7 -7z m849 -174 c7 -6 17 -8 22 -5 5 3 24 -8 42 -24 19 -17 40 -30 47 -30 7 0 13 -7 13 -15 0 -8 6 -15 13 -15 15 0 60 -74 50 -83 -3 -4 -1 -12 5 -20 18 -21 26 -95 13 -111 -6 -7 -9 -20 -5 -29 3 -9 -4 -29 -16 -45 -13 -18 -19 -35 -15 -43 5 -8 4 -10 -3 -5 -7 4 -16 -2 -21 -16 -14 -36 -35 -51 -160 -108 -8 -3 -47 -2 -88 2 -57 6 -84 15 -116 37 -56 38 -95 81 -76 82 9 0 8 3 -4 8 -10 4 -18 11 -17 15 1 5 -2 12 -7 15 -4 3 -15 20 -23 36 -21 42 -10 159 21 217 27 49 58 88 72 88 5 0 29 14 54 30 28 19 52 28 63 25 10 -3 22 -1 25 6 9 13 91 5 111 -12z m7179 -358 l50 -6 3 -82 3 -82 -281 -3 -282 -3 -24 -28 c-21 -25 -24 -38 -24 -106 l0 -78 98 -6 c53 -4 170 -7 260 -7 l162 0 0 -80 c0 -69 -2 -80 -17 -81 -10 -1 -126 -4 -258 -8 l-240 -6 -3 -81 c-3 -75 -1 -85 22 -110 l24 -29 282 -3 281 -3 -3 -82 -3 -82 -125 -8 c-69 -4 -224 -6 -345 -5 -205 3 -223 5 -270 26 -57 26 -90 54 -113 97 -15 26 -17 75 -20 345 -4 341 2 398 44 443 69 75 146 88 469 81 143 -3 283 -9 310 -13z m-2220 -2 c4 -5 1 -18 -7 -27 -8 -9 -30 -43 -48 -74 -39 -65 -54 -69 -88 -20 -12 17 -27 32 -32 32 -6 0 -10 6 -10 14 0 7 -7 19 -15 26 -9 7 -14 19 -11 26 3 8 2 13 -2 13 -16 -3 -23 2 -17 11 8 14 222 13 230 -1z m894 -4 c209 -50 310 -205 311 -476 0 -108 -14 -203 -37 -237 -8 -13 -12 -26 -9 -29 10 -10 -24 -62 -74 -113 -28 -27 -53 -50 -56 -50 -3 0 -17 -9 -31 -19 -13 -11 -30 -18 -38 -15 -7 3 -16 1 -19 -5 -4 -6 -13 -8 -20 -5 -8 3 -17 1 -20 -5 -4 -6 -20 -8 -35 -5 -16 4 -32 1 -35 -5 -5 -7 -55 -11 -144 -11 l-138 0 -32 34 c-18 19 -32 38 -32 42 0 6 -84 109 -100 124 -3 3 -19 23 -35 45 -16 22 -60 77 -97 122 l-68 82 0 270 0 271 323 0 c252 0 336 -4 386 -15z m1851 -300 c0 -188 4 -315 9 -315 5 0 69 71 142 158 74 86 160 189 194 228 33 38 93 109 134 157 l74 88 106 -3 106 -3 0 -490 0 -490 -132 -3 -133 -3 0 316 c0 173 -3 315 -7 315 -5 0 -127 -142 -273 -314 l-265 -315 -107 0 -108 -1 0 495 0 495 130 0 130 0 0 -315z"/>
<path d="M1985 2978 c-61 -56 -165 -188 -165 -210 0 -12 56 -68 67 -68 16 0 93 -64 93 -77 0 -7 5 -13 12 -13 7 0 27 -14 44 -31 l32 -31 59 57 c32 31 86 77 121 102 34 25 62 51 62 59 0 47 -203 274 -245 274 -7 0 -42 -28 -80 -62z"/>
<path d="M1669 2688 c-1 -1 -3 -12 -4 -23 -1 -11 -10 -54 -20 -95 -17 -75 -26 -322 -12 -336 6 -7 132 69 152 91 14 15 87 43 102 38 6 -2 14 0 17 6 4 6 13 8 20 5 8 -3 17 -1 21 5 3 6 19 11 36 11 20 0 29 5 29 17 0 20 -213 233 -233 233 -8 0 -35 12 -61 26 -25 14 -47 24 -47 22z"/>
<path d="M2004 2339 c-3 -6 -18 -9 -32 -6 -14 3 -33 1 -41 -4 -26 -14 -144 -60 -168 -66 -12 -3 -34 -16 -48 -29 -14 -13 -30 -24 -36 -24 -5 0 -9 -8 -9 -18 0 -26 87 -53 137 -42 21 5 43 16 49 24 6 9 18 16 27 16 9 0 28 5 44 12 15 6 32 10 37 9 12 -3 37 20 34 33 -3 17 25 86 35 86 4 0 5 5 2 10 -8 13 -22 13 -31 -1z"/>
<path d="M2107 2344 c-3 -4 2 -23 13 -44 11 -21 16 -40 13 -44 -9 -9 17 -36 35 -36 9 0 36 -9 61 -21 143 -64 125 -60 166 -39 21 11 43 21 49 23 31 11 -104 97 -199 127 -22 7 -45 16 -51 21 -5 4 -20 6 -32 2 -12 -3 -28 0 -35 6 -8 6 -17 8 -20 5z"/>
<path d="M1300 2270 c0 -5 7 -10 16 -10 8 0 12 5 9 10 -3 6 -10 10 -16 10 -5 0 -9 -4 -9 -10z"/>
<path d="M2486 2079 c-20 -57 -20 -52 35 -175 11 -22 19 -51 19 -63 0 -14 5 -21 13 -18 6 2 34 -7 60 -20 54 -27 66 -24 49 10 -6 12 -16 47 -23 77 -18 82 -102 240 -127 240 -4 0 -16 -23 -26 -51z"/>
<path d="M2706 1648 c-3 -34 -15 -80 -26 -103 -11 -23 -20 -49 -20 -58 0 -10 -9 -25 -20 -34 -11 -10 -20 -26 -20 -36 0 -11 -14 -32 -30 -47 -19 -18 -28 -34 -24 -44 10 -25 230 -22 345 5 49 11 89 26 89 32 0 33 -93 162 -180 250 -53 53 -99 97 -102 97 -3 0 -8 -28 -12 -62z"/>
<path d="M2617 1694 c-3 -3 -23 -12 -44 -19 -21 -7 -38 -19 -39 -27 0 -7 -6 -26 -12 -41 -7 -16 -12 -35 -12 -43 0 -19 -19 -57 -34 -66 -15 -10 -16 -50 -2 -68 7 -8 18 -30 26 -47 15 -40 22 -41 38 -5 7 15 26 50 42 77 29 48 62 145 74 213 5 26 2 32 -13 32 -10 0 -20 -3 -24 -6z"/>
<path d="M2060 1300 c0 -5 5 -10 10 -10 6 0 10 5 10 10 0 6 -4 10 -10 10 -5 0 -10 -4 -10 -10z"/>
<path d="M2947 1213 c-4 -3 -19 -8 -34 -9 -16 -2 -50 -8 -78 -13 -27 -5 -84 -10 -126 -10 l-76 -1 -7 -31 c-3 -17 -3 -55 0 -85 5 -37 3 -58 -6 -69 -7 -8 -10 -24 -7 -35 3 -11 1 -23 -5 -26 -5 -3 -8 -15 -5 -25 3 -10 1 -22 -4 -25 -5 -3 -9 -13 -9 -23 0 -14 12 -22 46 -30 25 -6 49 -9 55 -6 5 4 14 3 20 -1 6 -4 65 -7 131 -7 155 0 153 -2 153 141 0 101 -22 262 -35 262 -4 0 -10 -3 -13 -7z"/>
<path d="M2000 1908 c-30 -11 -93 -78 -96 -102 -1 -12 -3 -22 -4 -23 -7 -9 -6 -73 2 -100 11 -37 83 -107 104 -99 7 3 16 2 18 -3 4 -6 81 -8 81 -1 0 1 10 3 22 4 12 1 40 22 61 46 32 36 39 52 41 88 0 24 3 48 6 52 3 5 -2 23 -12 42 -9 18 -19 39 -23 47 -17 39 -144 70 -200 49z"/>
<path d="M7550 1495 c0 0 -1 -144 -3 -320 l-2 -320 171 1 c155 2 176 4 221 25 45 20 52 28 74 83 21 55 24 76 24 206 0 116 -4 154 -18 192 -22 55 -72 103 -124 118 -29 7 -198 15 -343 15z"/>
<path d="M7506 889 c21 -23 21 -23 21 -5 0 8 -9 17 -20 20 -18 4 -18 4 -1 -15z"/>
<path d="M7575 810 c3 -5 8 -10 11 -10 2 0 4 5 4 10 0 6 -5 10 -11 10 -5 0 -7 -4 -4 -10z"/>
</g>
<g id="layer107" fill="#ffffff" stroke="none">
<path d="M0 1780 l0 -1780 6000 0 6000 0 0 1780 0 1780 -6000 0 -6000 0 0 -1780z m2128 1373 c122 -81 260 -241 319 -369 16 -35 30 -53 38 -50 166 63 388 82 552 46 51 -11 51 -12 65 -63 8 -33 13 -108 13 -202 -1 -150 -11 -217 -50 -318 -8 -20 -15 -39 -15 -41 0 -3 24 -16 54 -29 72 -33 159 -93 231 -159 60 -54 175 -200 175 -221 0 -20 -127 -183 -178 -227 -62 -56 -143 -110 -219 -149 l-62 -31 20 -57 c29 -86 49 -214 49 -317 -1 -96 -20 -220 -37 -237 -15 -15 -158 -38 -239 -39 -86 0 -217 22 -298 50 -33 11 -62 20 -66 20 -3 0 -23 -32 -43 -70 -20 -39 -55 -96 -78 -127 -91 -123 -258 -260 -303 -249 -34 9 -144 96 -213 169 -61 66 -159 212 -169 255 -7 27 -16 27 -85 4 -85 -30 -112 -35 -103 -21 4 7 -3 5 -17 -4 -25 -18 -74 -23 -84 -8 -3 5 -1 12 5 16 6 4 8 11 4 16 -3 6 -12 3 -21 -8 -8 -10 -11 -12 -8 -5 4 7 -2 21 -14 31 -12 10 -21 23 -21 30 0 7 -19 11 -49 11 -28 0 -53 5 -57 11 -4 7 22 10 88 8 51 -2 98 0 103 3 6 3 28 9 50 12 68 12 68 12 51 106 -9 45 -16 118 -16 161 l0 79 -74 0 c-40 0 -113 7 -161 15 -48 9 -90 13 -93 11 -13 -14 -32 -131 -32 -203 0 -45 -4 -85 -10 -88 -6 -4 -10 9 -11 32 -2 111 -7 134 -29 153 -13 11 -18 20 -11 20 7 0 10 4 7 9 -9 14 -34 7 -51 -15 -8 -10 -15 -14 -15 -8 0 6 7 17 15 24 16 14 21 55 5 45 -14 -8 -13 -8 15 79 31 94 31 92 1 100 -14 3 -32 14 -42 24 -10 9 -22 17 -28 17 -20 1 -106 57 -117 76 -5 10 -15 19 -22 19 -21 0 -146 132 -139 148 3 10 1 13 -6 9 -12 -8 -52 43 -52 67 0 8 -7 19 -14 23 -12 7 -10 16 15 56 16 26 34 47 39 47 6 0 14 10 19 23 25 62 173 188 299 254 37 19 69 36 70 38 2 2 -8 37 -21 78 -14 42 -31 112 -38 158 -20 138 3 359 40 378 24 13 162 31 240 31 83 0 216 -22 295 -50 33 -11 61 -20 62 -20 2 0 18 28 35 63 48 95 100 165 180 245 62 61 179 152 196 152 3 0 30 -17 61 -37z m4628 -344 c153 -21 249 -79 273 -164 7 -25 11 -151 11 -337 l0 -298 -110 0 -110 0 0 294 0 293 -26 27 c-36 36 -92 49 -193 44 -97 -4 -152 -25 -170 -64 -7 -17 -11 -118 -11 -309 l0 -285 -110 0 -110 0 0 291 c0 328 5 362 59 419 78 81 287 118 497 89z m991 -12 c61 -16 117 -56 139 -99 21 -41 30 -165 14 -212 -16 -48 -54 -92 -100 -116 -42 -21 -148 -41 -177 -34 -11 3 -59 1 -108 -4 -73 -8 -93 -14 -107 -32 -26 -32 -23 -83 6 -117 l24 -28 209 -2 208 -1 0 -64 0 -63 -110 -13 c-157 -18 -344 -11 -417 17 -106 41 -156 126 -145 248 7 72 17 95 60 141 45 46 108 63 274 71 166 7 183 15 183 87 0 50 -25 80 -75 90 -17 3 -120 4 -228 2 l-197 -3 0 63 c0 41 4 64 13 67 66 25 444 27 534 2z m-2699 -59 c-2 -60 -6 -73 -20 -76 -12 -2 -18 3 -18 16 0 10 -3 22 -7 26 -4 4 -8 14 -8 23 0 9 -9 21 -20 27 -11 6 -28 19 -37 30 -11 12 -26 17 -43 14 -14 -3 -25 -1 -25 3 0 5 41 9 90 9 l91 0 -3 -72z m787 51 c95 -29 165 -98 193 -191 29 -92 36 -189 22 -282 -21 -143 -73 -226 -168 -273 -53 -26 -68 -28 -199 -32 l-141 -3 -26 53 c-14 30 -26 50 -26 46 0 -5 -7 -1 -16 8 -10 9 -13 20 -8 25 5 4 65 10 134 12 151 4 181 17 213 86 18 40 22 66 22 167 0 108 -2 125 -25 170 -19 38 -35 55 -70 73 -41 20 -57 22 -170 20 l-125 -3 -3 -225 c-2 -192 -5 -227 -18 -237 -13 -10 -21 -7 -40 12 -13 13 -24 31 -24 40 0 8 -7 15 -15 15 -8 0 -15 6 -15 13 0 8 -9 22 -20 32 -14 13 -17 21 -9 26 16 9 1 32 -17 25 -8 -3 -14 -1 -14 4 0 5 -10 10 -22 12 -23 3 -23 4 -26 203 -1 110 0 205 2 212 4 10 65 13 275 13 244 0 275 -2 336 -21z m2677 -306 l3 -328 140 -3 c96 -2 142 -6 147 -15 9 -14 11 -89 2 -111 -5 -14 -51 -16 -405 -16 l-399 0 0 70 0 69 143 3 142 3 3 328 2 327 110 0 110 0 2 -327z m620 180 l3 -148 24 -3 c14 -2 53 -1 87 3 l63 6 82 141 c45 77 87 142 94 144 6 3 57 3 112 2 l101 -3 -96 -154 c-88 -141 -95 -155 -78 -165 122 -73 137 -94 144 -201 6 -96 -11 -150 -62 -201 -67 -68 -103 -74 -418 -74 l-268 0 0 400 0 400 105 0 104 0 3 -147z m1168 25 l0 -121 150 -261 c82 -144 152 -269 156 -279 6 -16 -1 -17 -100 -15 l-107 3 -98 183 c-54 101 -102 185 -107 185 -5 1 -54 -82 -109 -185 l-100 -188 -113 0 c-62 0 -111 3 -109 8 48 83 280 487 296 512 18 31 21 50 21 158 l0 122 110 0 110 0 0 -122z m-5463 55 c-4 -3 -7 0 -7 7 0 7 3 10 7 7 3 -4 3 -10 0 -14z m590 -570 c-4 -3 -7 0 -7 7 0 7 3 10 7 7 3 -4 3 -10 0 -14z m3898 -512 l50 -6 3 -82 3 -82 -281 -3 -282 -3 -24 -28 c-21 -25 -24 -38 -24 -106 l0 -78 98 -6 c53 -4 170 -7 260 -7 l162 0 0 -80 c0 -69 -2 -80 -17 -81 -10 -1 -126 -4 -258 -8 l-240 -6 -3 -81 c-3 -75 -1 -85 22 -110 l24 -29 282 -3 281 -3 -3 -82 -3 -82 -125 -8 c-69 -4 -224 -6 -345 -5 -205 3 -223 5 -270 26 -57 26 -90 54 -113 97 -15 26 -17 75 -20 345 -4 341 2 398 44 443 69 75 146 88 469 81 143 -3 283 -9 310 -13z m-3560 -1 c-3 -5 -11 -10 -16 -10 -6 0 -7 5 -4 10 3 6 11 10 16 10 6 0 7 -4 4 -10z m255 2 c0 -12 -87 -212 -95 -220 -5 -4 -4 2 0 13 5 11 9 37 8 57 -1 21 3 35 8 32 5 -3 9 0 9 5 0 6 -4 12 -10 12 -20 3 -25 4 -39 13 -11 7 -11 10 0 17 11 6 9 12 -5 28 -10 11 -23 18 -28 14 -12 -6 -29 17 -22 29 7 10 174 11 174 0z m418 -179 l2 -183 100 0 c67 0 103 4 110 13 7 6 56 89 110 182 l98 170 137 3 c75 1 135 -1 133 -6 -1 -5 -54 -90 -115 -189 -62 -99 -113 -186 -113 -192 0 -6 15 -17 33 -25 61 -26 114 -73 138 -123 19 -38 23 -64 23 -133 1 -172 -66 -265 -219 -305 -59 -15 -265 -22 -278 -8 -4 3 -1 13 6 21 7 9 7 13 1 9 -17 -10 -46 27 -38 48 5 13 4 16 -4 11 -8 -4 -12 -1 -12 10 0 10 -3 15 -6 11 -3 -3 -17 5 -31 19 -13 13 -30 24 -38 24 -8 0 -15 5 -15 10 0 6 52 10 136 10 160 0 197 12 221 69 19 46 12 135 -14 163 -35 39 -75 48 -223 48 l-140 0 0 -141 c0 -99 -3 -140 -11 -137 -6 2 -13 22 -14 43 -3 45 -12 85 -20 93 -3 3 -5 0 -5 -7 0 -19 -49 22 -50 42 0 9 -5 17 -11 17 -6 0 -8 7 -5 16 3 9 2 12 -4 9 -16 -10 -72 56 -67 77 3 11 0 17 -6 16 -7 -1 -27 8 -44 22 l-33 24 0 228 0 229 133 -3 132 -3 3 -182z m1560 172 c126 -30 202 -88 256 -195 45 -90 60 -184 53 -330 -10 -232 -83 -357 -246 -422 -54 -22 -69 -23 -413 -26 l-358 -3 0 495 0 496 323 0 c249 0 336 -4 385 -15z m1852 -300 c0 -188 4 -315 9 -315 5 0 69 71 142 158 74 86 160 189 194 228 33 38 93 109 134 157 l74 88 106 -3 106 -3 0 -490 0 -490 -132 -3 -133 -3 0 316 c0 173 -3 315 -7 315 -5 0 -127 -142 -273 -314 l-265 -315 -107 0 -108 -1 0 495 0 495 130 0 130 0 0 -315z m-4128 217 c-9 -23 -21 -42 -25 -42 -4 0 -3 9 3 19 5 11 15 32 20 47 6 15 13 25 15 22 3 -3 -3 -23 -13 -46z m194 -169 c-10 -10 -19 5 -10 18 6 11 8 11 12 0 2 -7 1 -15 -2 -18z m-16 -37 c0 -3 -4 -8 -10 -11 -5 -3 -10 -1 -10 4 0 6 5 11 10 11 6 0 10 -2 10 -4z m420 -346 c0 -5 -4 -10 -10 -10 -5 0 -10 5 -10 10 0 6 5 10 10 10 6 0 10 -4 10 -10z m-5255 -290 c3 -5 2 -10 -4 -10 -5 0 -13 5 -16 10 -3 6 -2 10 4 10 5 0 13 -4 16 -10z"/>
<path d="M5340 2290 c0 -5 5 -10 11 -10 5 0 7 5 4 10 -3 6 -8 10 -11 10 -2 0 -4 -4 -4 -10z"/>
</g>
<g id="layer108" fill="#ffffff" stroke="none">
<path d="M0 1780 l0 -1780 6000 0 6000 0 0 1780 0 1780 -6000 0 -6000 0 0 -1780z m2128 1373 c122 -81 260 -241 319 -369 16 -35 30 -53 38 -50 166 63 388 82 552 46 51 -11 51 -12 65 -63 8 -33 13 -108 13 -202 -1 -150 -11 -217 -50 -318 -8 -20 -15 -39 -15 -41 0 -3 24 -16 54 -29 72 -33 159 -93 231 -159 60 -54 175 -200 175 -221 0 -20 -127 -183 -178 -227 -62 -56 -143 -110 -219 -149 l-62 -31 20 -57 c29 -86 49 -214 49 -317 -1 -96 -20 -220 -37 -237 -15 -15 -158 -38 -239 -39 -86 0 -217 22 -298 50 -33 11 -62 20 -66 20 -3 0 -23 -32 -43 -70 -20 -39 -55 -96 -78 -127 -91 -123 -258 -260 -303 -249 -34 9 -144 96 -213 169 -61 66 -159 212 -169 255 -8 28 -12 28 -109 -5 -62 -20 -98 -26 -160 -25 -44 0 -90 -4 -102 -10 -18 -9 -29 -8 -47 2 -14 7 -38 10 -55 7 -17 -4 -33 -2 -37 4 -3 6 -19 9 -34 5 -15 -3 -31 -2 -35 2 -4 4 -17 7 -28 7 -14 0 -21 5 -19 14 2 8 0 21 -4 30 -4 9 -6 28 -5 43 1 14 -3 29 -8 33 -6 3 -8 17 -5 30 3 12 1 26 -5 29 -14 9 -15 143 -1 151 6 3 7 17 4 31 -3 13 -1 31 6 39 6 8 9 22 6 33 -4 10 5 53 19 96 31 94 31 92 1 100 -14 3 -32 14 -42 24 -10 9 -22 17 -28 17 -20 1 -106 57 -117 76 -5 10 -16 19 -23 19 -14 0 -139 127 -174 177 -12 17 -22 38 -22 47 0 8 -7 19 -14 23 -12 7 -10 16 15 56 16 26 34 47 39 47 6 0 14 10 19 23 25 62 173 188 299 254 37 19 69 36 70 38 2 2 -8 37 -21 78 -14 42 -31 112 -38 158 -20 138 3 359 40 378 24 13 162 31 240 31 83 0 216 -22 295 -50 33 -11 61 -20 62 -20 2 0 18 28 35 63 48 95 100 165 180 245 62 61 179 152 196 152 3 0 30 -17 61 -37z m4628 -344 c153 -21 249 -79 273 -164 7 -25 11 -151 11 -337 l0 -298 -110 0 -110 0 0 294 0 293 -26 27 c-36 36 -92 49 -193 44 -97 -4 -152 -25 -170 -64 -7 -17 -11 -118 -11 -309 l0 -285 -110 0 -110 0 0 291 c0 328 5 362 59 419 78 81 287 118 497 89z m991 -12 c61 -16 117 -56 139 -99 21 -41 30 -165 14 -212 -16 -48 -54 -92 -100 -116 -42 -21 -148 -41 -177 -34 -11 3 -59 1 -108 -4 -73 -8 -93 -14 -107 -32 -26 -32 -23 -83 6 -117 l24 -28 209 -2 208 -1 0 -64 0 -63 -110 -13 c-157 -18 -344 -11 -417 17 -106 41 -156 126 -145 248 7 72 17 95 60 141 45 46 108 63 274 71 166 7 183 15 183 87 0 50 -25 80 -75 90 -17 3 -120 4 -228 2 l-197 -3 0 63 c0 41 4 64 13 67 66 25 444 27 534 2z m-2697 -387 l0 -401 -97 3 -98 3 -8 220 c-9 285 -10 305 -18 305 -11 0 -36 -34 -44 -58 -4 -13 -9 -21 -13 -18 -10 10 -52 -36 -52 -57 0 -11 -3 -17 -7 -14 -10 11 -43 -24 -43 -46 0 -11 -3 -17 -7 -14 -7 8 -53 -31 -53 -45 0 -5 -16 -23 -36 -40 -23 -20 -33 -36 -29 -47 3 -8 3 -12 -1 -8 -4 4 -14 1 -22 -6 -13 -11 -14 -9 -1 12 11 18 11 25 2 28 -7 3 -13 11 -13 19 0 8 -4 14 -10 14 -5 0 -10 6 -10 14 0 10 -7 13 -20 11 -19 -4 -18 0 10 34 16 22 30 42 30 45 0 4 16 21 35 37 20 17 34 39 33 48 -2 9 2 15 8 14 11 -2 94 88 94 102 0 4 11 16 25 27 14 11 25 25 25 31 0 7 9 18 20 25 11 7 20 18 20 25 0 7 14 23 30 35 17 13 30 29 30 37 0 8 9 19 20 25 11 6 20 17 20 25 0 12 18 15 90 15 l90 0 0 -400z m785 379 c95 -29 165 -98 193 -191 29 -92 36 -189 22 -282 -21 -143 -73 -226 -168 -273 l-57 -28 -290 0 -290 0 -3 180 c-1 99 -7 184 -12 189 -11 11 -14 409 -3 419 3 4 127 7 274 7 242 0 273 -2 334 -21z m2677 -306 l3 -328 140 -3 c96 -2 142 -6 147 -15 9 -14 11 -89 2 -111 -5 -14 -51 -16 -405 -16 l-399 0 0 70 0 69 143 3 142 3 3 328 2 327 110 0 110 0 2 -327z m620 180 l3 -148 24 -3 c14 -2 53 -1 87 3 l63 6 82 141 c45 77 87 142 94 144 6 3 57 3 112 2 l101 -3 -96 -154 c-88 -141 -95 -155 -78 -165 122 -73 137 -94 144 -201 6 -96 -11 -150 -62 -201 -67 -68 -103 -74 -418 -74 l-268 0 0 400 0 400 105 0 104 0 3 -147z m1168 25 l0 -121 150 -261 c82 -144 152 -269 156 -279 6 -16 -1 -17 -100 -15 l-107 3 -98 183 c-54 101 -102 185 -107 185 -5 1 -54 -82 -109 -185 l-100 -188 -113 0 c-62 0 -111 3 -109 8 48 83 280 487 296 512 18 31 21 50 21 158 l0 122 110 0 110 0 0 -122z m-6280 32 c0 -38 -4 -72 -10 -75 -6 -4 -10 23 -10 75 0 52 4 79 10 75 6 -3 10 -37 10 -75z m408 -169 c1 -156 -1 -248 -8 -255 -7 -7 -10 3 -10 30 0 40 -27 82 -99 156 -17 18 -31 37 -31 42 0 6 -11 24 -25 40 -23 27 -25 37 -25 133 l0 104 98 -3 97 -3 3 -244z m4897 -890 l50 -6 3 -82 3 -82 -281 -3 -282 -3 -24 -28 c-21 -25 -24 -38 -24 -106 l0 -78 98 -6 c53 -4 170 -7 260 -7 l162 0 0 -80 c0 -69 -2 -80 -17 -81 -10 -1 -126 -4 -258 -8 l-240 -6 -3 -81 c-3 -75 -1 -85 22 -110 l24 -29 282 -3 281 -3 -3 -82 -3 -82 -125 -8 c-69 -4 -224 -6 -345 -5 -205 3 -223 5 -270 26 -57 26 -90 54 -113 97 -15 26 -17 75 -20 345 -4 341 2 398 44 443 69 75 146 88 469 81 143 -3 283 -9 310 -13z m-4435 -12 c0 -6 -4 -7 -10 -4 -5 3 -10 11 -10 16 0 6 5 7 10 4 6 -3 10 -11 10 -16z m246 6 c-3 -8 0 -28 6 -43 6 -15 18 -45 28 -67 9 -22 20 -50 26 -63 l9 -23 234 0 c256 -1 247 -3 256 58 4 35 31 100 45 108 6 4 9 14 8 23 -3 15 12 17 135 20 75 1 137 -1 137 -5 0 -19 -107 -260 -120 -270 -8 -6 -12 -15 -7 -19 4 -4 1 -14 -7 -23 -7 -9 -44 -88 -81 -176 -37 -88 -77 -182 -89 -210 -13 -27 -31 -71 -41 -97 -10 -27 -21 -48 -25 -48 -4 0 -18 14 -31 32 -92 121 -104 133 -107 110 -2 -12 -7 -22 -12 -22 -12 0 1 40 90 273 34 90 37 88 -161 87 -94 -1 -172 0 -173 2 -1 1 -19 24 -39 49 -20 25 -37 51 -37 58 0 6 -4 11 -9 11 -6 0 -18 14 -28 30 -9 17 -23 30 -30 30 -7 0 -13 8 -13 18 0 11 -18 35 -39 55 -22 20 -48 50 -58 67 -11 20 -25 30 -38 29 -42 -3 -66 1 -60 11 4 6 55 10 122 10 99 0 114 -2 109 -15z m1302 -172 l2 -183 100 0 c67 0 103 4 110 13 7 6 56 89 110 182 l98 170 137 3 c75 1 135 -1 133 -6 -1 -5 -54 -90 -115 -189 -62 -99 -113 -186 -113 -192 0 -6 15 -17 33 -25 61 -26 114 -73 138 -123 19 -38 23 -64 23 -133 0 -135 -32 -205 -122 -265 -74 -48 -131 -55 -461 -55 -269 0 -307 2 -323 17 -17 15 -18 44 -18 495 l0 479 133 -3 132 -3 3 -182z m1560 172 c126 -30 202 -88 256 -195 45 -90 60 -184 53 -330 -10 -232 -83 -357 -246 -422 -54 -22 -69 -23 -413 -26 l-358 -3 0 495 0 496 323 0 c249 0 336 -4 385 -15z m1852 -300 c0 -188 4 -315 9 -315 5 0 69 71 142 158 74 86 160 189 194 228 33 38 93 109 134 157 l74 88 106 -3 106 -3 0 -490 0 -490 -132 -3 -133 -3 0 316 c0 173 -3 315 -7 315 -5 0 -127 -142 -273 -314 l-265 -315 -107 0 -108 -1 0 495 0 495 130 0 130 0 0 -315z m-4713 78 c-4 -3 -10 -3 -14 0 -3 4 0 7 7 7 7 0 10 -3 7 -7z m50 -80 c-4 -3 -7 0 -7 7 0 7 3 10 7 7 3 -4 3 -10 0 -14z m90 -110 c-4 -3 -7 0 -7 7 0 7 3 10 7 7 3 -4 3 -10 0 -14z m20 -65 c-3 -8 -6 -5 -6 6 -1 11 2 17 5 13 3 -3 4 -12 1 -19z m238 -268 c3 -5 1 -10 -4 -10 -6 0 -11 5 -11 10 0 6 2 10 4 10 3 0 8 -4 11 -10z m108 -120 c-3 -12 -8 -19 -11 -16 -5 6 5 36 12 36 2 0 2 -9 -1 -20z m-53 -94 c0 -11 -19 -15 -25 -6 -3 5 1 10 9 10 9 0 16 -2 16 -4z"/>
<path d="M1160 1173 c-7 -21 -14 -85 -17 -143 -3 -58 -10 -110 -15 -117 -6 -7 -5 -14 2 -18 6 -4 8 -15 5 -24 -3 -11 3 -25 15 -36 17 -15 37 -18 139 -17 66 0 124 2 128 5 4 3 26 8 48 11 68 12 68 12 51 106 -9 45 -16 118 -16 161 l0 79 -77 0 c-43 1 -114 7 -158 15 -44 8 -83 15 -87 15 -4 0 -12 -17 -18 -37z"/>
<path d="M5446 2662 c-3 -5 -6 -123 -7 -262 l-1 -253 124 2 c183 3 218 16 251 89 18 40 22 66 22 167 0 108 -2 125 -25 170 -39 78 -82 95 -237 95 -67 0 -124 -4 -127 -8z"/>
</g>
<g id="layer109" fill="#28263c" stroke="none">
<path d="M0 1780 l0 -1780 6000 0 6000 0 0 1780 0 1780 -6000 0 -6000 0 0 -1780z m2128 1373 c122 -81 260 -241 319 -369 16 -35 30 -53 38 -50 166 63 388 82 552 46 51 -11 51 -12 65 -63 8 -33 13 -108 13 -202 -1 -150 -11 -217 -50 -318 -8 -20 -15 -39 -15 -41 0 -3 24 -16 54 -29 72 -33 159 -93 231 -159 60 -54 175 -200 175 -221 0 -20 -127 -183 -178 -227 -62 -56 -143 -110 -219 -149 l-62 -31 20 -57 c29 -86 49 -214 49 -317 -1 -96 -20 -220 -37 -237 -15 -15 -158 -38 -239 -39 -86 0 -217 22 -298 50 -33 11 -62 20 -66 20 -3 0 -23 -32 -43 -70 -20 -39 -55 -96 -78 -127 -91 -123 -258 -260 -303 -249 -34 9 -144 96 -213 169 -61 66 -159 212 -169 255 -8 27 -12 27 -104 -2 -151 -48 -340 -58 -475 -24 -49 13 -50 14 -63 63 -34 136 -25 333 24 481 29 91 29 90 1 98 -49 12 -186 105 -261 176 -43 41 -101 106 -127 144 l-49 69 25 41 c74 124 221 259 363 333 37 19 69 36 70 38 2 2 -8 37 -21 78 -14 42 -31 112 -38 158 -20 138 3 359 40 378 24 13 162 31 240 31 83 0 216 -22 295 -50 33 -11 61 -20 62 -20 2 0 18 28 35 63 48 95 100 165 180 245 62 61 179 152 196 152 3 0 30 -17 61 -37z m4628 -344 c153 -21 249 -79 273 -164 7 -25 11 -151 11 -337 l0 -298 -110 0 -110 0 0 294 0 293 -26 27 c-36 36 -92 49 -193 44 -97 -4 -152 -25 -170 -64 -7 -17 -11 -118 -11 -309 l0 -285 -110 0 -110 0 0 291 c0 328 5 362 59 419 78 81 287 118 497 89z m991 -12 c61 -16 117 -56 139 -99 21 -41 30 -165 14 -212 -16 -48 -54 -92 -100 -116 -42 -21 -148 -41 -177 -34 -11 3 -59 1 -108 -4 -73 -8 -93 -14 -107 -32 -26 -32 -23 -83 6 -117 l24 -28 209 -2 208 -1 0 -64 0 -63 -110 -13 c-157 -18 -344 -11 -417 17 -106 41 -156 126 -145 248 7 72 17 95 60 141 45 46 108 63 274 71 166 7 183 15 183 87 0 50 -25 80 -75 90 -17 3 -120 4 -228 2 l-197 -3 0 63 c0 41 4 64 13 67 66 25 444 27 534 2z m-3727 -387 l0 -400 -105 0 -105 0 0 400 0 400 105 0 105 0 0 -400z m410 145 c0 -200 3 -253 13 -249 6 3 53 54 102 113 50 59 144 171 210 249 l119 142 88 0 88 0 0 -400 0 -400 -105 0 -105 0 -1 38 c0 20 0 125 1 232 1 185 -3 230 -19 230 -4 0 -63 -66 -132 -147 -68 -80 -164 -193 -212 -250 l-89 -103 -89 0 -89 0 0 400 0 400 110 0 110 0 0 -255z m1405 234 c95 -29 165 -98 193 -191 29 -92 36 -189 22 -282 -21 -143 -73 -226 -168 -273 l-57 -28 -300 0 -300 0 -3 385 c-1 212 0 391 3 397 3 10 67 13 274 13 244 0 275 -2 336 -21z m2677 -306 l3 -328 140 -3 c96 -2 142 -6 147 -15 9 -14 11 -89 2 -111 -5 -14 -51 -16 -405 -16 l-399 0 0 70 0 69 143 3 142 3 3 328 2 327 110 0 110 0 2 -327z m620 180 l3 -148 24 -3 c14 -2 53 -1 87 3 l63 6 82 141 c45 77 87 142 94 144 6 3 57 3 112 2 l101 -3 -96 -154 c-88 -141 -95 -155 -78 -165 122 -73 137 -94 144 -201 6 -96 -11 -150 -62 -201 -67 -68 -103 -74 -418 -74 l-268 0 0 400 0 400 105 0 104 0 3 -147z m1168 25 l0 -121 150 -261 c82 -144 152 -269 156 -279 6 -16 -1 -17 -100 -15 l-107 3 -98 183 c-54 101 -102 185 -107 185 -5 1 -54 -82 -109 -185 l-100 -188 -113 0 c-62 0 -111 3 -109 8 48 83 280 487 296 512 18 31 21 50 21 158 l0 122 110 0 110 0 0 -122z m-6074 -1018 c51 -5 129 -21 174 -36 45 -14 83 -24 84 -22 1 2 10 15 19 31 17 27 19 27 117 27 l100 0 0 -279 0 -280 -55 -6 c-88 -11 -422 5 -435 20 -6 8 -10 41 -8 77 l3 63 118 3 117 3 0 98 0 99 -27 6 c-16 4 -89 9 -163 12 -128 5 -137 4 -180 -18 -34 -17 -51 -35 -70 -73 -23 -45 -25 -64 -28 -197 -4 -177 10 -244 63 -294 54 -51 106 -58 357 -50 120 3 224 7 231 9 8 1 13 -20 15 -74 l3 -76 -73 -12 c-216 -34 -411 -41 -537 -20 -129 22 -230 90 -275 184 -38 80 -50 157 -50 315 0 353 100 481 389 498 11 1 61 -3 111 -8z m5099 -9 l50 -6 3 -82 3 -82 -281 -3 -282 -3 -24 -28 c-21 -25 -24 -38 -24 -106 l0 -78 98 -6 c53 -4 170 -7 260 -7 l162 0 0 -80 c0 -69 -2 -80 -17 -81 -10 -1 -126 -4 -258 -8 l-240 -6 -3 -81 c-3 -75 -1 -85 22 -110 l24 -29 282 -3 281 -3 -3 -82 -3 -82 -125 -8 c-69 -4 -224 -6 -345 -5 -205 3 -223 5 -270 26 -57 26 -90 54 -113 97 -15 26 -17 75 -20 345 -4 341 2 398 44 443 69 75 146 88 469 81 143 -3 283 -9 310 -13z m-4150 -94 l41 -102 224 0 224 0 43 100 42 100 135 3 c75 1 136 -1 136 -5 0 -6 -221 -539 -358 -863 l-49 -115 -169 -3 -170 -2 -36 87 c-21 49 -74 176 -119 283 -45 107 -119 285 -165 394 -46 109 -84 205 -84 212 0 11 28 14 133 14 l132 0 40 -103z m1263 -84 l2 -183 100 0 c67 0 103 4 110 13 7 6 56 89 110 182 l98 170 137 3 c75 1 135 -1 133 -6 -1 -5 -54 -90 -115 -189 -62 -99 -113 -186 -113 -192 0 -6 15 -17 33 -25 61 -26 114 -73 138 -123 19 -38 23 -64 23 -133 0 -135 -32 -205 -122 -265 -74 -49 -129 -55 -479 -55 l-323 0 0 495 0 496 133 -3 132 -3 3 -182z m1560 172 c126 -30 202 -88 256 -195 45 -90 60 -184 53 -330 -10 -232 -83 -357 -246 -422 -54 -22 -69 -23 -413 -26 l-358 -3 0 495 0 496 323 0 c249 0 336 -4 385 -15z m1852 -300 c0 -188 4 -315 9 -315 5 0 69 71 142 158 74 86 160 189 194 228 33 38 93 109 134 157 l74 88 106 -3 106 -3 0 -490 0 -490 -132 -3 -133 -3 0 316 c0 173 -3 315 -7 315 -5 0 -127 -142 -273 -314 l-265 -315 -107 0 -108 -1 0 495 0 495 130 0 130 0 0 -315z"/>
<path d="M1985 2978 c-64 -59 -165 -189 -165 -213 0 -6 27 -30 60 -53 33 -24 89 -70 125 -103 l64 -61 58 57 c32 31 86 77 121 102 34 25 62 51 62 59 0 47 -203 274 -245 274 -7 0 -42 -28 -80 -62z"/>
<path d="M1200 2674 c-19 -3 -41 -12 -47 -21 -24 -31 -12 -317 15 -360 5 -8 27 -7 77 3 39 7 112 13 163 14 l92 0 0 83 c1 45 7 118 15 162 8 43 12 81 11 83 -23 22 -243 47 -326 36z"/>
<path d="M1671 2663 c-38 -74 -63 -413 -29 -413 6 0 39 18 72 40 72 46 174 86 245 96 33 4 51 11 51 20 0 27 -137 158 -224 216 -48 32 -92 58 -97 58 -4 0 -12 -8 -18 -17z"/>
<path d="M2365 2637 c-74 -45 -245 -206 -245 -232 0 -10 10 -15 29 -15 70 0 194 -51 318 -130 12 -8 26 -11 30 -7 12 12 7 246 -6 302 -25 104 -32 125 -44 124 -7 0 -43 -19 -82 -42z"/>
<path d="M2707 2665 c-114 -24 -106 -15 -90 -98 7 -39 15 -112 16 -162 l3 -90 119 -6 c66 -4 138 -11 160 -18 46 -13 49 -10 67 69 15 67 17 285 2 300 -18 18 -201 21 -277 5z"/>
<path d="M1942 2325 c-35 -8 -87 -25 -117 -39 -60 -27 -145 -83 -145 -95 0 -4 25 -15 55 -25 l55 -17 64 31 c35 16 78 33 95 36 25 5 35 16 51 52 21 46 25 73 13 71 -5 0 -36 -7 -71 -14z"/>
<path d="M2110 2332 c0 -4 10 -30 22 -59 19 -41 29 -53 53 -57 16 -4 59 -20 96 -37 l67 -31 51 17 c28 9 51 21 51 25 0 13 -57 54 -115 83 -72 36 -225 76 -225 59z"/>
<path d="M1320 2180 c-64 -8 -177 -34 -187 -43 -11 -11 61 -126 131 -211 39 -46 131 -126 146 -126 3 0 12 30 19 67 15 83 43 150 93 227 21 32 38 64 38 71 0 22 -118 29 -240 15z"/>
<path d="M2618 2183 c-27 -2 -48 -9 -48 -14 0 -6 13 -29 29 -52 57 -84 111 -223 111 -288 0 -46 24 -36 109 49 73 71 181 221 181 249 0 31 -250 68 -382 56z"/>
<path d="M1959 2127 c-187 -53 -313 -250 -280 -439 31 -175 151 -296 326 -329 166 -31 348 68 423 228 23 51 27 71 27 158 0 92 -3 106 -32 167 -64 137 -189 219 -338 225 -45 1 -100 -3 -126 -10z m238 -123 c98 -47 156 -142 157 -254 1 -86 -17 -134 -73 -193 -63 -69 -127 -97 -217 -97 -161 0 -283 122 -284 285 0 105 41 177 143 255 59 44 187 47 274 4z"/>
<path d="M1990 1891 c-97 -51 -117 -183 -39 -260 105 -105 279 -30 279 120 0 119 -134 197 -240 140z"/>
<path d="M1580 2085 c-54 -78 -100 -201 -100 -267 0 -34 7 -34 63 -7 40 19 46 27 61 78 9 32 27 74 40 95 l23 38 -20 54 c-11 30 -23 54 -28 54 -4 0 -22 -20 -39 -45z"/>
<path d="M2486 2077 l-18 -54 25 -49 c14 -27 31 -69 38 -93 11 -38 19 -46 66 -69 29 -14 55 -24 57 -21 11 11 -28 157 -56 213 -32 65 -74 126 -86 126 -5 0 -16 -24 -26 -53z"/>
<path d="M972 1950 c-57 -39 -202 -182 -202 -200 0 -15 95 -124 141 -161 61 -49 121 -89 136 -89 6 0 34 31 61 68 27 37 72 91 101 120 28 30 51 56 51 59 0 3 -30 38 -68 77 -37 39 -81 92 -97 118 -17 27 -37 48 -46 48 -9 0 -44 -18 -77 -40z"/>
<path d="M3027 1928 c-25 -35 -70 -90 -101 -122 l-55 -60 65 -68 c35 -38 81 -93 100 -123 20 -30 42 -55 49 -55 40 0 275 209 275 244 0 44 -225 246 -274 246 -8 0 -34 -28 -59 -62z"/>
<path d="M1483 1650 c11 -90 105 -284 135 -278 8 2 22 23 31 48 18 45 17 45 -10 100 -15 30 -33 75 -40 99 -11 37 -19 46 -57 62 -63 27 -66 26 -59 -31z"/>
<path d="M2584 1679 c-32 -14 -43 -26 -48 -50 -3 -17 -20 -60 -37 -95 l-30 -65 16 -49 c9 -28 22 -50 29 -50 38 0 117 169 140 298 7 38 -7 41 -70 11z"/>
<path d="M1306 1608 c-86 -88 -186 -232 -170 -248 26 -26 170 -50 295 -50 70 0 130 4 133 9 3 5 -3 19 -13 32 -56 73 -112 201 -125 292 -5 32 -12 47 -22 47 -9 0 -52 -37 -98 -82z"/>
<path d="M2706 1638 c-10 -70 -54 -181 -99 -250 -20 -30 -37 -60 -37 -67 0 -21 240 -14 341 10 49 11 89 26 89 32 0 6 -19 43 -42 81 -45 76 -203 246 -229 246 -12 0 -18 -14 -23 -52z"/>
<path d="M1740 1330 c-25 -10 -46 -24 -48 -32 -6 -31 185 -123 281 -134 l57 -7 -24 54 c-22 51 -27 55 -83 74 -33 12 -76 31 -97 43 -20 12 -38 22 -39 21 -1 -1 -22 -9 -47 -19z"/>
<path d="M2300 1324 c-25 -14 -68 -32 -96 -41 -45 -14 -54 -22 -73 -60 -11 -24 -21 -48 -21 -53 0 -27 132 3 225 50 65 33 123 75 115 83 -3 3 -28 14 -55 25 l-50 20 -45 -24z"/>
<path d="M1628 1193 c-5 -147 10 -274 41 -356 l11 -28 42 22 c100 50 288 217 288 254 0 7 -27 18 -62 25 -91 17 -161 46 -235 96 -36 24 -70 44 -74 44 -5 0 -10 -26 -11 -57z"/>
<path d="M2440 1218 c-43 -36 -182 -96 -252 -108 -38 -7 -68 -16 -68 -20 0 -15 80 -103 139 -153 72 -61 166 -119 188 -115 51 10 84 419 34 418 -9 -1 -27 -10 -41 -22z"/>
<path d="M1159 1173 c-15 -50 -23 -313 -10 -333 20 -30 319 -22 369 9 11 6 10 24 -2 91 -9 45 -16 118 -16 161 l0 79 -77 0 c-43 1 -114 7 -158 15 -44 8 -83 15 -87 15 -4 0 -12 -17 -19 -37z"/>
<path d="M2860 1194 c-41 -7 -110 -13 -152 -13 l-77 -1 0 -87 c0 -49 -6 -121 -12 -161 -10 -61 -10 -75 2 -82 49 -31 333 -40 361 -12 9 9 13 47 11 140 -1 134 -19 226 -44 228 -8 1 -48 -4 -89 -12z"/>
<path d="M2000 884 c-29 -30 -82 -74 -117 -97 -34 -23 -63 -48 -63 -55 0 -33 105 -168 181 -231 53 -45 63 -49 82 -40 39 21 181 174 209 225 l27 50 -72 52 c-40 29 -95 74 -122 102 -27 27 -54 50 -60 49 -5 0 -35 -25 -65 -55z"/>
<path d="M5445 2657 c-3 -7 -4 -123 -3 -257 l3 -245 140 0 c168 0 195 10 228 83 18 40 22 66 22 167 0 108 -2 125 -25 170 -39 78 -82 95 -237 95 -91 0 -125 -3 -128 -13z"/>
<path d="M9132 2268 l3 -113 90 -3 c110 -4 189 11 210 41 9 13 15 43 15 75 0 46 -4 58 -29 83 l-29 29 -132 0 -131 0 3 -112z"/>
<path d="M5290 1268 c0 -30 139 -383 150 -383 12 0 150 351 150 381 0 11 -27 14 -150 14 -113 0 -150 -3 -150 -12z"/>
<path d="M6440 1000 l0 -140 146 0 c116 0 153 3 181 17 47 22 67 70 60 141 -11 102 -51 122 -247 122 l-140 0 0 -140z"/>
<path d="M7550 1175 l0 -315 163 0 c89 0 179 5 199 10 43 12 90 63 109 117 19 52 19 314 1 366 -19 52 -59 96 -107 118 -33 16 -67 19 -202 19 l-163 0 0 -315z"/>
</g>


</svg>