<!DOCTYPE svg PUBLIC "-//W3C//DTD SVG 20010904//EN" "http://www.w3.org/TR/2001/REC-SVG-20010904/DTD/svg10.dtd">
<svg version="1.0" xmlns="http://www.w3.org/2000/svg"  width="150px" height="180px" viewBox="3900 3000 4500 4000" preserveAspectRatio="xMidYMid meet">
<g id="layer101" fill="#31427d" stroke="none">
<path d="M0 5140 l0 -5140 6000 0 6000 0 0 5140 0 5140 -6000 0 -6000 0 0 -5140z"/>
</g>
<g id="layer102" fill="#2b3990" stroke="none">
<path d="M0 5140 l0 -5140 6000 0 6000 0 0 5140 0 5140 -6000 0 -6000 0 0 -5140z m6888 2098 l-3 -203 -2 198 -3 197 -55 0 -55 0 -3 -197 -2 -198 -3 203 -2 202 65 0 65 0 -2 -202z m392 195 c0 -5 -31 -8 -70 -8 -38 0 -70 3 -70 8 0 4 32 7 70 7 39 0 70 -3 70 -7z m337 0 c-8 -7 -119 -5 -126 3 -2 2 26 4 64 4 38 0 65 -3 62 -7z m371 -70 l-2 -78 -3 73 -4 74 -59 -4 c-33 -1 -60 0 -60 5 0 4 29 7 65 7 l65 0 -2 -77z m-422 -11 c-17 -16 -18 -16 -5 5 7 12 15 20 18 17 3 -2 -3 -12 -13 -22z m-142 -52 c-10 -16 -20 -27 -22 -25 -5 5 26 55 34 55 3 0 -3 -13 -12 -30z m87 -43 c-10 -9 -11 -8 -5 6 3 10 9 15 12 12 3 -3 0 -11 -7 -18z m509 -12 c0 -8 -2 -15 -4 -15 -2 0 -6 7 -10 15 -3 8 -1 15 4 15 6 0 10 -7 10 -15z m-180 -16 c-7 -11 -14 -18 -17 -15 -3 3 0 12 7 21 18 21 23 19 10 -6z m-257 -41 c21 -29 35 -122 20 -131 -5 -4 -10 18 -11 50 -1 47 -6 61 -29 86 -16 16 -22 28 -14 25 8 -2 24 -16 34 -30z m221 -18 c-10 -16 -20 -27 -22 -25 -5 5 26 55 34 55 3 0 -3 -13 -12 -30z m-404 14 c-60 -8 -128 -8 -123 -1 2 4 37 6 76 6 40 -1 61 -3 47 -5z m510 -34 c-6 -12 -14 -20 -17 -17 -2 3 1 14 8 26 17 26 24 19 9 -9z m71 -35 c8 -16 6 -15 -10 4 -12 13 -21 28 -21 35 0 12 14 -5 31 -39z m99 24 c0 -6 -4 -7 -10 -4 -5 3 -10 11 -10 16 0 6 5 7 10 4 6 -3 10 -11 10 -16z m-594 -46 c-11 -11 -19 6 -11 24 8 17 8 17 12 0 3 -10 2 -21 -1 -24z m634 -27 c0 -12 -14 5 -31 39 -8 16 -6 15 10 -4 12 -13 21 -28 21 -35z m-250 9 c0 -8 -4 -15 -10 -15 -5 0 -7 7 -4 15 4 8 8 15 10 15 2 0 4 -7 4 -15z m-120 -4 c0 -6 -4 -13 -10 -16 -5 -3 -10 1 -10 9 0 9 5 16 10 16 6 0 10 -4 10 -9z m296 -88 c-5 -5 -36 50 -36 64 0 4 9 -7 21 -26 11 -18 18 -35 15 -38z m-621 47 c4 -6 -20 -10 -65 -10 -45 0 -69 4 -65 10 3 6 33 10 65 10 32 0 62 -4 65 -10z m293 -10 c-7 -10 -14 -17 -17 -15 -4 4 18 35 25 35 2 0 -1 -9 -8 -20z m102 -39 l-20 -41 -65 0 c-68 0 -83 13 -50 40 13 11 14 10 9 -4 -5 -14 2 -16 48 -16 54 0 55 1 74 40 10 21 20 35 22 30 2 -5 -6 -27 -18 -49z m-236 25 c-3 -9 -10 -16 -15 -16 -5 0 -4 9 3 20 14 22 21 20 12 -4z m584 -31 c-3 -3 -9 2 -12 12 -6 14 -5 15 5 6 7 -7 10 -15 7 -18z m-631 -12 c-4 -3 -7 0 -7 7 0 7 3 10 7 7 3 -4 3 -10 0 -14z m-467 -8 c0 -12 -14 -15 -69 -15 -95 0 -101 18 -9 23 40 1 74 4 76 5 1 1 2 -5 2 -13z m385 -5 c-4 -6 -67 -10 -156 -10 -93 0 -149 4 -149 10 0 6 59 10 156 10 101 0 153 -3 149 -10z m730 0 c4 -6 -18 -10 -59 -10 -37 0 -66 4 -66 10 0 6 26 10 59 10 33 0 63 -4 66 -10z m-467 -404 c1 -120 -1 -193 -8 -200 -7 -7 -10 51 -10 183 l0 193 -75 -4 c-41 -2 -75 0 -75 3 0 16 20 20 90 17 l75 -3 3 -189z m469 179 c2 -6 -22 -9 -62 -7 -38 2 -63 8 -59 13 8 13 116 7 121 -6z m-152 -35 c-10 -11 -21 -17 -24 -14 -3 3 3 12 13 20 28 20 32 17 11 -6z m-610 -61 c-8 -12 -272 -12 -280 1 -4 6 46 10 132 12 146 3 157 2 148 -13z m555 -4 c-7 -9 -15 -13 -17 -11 -7 7 7 26 19 26 6 0 6 -6 -2 -15z m-50 -59 c0 -3 -4 -8 -10 -11 -5 -3 -10 -1 -10 4 0 6 5 11 10 11 6 0 10 -2 10 -4z m-45 -56 c-10 -11 -21 -18 -23 -15 -3 3 3 12 14 20 27 20 30 18 9 -5z m125 1 c0 -5 -7 -12 -16 -15 -14 -5 -15 -4 -4 9 14 17 20 19 20 6z m-445 -51 c3 -5 4 -10 1 -10 -3 0 -8 5 -11 10 -3 6 -4 10 -1 10 3 0 8 -4 11 -10z m405 1 c0 -5 -12 -17 -27 -26 l-28 -18 24 27 c26 28 31 31 31 17z m-150 -26 c-13 -14 -26 -22 -29 -19 -3 3 5 14 18 25 33 27 39 24 11 -6z m90 -45 c-6 -11 -20 -25 -33 -31 -18 -10 -17 -6 7 20 34 36 41 39 26 11z m-535 0 c3 -5 4 -10 1 -10 -3 0 -8 5 -11 10 -3 6 -4 10 -1 10 3 0 8 -4 11 -10z m415 6 c0 -2 -8 -10 -17 -17 -16 -13 -17 -12 -4 4 13 16 21 21 21 13z m247 -73 c-4 -3 -7 0 -7 7 0 7 3 10 7 7 3 -4 3 -10 0 -14z m-233 -56 c-2 -7 -14 -19 -27 -26 -21 -13 -21 -12 2 13 27 29 33 32 25 13z m386 -132 c0 -11 -11 -15 -42 -15 -47 0 -42 16 7 23 17 2 31 5 33 6 1 0 2 -6 2 -14z m-620 1 c0 -3 -5 -8 -12 -12 -7 -4 -8 -3 -4 4 7 12 16 16 16 8z m495 -6 c3 -5 -3 -10 -14 -10 -12 0 -21 5 -21 10 0 6 6 10 14 10 8 0 18 -4 21 -10z m-1827 -638 c20 -30 11 -28 -19 4 -13 15 -18 25 -10 22 8 -2 21 -14 29 -26z m67 -63 c14 -22 -3 -18 -26 7 -23 25 -23 26 -2 15 12 -6 25 -16 28 -22z m145 -224 c0 -5 -5 -3 -10 5 -5 8 -10 20 -10 25 0 6 5 3 10 -5 5 -8 10 -19 10 -25z m395 5 c-3 -5 -23 -9 -43 -9 l-37 1 30 8 c44 11 57 11 50 0z m144 -6 c2 -2 -14 -4 -37 -4 -22 0 -44 5 -47 10 -6 10 73 3 84 -6z m-249 -4 c0 -5 -10 -10 -22 -9 -22 0 -22 1 -3 9 11 5 21 9 23 9 1 1 2 -3 2 -9z m330 -6 c0 -2 -11 -4 -25 -4 -14 0 -25 4 -25 9 0 4 11 6 25 3 14 -2 25 -6 25 -8z m-390 2 c0 -3 -5 -8 -12 -12 -7 -4 -8 -3 -4 4 7 12 16 16 16 8z m-40 -16 c0 -5 -5 -10 -11 -10 -5 0 -7 5 -4 10 3 6 8 10 11 10 2 0 4 -4 4 -10z m495 0 c3 -5 1 -10 -4 -10 -6 0 -11 5 -11 10 0 6 2 10 4 10 3 0 8 -4 11 -10z m12 -37 c-4 -3 -7 0 -7 7 0 7 3 10 7 7 3 -4 3 -10 0 -14z m-239 -60 c-15 -2 -42 -2 -60 0 -18 2 -6 4 27 4 33 0 48 -2 33 -4z m-145 -10 c-7 -2 -19 -2 -25 0 -7 3 -2 5 12 5 14 0 19 -2 13 -5z m254 1 c-3 -3 -12 -4 -19 -1 -8 3 -5 6 6 6 11 1 17 -2 13 -5z m156 -32 c4 -21 3 -31 -3 -27 -6 3 -10 20 -10 37 0 38 5 34 13 -10z m-466 22 c-3 -3 -12 -4 -19 -1 -8 3 -5 6 6 6 11 1 17 -2 13 -5z m-50 -11 c-4 -3 -10 -3 -14 0 -3 4 0 7 7 7 7 0 10 -3 7 -7z m391 -54 c-3 -20 -5 -19 -9 9 -3 20 -2 29 4 23 5 -5 7 -19 5 -32z m129 -71 c-2 -13 -4 -5 -4 17 -1 22 1 32 4 23 2 -10 2 -28 0 -40z m-117 -18 c0 -16 -4 -32 -10 -35 -6 -4 -10 10 -10 35 0 25 4 39 10 35 6 -3 10 -19 10 -35z m117 -52 c-3 -7 -5 -2 -5 12 0 14 2 19 5 13 2 -7 2 -19 0 -25z m-130 -50 c-3 -8 -6 -5 -6 6 -1 11 2 17 5 13 3 -3 4 -12 1 -19z m124 -29 c-9 -22 -10 -22 -10 -3 -1 11 2 24 6 27 12 12 14 0 4 -24z m-11 -93 c0 -3 -4 -8 -10 -11 -5 -3 -10 -1 -10 4 0 6 5 11 10 11 6 0 10 -2 10 -4z m-113 -173 c-4 -3 -10 -3 -14 0 -3 4 0 7 7 7 7 0 10 -3 7 -7z m148 -183 c3 -5 4 -10 1 -10 -3 0 -8 5 -11 10 -3 6 -4 10 -1 10 3 0 8 -4 11 -10z m295 -92 c0 -6 -6 -5 -15 2 -8 7 -15 14 -15 16 0 2 7 1 15 -2 8 -4 15 -11 15 -16z m-125 -48 c3 -5 4 -10 1 -10 -3 0 -8 5 -11 10 -3 6 -4 10 -1 10 3 0 8 -4 11 -10z"/>
</g>
<g id="layer103" fill="#284e92" stroke="none">
<path d="M0 5140 l0 -5140 6000 0 6000 0 0 5140 0 5140 -6000 0 -6000 0 0 -5140z m6890 2098 c0 -111 -2 -199 -5 -197 -2 3 -5 73 -5 156 -1 84 -7 170 -12 193 -10 39 -11 40 -54 40 l-44 0 -3 -197 -2 -198 -3 203 -2 202 65 0 65 0 0 -202z m388 110 l-3 -93 59 2 c50 1 61 5 67 21 4 11 21 39 37 61 16 22 35 54 42 71 12 29 14 30 77 30 l64 0 -20 -29 c-12 -16 -21 -33 -21 -37 0 -4 -6 -15 -14 -23 -13 -16 -66 -108 -66 -116 0 -2 14 -8 32 -13 17 -4 40 -20 51 -34 22 -29 34 -112 20 -130 -6 -7 -13 -25 -17 -40 -3 -16 -13 -28 -22 -28 -8 0 -17 -6 -19 -12 -3 -7 -22 -14 -42 -16 -21 -1 -42 -7 -47 -12 -13 -13 -306 -13 -306 0 0 6 16 10 36 10 l35 0 -18 31 c-10 17 -24 33 -30 36 -10 4 -13 38 -13 123 0 69 -4 121 -10 125 -5 3 -10 42 -10 86 l0 79 71 0 71 0 -4 -92z m712 7 c0 -67 3 -87 15 -91 8 -4 15 -14 15 -24 0 -9 12 -35 28 -57 42 -60 50 -74 77 -128 14 -27 34 -65 45 -82 l20 -33 -64 0 c-51 0 -65 3 -70 18 -4 9 -25 49 -46 87 -21 39 -47 87 -56 108 -17 37 -34 49 -34 24 0 -7 -11 -28 -25 -47 -14 -19 -25 -42 -25 -51 0 -9 -7 -19 -15 -23 -8 -3 -15 -12 -15 -21 0 -9 -9 -34 -20 -55 l-20 -40 -65 0 c-67 0 -83 13 -50 40 8 7 15 18 15 25 0 7 7 18 15 25 8 7 15 21 15 31 0 11 5 19 11 19 5 0 21 24 35 53 26 55 37 74 69 121 16 24 19 43 16 107 l-3 79 66 0 66 0 0 -85z m-920 -400 c0 -12 -14 -15 -69 -15 -95 0 -101 18 -9 23 40 1 74 4 76 5 1 1 2 -5 2 -13z m648 -409 c2 -177 -7 -250 -22 -179 -4 16 -29 52 -56 78 -28 27 -50 55 -50 62 0 7 -4 13 -10 13 -5 0 -10 -16 -10 -36 0 -21 -4 -33 -10 -29 -11 7 -14 268 -3 279 4 4 41 5 83 4 l75 -3 3 -189z m470 -118 l2 -308 -77 0 -78 0 -1 153 c-1 83 -3 175 -4 204 l-3 52 -29 -27 c-15 -15 -28 -31 -28 -36 0 -9 -25 -37 -102 -112 -25 -25 -51 -58 -57 -73 -7 -14 -22 -33 -34 -40 -20 -13 -21 -13 -8 3 12 14 12 21 1 41 -7 14 -17 25 -22 25 -16 0 -8 34 17 66 14 18 25 37 25 42 0 5 16 22 35 36 19 15 35 32 35 38 0 5 11 19 25 30 14 11 25 24 25 30 0 5 11 19 25 30 14 11 25 25 25 33 0 7 11 20 25 29 14 9 25 22 25 28 0 6 15 24 33 40 28 24 39 27 87 25 l55 -2 3 -307z m-766 250 c-9 -9 -12 -7 -12 12 0 19 3 21 12 12 9 -9 9 -15 0 -24z m3 -49 c-8 -12 -272 -12 -280 1 -4 6 46 10 132 12 146 3 157 2 148 -13z m245 -229 c0 -5 -4 -10 -10 -10 -5 0 -10 5 -10 10 0 6 5 10 10 10 6 0 10 -4 10 -10z m-295 -10 c3 -5 4 -10 1 -10 -3 0 -8 5 -11 10 -3 6 -4 10 -1 10 3 0 8 -4 11 -10z m195 -254 c0 -3 -5 -8 -12 -12 -7 -4 -8 -3 -4 4 7 12 16 16 16 8z m-1493 -543 c-4 -3 -7 0 -7 7 0 7 3 10 7 7 3 -4 3 -10 0 -14z m60 -30 c-4 -3 -10 -3 -14 0 -3 4 0 7 7 7 7 0 10 -3 7 -7z m48 -33 c3 -5 4 -10 1 -10 -3 0 -8 5 -11 10 -3 6 -4 10 -1 10 3 0 8 -4 11 -10z m75 -60 c28 -27 50 -55 50 -62 0 -7 -11 -1 -24 14 -13 15 -26 24 -29 22 -3 -3 -8 4 -12 15 -3 12 -13 21 -21 21 -8 0 -14 2 -14 4 0 2 -3 11 -6 20 -10 27 5 18 56 -34z m75 -90 c3 -5 4 -10 1 -10 -3 0 -8 5 -11 10 -3 6 -4 10 -1 10 3 0 8 -4 11 -10z m35 -51 c15 -28 5 -23 -15 7 -9 15 -12 23 -6 20 6 -4 16 -16 21 -27z m37 -66 c-4 -3 -7 0 -7 7 0 7 3 10 7 7 3 -4 3 -10 0 -14z m43 -58 c0 -5 -5 -3 -10 5 -5 8 -10 20 -10 25 0 6 5 3 10 -5 5 -8 10 -19 10 -25z m565 0 c22 -2 51 -8 65 -12 14 -4 32 -7 40 -7 8 -1 23 -23 33 -51 15 -40 19 -79 20 -200 0 -82 -3 -166 -7 -185 -4 -19 -9 -42 -10 -50 -2 -8 -8 -28 -15 -43 -6 -16 -11 -32 -11 -36 0 -5 -9 -11 -20 -14 -12 -3 -17 -1 -14 5 3 5 -1 15 -9 21 -8 7 -17 21 -19 32 -2 12 -11 19 -21 19 -16 -2 -17 5 -11 70 12 131 6 303 -10 313 -20 13 -241 12 -311 -2 -73 -13 -118 -9 -74 7 22 9 23 10 7 22 -10 7 -18 17 -18 23 0 5 -17 15 -37 23 -24 8 -32 15 -23 18 8 3 26 9 40 15 14 6 30 11 35 12 6 1 12 3 15 4 7 4 36 8 99 15 30 4 57 9 60 12 5 6 69 2 196 -11z m-470 -65 c-3 -5 -12 -10 -18 -10 -7 0 -6 4 3 10 19 12 23 12 15 0z m572 -557 c-4 -3 -7 0 -7 7 0 7 3 10 7 7 3 -4 3 -10 0 -14z m-70 -70 c-4 -3 -10 -3 -14 0 -3 4 0 7 7 7 7 0 10 -3 7 -7z m213 -79 c0 -2 -7 -4 -15 -4 -8 0 -15 4 -15 10 0 5 7 7 15 4 8 -4 15 -8 15 -10z m100 -81 c0 -8 -36 16 -55 38 -16 19 -13 18 18 -5 20 -16 37 -30 37 -33z m-165 -23 c3 -5 4 -10 1 -10 -3 0 -8 5 -11 10 -3 6 -4 10 -1 10 3 0 8 -4 11 -10z m254 -52 c22 -21 41 -43 41 -49 0 -6 -14 3 -31 20 -17 17 -35 31 -41 31 -6 0 -9 3 -5 6 3 3 -6 17 -21 31 -17 16 -19 20 -6 11 12 -7 40 -30 63 -50z m-84 -88 c3 -5 4 -10 1 -10 -3 0 -8 5 -11 10 -3 6 -4 10 -1 10 3 0 8 -4 11 -10z m166 -17 c13 -16 12 -17 -3 -4 -10 7 -18 15 -18 17 0 8 8 3 21 -13z m24 -33 c3 -5 4 -10 1 -10 -3 0 -8 5 -11 10 -3 6 -4 10 -1 10 3 0 8 -4 11 -10z m29 -46 c5 -14 4 -15 -9 -4 -17 14 -19 20 -6 20 5 0 12 -7 15 -16z"/>
<path d="M7280 7122 c0 -32 -4 -62 -10 -68 -5 -5 -6 -15 0 -23 7 -12 11 -13 24 -2 12 10 37 12 86 9 84 -6 99 5 95 71 -3 60 -21 71 -117 71 l-78 0 0 -58z"/>
</g>
<g id="layer104" fill="#1c5896" stroke="none">
<path d="M0 5140 l0 -5140 6000 0 6000 0 0 5140 0 5140 -6000 0 -6000 0 0 -5140z m6416 2289 c3 -5 16 -9 28 -9 47 0 73 -54 66 -136 -8 -99 -52 -131 -190 -134 -82 -3 -88 -2 -70 10 8 5 43 10 78 10 48 0 62 3 62 15 0 18 -26 20 -34 3 -3 -7 -3 -3 0 10 5 21 3 22 -76 22 -45 0 -79 4 -76 9 3 5 34 7 68 4 75 -6 108 5 128 41 13 25 12 29 -12 53 -25 25 -30 26 -165 27 l-138 1 -3 33 c-3 26 0 32 17 32 11 0 22 4 25 9 7 11 284 12 292 0z m474 -189 l0 -199 88 -3 87 -3 3 -48 3 -47 -248 2 -248 3 -3 28 c-6 51 20 67 110 67 l78 0 0 200 0 200 65 0 65 0 0 -200z m388 105 c-2 -76 0 -94 10 -90 8 3 32 5 55 5 37 0 45 4 67 38 13 20 32 53 42 72 31 64 40 70 107 70 33 0 61 -3 61 -8 0 -4 -17 -32 -37 -62 -31 -45 -73 -118 -73 -126 0 -1 16 -11 35 -23 61 -35 80 -112 49 -190 -30 -74 -62 -84 -289 -85 l-160 -1 -3 248 -2 247 71 0 71 0 -4 -95z m712 25 c0 -65 4 -77 43 -148 24 -42 47 -84 51 -92 4 -8 18 -33 31 -55 13 -22 35 -61 49 -87 l24 -48 -65 0 -64 0 -35 73 c-20 39 -49 96 -66 125 l-30 54 -19 -39 c-10 -21 -23 -45 -28 -53 -5 -8 -25 -46 -44 -85 l-36 -70 -65 -3 c-53 -2 -66 0 -66 12 0 8 5 18 10 21 6 4 17 22 24 40 14 32 78 143 118 204 32 47 38 71 38 147 l0 74 65 0 65 0 0 -70z m-1813 -157 c-4 -3 -10 -3 -14 0 -3 4 0 7 7 7 7 0 10 -3 7 -7z m307 -188 c-4 -8 -10 -15 -14 -15 -5 0 -17 -3 -27 -6 -10 -3 -4 3 12 14 37 25 36 25 29 7z m-7 -72 c-3 -2 -16 -1 -29 3 l-23 8 25 6 c23 6 39 -4 27 -17z m-92 -3 c-3 -5 -15 -10 -25 -10 -10 0 -22 5 -25 10 -4 6 7 10 25 10 18 0 29 -4 25 -10z m1028 -222 c15 -2 17 -10 15 -53 l-3 -50 -174 -1 c-172 -2 -174 -2 -187 -25 -7 -13 -13 -43 -14 -65 0 -40 1 -42 38 -50 20 -4 93 -8 162 -8 l125 -1 3 -45 3 -45 -135 2 c-77 1 -138 -2 -141 -8 -4 -5 -18 -9 -32 -9 -25 0 -25 -1 -21 -60 2 -33 7 -62 10 -66 4 -3 87 -7 185 -7 l178 -2 0 -50 0 -50 -50 -1 c-27 0 -111 -4 -186 -9 -95 -5 -142 -4 -155 3 -15 9 4 11 84 12 95 0 102 1 102 20 0 11 -5 20 -12 20 -6 0 -19 6 -27 14 -9 8 -32 16 -51 18 -84 11 -100 32 -100 134 0 24 -4 44 -10 44 -5 0 -10 7 -10 15 0 9 -11 28 -25 43 -14 15 -25 32 -25 39 0 7 -9 13 -19 13 -12 0 -21 8 -24 23 -2 12 -6 -50 -7 -138 -3 -150 -4 -155 -11 -75 -11 133 -10 299 3 342 9 30 20 43 47 55 20 9 41 15 48 14 6 -1 15 4 19 10 5 8 58 10 193 5 102 -3 194 -7 204 -8z m304 -192 c1 -109 4 -201 7 -203 3 -3 10 5 15 19 5 13 30 45 55 71 25 26 46 52 46 57 0 5 11 17 25 26 13 9 27 23 30 32 2 10 29 43 57 74 29 32 67 74 83 93 29 34 32 35 90 33 l60 -3 3 -308 2 -308 -82 3 -83 3 0 190 c0 164 -2 190 -15 187 -8 -2 -20 -11 -27 -20 -22 -30 -67 -84 -95 -113 -16 -15 -28 -31 -28 -35 0 -8 -17 -27 -82 -91 -16 -15 -28 -33 -28 -40 0 -7 -13 -22 -30 -35 -16 -12 -30 -28 -30 -35 0 -9 -19 -13 -70 -13 l-70 0 0 303 c0 167 3 307 7 311 4 4 41 5 83 4 l75 -3 2 -199z m-1100 168 c-3 -3 -12 -4 -19 -1 -8 3 -5 6 6 6 11 1 17 -2 13 -5z m89 -70 c21 -30 34 -57 31 -60 -4 -4 -11 4 -16 18 -13 34 -60 88 -77 88 -8 0 -14 4 -14 9 0 24 43 -7 76 -55z m56 -131 c6 -13 8 -26 5 -29 -9 -9 -27 42 -26 69 1 20 2 20 6 2 2 -11 9 -30 15 -42z m218 -62 c0 -17 -18 -21 -24 -6 -3 9 0 15 9 15 8 0 15 -4 15 -9z m27 -298 c-4 -3 -10 -3 -14 0 -3 4 0 7 7 7 7 0 10 -3 7 -7z m-899 -545 c26 -17 51 -38 55 -45 4 -7 13 -13 18 -13 13 0 159 -144 159 -156 0 -5 11 -19 23 -31 13 -11 32 -38 42 -59 11 -21 30 -54 43 -72 12 -19 22 -42 22 -51 1 -37 16 -45 51 -26 41 20 114 43 160 50 19 2 57 8 84 12 81 12 261 6 318 -12 6 -2 24 -6 38 -9 21 -4 28 -13 32 -38 3 -18 11 -58 17 -88 20 -104 0 -389 -30 -425 -5 -6 -13 -29 -18 -50 -5 -22 -13 -48 -17 -57 -5 -13 -2 -18 10 -18 9 0 43 -15 74 -34 32 -19 68 -37 79 -40 11 -4 23 -13 26 -21 3 -8 12 -15 19 -15 17 0 197 -173 197 -189 0 -7 7 -14 15 -17 8 -4 15 -11 15 -16 0 -6 11 -24 25 -40 31 -36 27 -74 -11 -115 -13 -14 -24 -31 -24 -37 0 -6 -9 -17 -20 -24 -11 -7 -20 -18 -20 -24 0 -16 -91 -108 -107 -108 -7 0 -18 -9 -25 -20 -7 -11 -17 -20 -22 -20 -6 0 7 17 27 38 20 21 37 43 37 49 0 6 5 13 11 15 17 6 -7 48 -26 48 -8 0 -15 4 -15 10 0 5 -36 -15 -80 -45 -44 -31 -77 -50 -74 -42 3 8 17 20 32 28 29 16 152 135 152 148 0 5 9 15 21 22 18 13 19 17 7 39 -14 28 -163 180 -175 180 -4 0 -32 18 -61 40 -29 22 -56 40 -61 40 -5 0 -12 -11 -15 -24 -3 -13 -17 -34 -31 -47 -13 -13 -25 -27 -25 -31 0 -9 -12 -24 -86 -106 -32 -34 -60 -60 -62 -57 -3 3 15 27 40 53 90 94 105 144 53 168 -21 10 -30 6 -79 -38 -59 -53 -78 -53 -23 -1 50 49 67 69 67 80 0 6 7 13 15 17 8 3 15 12 15 19 0 8 11 35 25 59 30 54 22 66 -46 74 -24 3 -49 10 -56 16 -7 5 -17 7 -23 3 -6 -4 -19 -3 -28 1 -9 4 -65 6 -124 5 -73 -2 -108 1 -108 8 0 6 11 11 24 11 14 0 27 4 31 10 3 5 13 6 23 3 9 -3 5 4 -10 16 -16 12 -28 29 -28 36 0 16 -29 34 -48 29 -7 -1 -8 0 -2 3 6 3 -8 22 -31 44 -22 21 -38 43 -34 49 3 6 0 7 -9 4 -10 -4 -16 -19 -16 -38 -1 -26 -2 -28 -11 -13 -5 9 -10 45 -9 80 1 34 -1 80 -5 102 -3 22 -7 51 -9 65 -2 14 -4 25 -5 25 -1 0 -4 11 -6 25 -5 37 -23 80 -33 80 -5 0 -20 -9 -33 -19 -14 -10 -41 -26 -62 -34 -20 -9 -37 -21 -37 -26 0 -6 -7 -11 -15 -11 -9 0 -18 -7 -21 -15 -4 -8 -11 -15 -18 -15 -6 0 -33 -25 -60 -56 -26 -30 -51 -53 -54 -50 -3 3 22 35 56 70 75 78 81 116 22 131 -20 5 -38 -4 -87 -45 -70 -56 -87 -53 -20 4 23 20 50 43 60 51 9 8 21 15 25 15 5 0 24 14 42 30 18 17 40 30 47 30 15 0 18 36 3 45 -5 3 -17 21 -26 40 -20 42 -179 205 -218 223 -25 11 -31 10 -51 -10 -12 -13 -50 -48 -84 -78 -33 -30 -61 -60 -61 -66 0 -7 -7 -15 -16 -18 -12 -4 -9 4 10 28 14 19 26 38 26 41 0 4 7 13 15 21 15 15 10 45 -7 41 -6 -1 -13 4 -16 12 -3 8 0 11 7 7 6 -4 11 -2 11 3 0 33 -78 -7 -130 -67 -27 -31 -36 -38 -27 -20 8 15 26 37 41 49 14 11 26 26 26 34 0 7 19 29 43 49 23 20 50 43 60 51 9 8 22 15 27 15 6 0 13 7 16 15 4 8 11 15 18 15 6 0 25 11 41 25 17 13 34 24 38 25 5 0 29 -14 55 -32z m-378 -282 c0 -3 -5 -8 -12 -12 -7 -4 -8 -3 -4 4 7 12 16 16 16 8z m110 -50 c0 -3 -5 -8 -12 -12 -7 -4 -8 -3 -4 4 7 12 16 16 16 8z m55 -186 c3 -5 4 -10 1 -10 -3 0 -8 5 -11 10 -3 6 -4 10 -1 10 3 0 8 -4 11 -10z m55 -35 c20 -24 6 -28 -15 -5 -10 11 -13 20 -8 20 6 0 16 -7 23 -15z m-95 -85 c3 -5 1 -10 -4 -10 -6 0 -11 5 -11 10 0 6 2 10 4 10 3 0 8 -4 11 -10z m100 -190 c-3 -5 -12 -10 -18 -10 -7 0 -6 4 3 10 19 12 23 12 15 0z m216 -8 c-7 -2 -18 1 -23 6 -8 8 -4 9 13 5 13 -4 18 -8 10 -11z m44 -2 c3 -5 -1 -10 -10 -10 -9 0 -13 5 -10 10 3 6 8 10 10 10 2 0 7 -4 10 -10z m317 -106 c-3 -25 -8 -32 -15 -25 -7 7 -7 18 1 36 16 34 19 32 14 -11z m-187 -2 c-3 -3 -11 0 -18 7 -9 10 -8 11 6 5 10 -3 15 -9 12 -12z m100 -2 c3 -5 4 -10 1 -10 -3 0 -8 5 -11 10 -3 6 -4 10 -1 10 3 0 8 -4 11 -10z m-50 -20 c3 -5 4 -10 1 -10 -3 0 -8 5 -11 10 -3 6 -4 10 -1 10 3 0 8 -4 11 -10z m80 0 c3 -5 4 -10 1 -10 -3 0 -8 5 -11 10 -3 6 -4 10 -1 10 3 0 8 -4 11 -10z m-50 -20 c3 -5 4 -10 1 -10 -3 0 -8 5 -11 10 -3 6 -4 10 -1 10 3 0 8 -4 11 -10z m42 -47 c-4 -3 -7 0 -7 7 0 7 3 10 7 7 3 -4 3 -10 0 -14z m133 -7 c0 -3 -4 -8 -10 -11 -5 -3 -10 -1 -10 4 0 6 5 11 10 11 6 0 10 -2 10 -4z m1 -53 c13 -16 12 -17 -3 -4 -10 7 -18 15 -18 17 0 8 8 3 21 -13z m-40 -20 c13 -16 12 -17 -3 -4 -10 7 -18 15 -18 17 0 8 8 3 21 -13z m64 -13 c3 -5 4 -10 1 -10 -3 0 -8 5 -11 10 -3 6 -4 10 -1 10 3 0 8 -4 11 -10z m63 -115 c-2 -12 -7 -7 -15 16 -12 30 -11 32 3 17 9 -8 14 -23 12 -33z m-44 -21 c3 -8 2 -12 -4 -9 -6 3 -10 10 -10 16 0 14 7 11 14 -7z m36 -94 c0 -5 -2 -10 -4 -10 -3 0 -8 5 -11 10 -3 6 -1 10 4 10 6 0 11 -4 11 -10z m54 -16 c3 -8 2 -12 -4 -9 -6 3 -10 10 -10 16 0 14 7 11 14 -7z m106 -29 c-7 -9 -15 -13 -17 -11 -7 7 7 26 19 26 6 0 6 -6 -2 -15z m-103 -37 c-3 -8 -6 -5 -6 6 -1 11 2 17 5 13 3 -3 4 -12 1 -19z m53 -2 c0 -3 -4 -8 -10 -11 -5 -3 -10 -1 -10 4 0 6 5 11 10 11 6 0 10 -2 10 -4z m-15 -126 c3 -5 1 -10 -4 -10 -6 0 -11 5 -11 10 0 6 2 10 4 10 3 0 8 -4 11 -10z m-38 -27 c-4 -3 -7 0 -7 7 0 7 3 10 7 7 3 -4 3 -10 0 -14z m293 -44 c0 -6 -4 -7 -10 -4 -5 3 -10 11 -10 16 0 6 5 7 10 4 6 -3 10 -11 10 -16z m137 -136 c-4 -3 -10 -3 -14 0 -3 4 0 7 7 7 7 0 10 -3 7 -7z m147 -48 c-4 -8 -11 -15 -16 -15 -6 0 -5 6 2 15 7 8 14 15 16 15 2 0 1 -7 -2 -15z m-34 -19 c0 -3 -5 -8 -12 -12 -7 -4 -8 -3 -4 4 7 12 16 16 16 8z m-40 -31 c-7 -8 -17 -15 -23 -15 -6 0 -2 7 9 15 25 19 30 19 14 0z m-85 -235 c3 -5 4 -10 1 -10 -3 0 -8 5 -11 10 -3 6 -4 10 -1 10 3 0 8 -4 11 -10z"/>
<path d="M6145 7413 c-30 -5 -48 -20 -39 -35 5 -7 113 0 123 8 2 2 -2 10 -9 19 -12 15 -19 16 -75 8z"/>
</g>
<g id="layer105" fill="#19729a" stroke="none">
<path d="M0 5140 l0 -5140 6000 0 6000 0 0 5140 0 5140 -6000 0 -6000 0 0 -5140z m6416 2289 c3 -5 16 -9 28 -9 47 0 73 -54 66 -136 -9 -103 -53 -132 -208 -135 -96 -3 -116 -13 -114 -60 l1 -34 -19 25 c-11 14 -20 29 -20 34 0 4 -7 5 -16 2 -9 -3 -12 -2 -9 5 4 5 1 16 -5 24 -18 21 13 64 51 72 16 3 32 9 34 13 3 4 33 6 67 3 75 -6 108 5 128 41 13 25 12 29 -12 53 -25 25 -30 26 -165 27 l-138 1 -3 33 c-3 26 0 32 17 32 11 0 22 4 25 9 7 11 284 12 292 0z m474 -189 l0 -199 88 -3 87 -3 3 -48 3 -47 -248 2 -248 3 -3 28 c-6 51 20 67 110 67 l78 0 0 200 0 200 65 0 65 0 0 -200z m388 105 c-2 -76 0 -94 10 -90 8 3 32 5 55 5 37 0 45 4 67 38 13 20 32 53 42 72 31 64 40 70 107 70 33 0 61 -3 61 -8 0 -4 -17 -32 -37 -62 -31 -45 -73 -118 -73 -126 0 -1 16 -11 35 -23 61 -35 80 -112 49 -190 -30 -74 -62 -84 -289 -85 l-160 -1 -3 248 -2 247 71 0 71 0 -4 -95z m712 25 c0 -65 4 -77 43 -148 24 -42 47 -84 51 -92 4 -8 18 -33 31 -55 13 -22 35 -61 49 -87 l24 -48 -65 0 -64 0 -35 73 c-20 39 -49 96 -66 125 l-30 54 -19 -39 c-10 -21 -23 -45 -28 -53 -5 -8 -25 -46 -44 -85 l-36 -70 -65 -3 c-53 -2 -66 0 -66 12 0 8 5 18 10 21 6 4 17 22 24 40 14 32 78 143 118 204 32 47 38 71 38 147 l0 74 65 0 65 0 0 -70z m-2093 -7 c-4 -3 -7 0 -7 7 0 7 3 10 7 7 3 -4 3 -10 0 -14z m585 -368 l-4 -46 -35 7 c-22 4 -44 2 -59 -7 -20 -10 -29 -10 -44 -1 -11 7 -32 12 -48 12 -15 0 -35 9 -45 20 -9 11 -13 20 -9 20 4 0 1 4 -7 9 -9 6 31 10 109 10 68 1 129 6 134 11 6 6 10 10 11 10 0 0 -1 -20 -3 -45z m931 -267 c15 -2 17 -10 15 -53 l-3 -50 -174 -1 c-172 -2 -174 -2 -187 -25 -7 -13 -13 -43 -14 -65 0 -40 1 -42 38 -50 20 -4 93 -8 162 -8 l125 -1 3 -45 3 -45 -135 2 c-77 1 -138 -2 -141 -8 -4 -5 -18 -9 -32 -9 -25 0 -25 -1 -21 -60 2 -33 7 -62 10 -66 4 -3 87 -7 185 -7 l178 -2 0 -50 0 -50 -50 -1 c-27 0 -111 -4 -185 -8 -125 -7 -138 -7 -180 12 -102 47 -108 62 -116 280 -9 221 0 264 55 289 20 9 41 15 48 14 6 -1 15 4 19 10 5 8 58 10 193 5 102 -3 194 -7 204 -8z m304 -192 c1 -109 4 -201 7 -203 3 -3 10 5 15 19 5 13 30 45 55 71 25 26 46 52 46 57 0 5 11 17 25 26 13 9 27 23 30 32 2 10 29 43 57 74 29 32 67 74 83 93 29 34 32 35 90 33 l60 -3 3 -308 2 -308 -82 3 -83 3 0 190 c0 164 -2 190 -15 187 -8 -2 -20 -11 -27 -20 -22 -30 -67 -84 -95 -113 -16 -15 -28 -31 -28 -35 0 -8 -17 -27 -82 -91 -16 -15 -28 -33 -28 -40 0 -7 -13 -22 -30 -35 -16 -12 -30 -28 -30 -35 0 -9 -19 -13 -70 -13 l-70 0 0 303 c0 167 3 307 7 311 4 4 41 5 83 4 l75 -3 2 -199z m-1079 161 c40 -17 99 -97 108 -146 4 -20 10 -41 15 -47 12 -16 -10 -134 -24 -128 -7 2 -24 23 -39 47 -15 23 -38 53 -51 67 -13 14 -33 45 -46 70 -12 25 -36 53 -52 63 -17 9 -28 21 -25 26 7 11 -22 25 -45 22 -9 -1 -16 5 -16 13 0 8 4 13 9 10 4 -3 8 -1 8 5 0 5 -6 12 -12 15 -28 13 139 -3 170 -17z m-530 -1099 c26 -17 51 -38 55 -45 4 -7 13 -13 18 -13 13 0 159 -144 159 -156 0 -5 11 -19 23 -31 13 -11 32 -38 42 -59 11 -21 30 -54 43 -72 12 -19 22 -42 22 -51 1 -37 16 -45 51 -26 41 20 114 43 160 50 19 2 57 8 84 12 81 12 261 6 318 -12 6 -2 24 -6 38 -9 21 -4 28 -13 32 -38 3 -18 11 -58 17 -88 20 -104 0 -389 -30 -425 -5 -6 -13 -29 -18 -50 -5 -22 -13 -48 -17 -57 -5 -13 -2 -18 10 -18 9 0 43 -15 74 -34 32 -19 68 -37 79 -40 11 -4 23 -13 26 -21 3 -8 12 -15 19 -15 17 0 197 -173 197 -189 0 -7 7 -14 15 -17 8 -4 15 -11 15 -16 0 -6 11 -24 25 -40 31 -36 27 -74 -11 -115 -13 -14 -24 -31 -24 -37 0 -6 -9 -17 -20 -24 -11 -7 -20 -18 -20 -24 0 -16 -91 -108 -107 -108 -7 0 -18 -9 -25 -20 -7 -11 -19 -20 -26 -20 -7 0 -15 -7 -18 -15 -4 -8 -11 -15 -17 -15 -5 0 -24 -11 -41 -23 -17 -13 -47 -29 -66 -35 -19 -7 -49 -21 -67 -32 l-32 -19 25 -68 c13 -37 27 -75 31 -83 15 -41 10 -69 -18 -95 -32 -28 -33 -27 -19 9 9 25 -3 46 -15 26 -11 -17 -22 -11 -27 15 -3 13 -1 22 3 19 5 -3 9 0 9 5 0 6 -2 11 -4 11 -2 0 -11 3 -20 6 -11 4 -16 0 -17 -12 0 -12 -4 -8 -9 10 -5 16 -8 32 -6 35 2 3 -7 6 -20 6 -13 0 -24 -4 -24 -8 0 -5 -4 -6 -9 -3 -5 3 -7 15 -4 26 3 11 10 17 16 13 6 -3 7 -1 3 6 -6 9 -11 9 -22 0 -11 -9 -17 -9 -29 1 -8 6 -18 9 -24 6 -5 -3 -11 0 -14 6 -3 10 -7 10 -20 -1 -9 -7 -24 -10 -33 -7 -14 5 -14 8 0 21 8 8 21 12 30 9 8 -3 28 1 43 10 15 8 52 22 80 31 29 9 55 20 58 25 8 13 -58 132 -97 174 -21 21 -38 43 -38 46 0 14 -127 127 -149 133 -24 6 -47 -24 -37 -49 3 -8 1 -22 -4 -32 -15 -26 -33 -76 -31 -85 1 -5 -3 -6 -9 -2 -5 3 -10 -1 -10 -9 0 -9 -7 -16 -15 -16 -17 0 -20 16 -6 25 6 3 10 13 10 23 -1 32 8 93 15 99 11 12 6 50 -8 62 -11 10 -23 8 -56 -9 -23 -12 -44 -19 -47 -16 -8 8 -31 -18 -26 -31 3 -6 -5 -17 -17 -23 -13 -7 -20 -8 -16 -2 3 6 -1 17 -9 25 -8 9 -15 21 -15 27 0 6 -4 8 -10 5 -14 -8 -13 8 1 22 7 7 8 17 3 25 -5 7 -10 29 -10 48 -4 109 -39 194 -111 271 -46 50 -144 108 -187 113 -12 1 -27 6 -34 10 -7 4 -19 5 -27 2 -8 -3 -27 2 -44 10 -35 17 -99 13 -112 -7 -7 -11 -9 -8 -9 9 0 12 -7 25 -15 28 -8 4 -15 12 -15 20 0 17 36 19 43 2 4 -8 6 -6 7 5 3 22 4 26 19 62 6 17 17 43 23 58 6 15 8 30 5 34 -3 3 -37 -1 -74 -8 -37 -7 -79 -13 -93 -13 -14 0 -28 -4 -31 -9 -4 -6 -14 -7 -23 -4 -14 6 -15 9 -4 21 7 7 18 12 24 9 7 -2 15 1 19 6 3 6 11 9 16 6 5 -4 9 -2 9 3 0 12 49 28 110 36 14 1 28 4 33 4 4 1 0 14 -10 30 -18 30 -124 142 -134 142 -3 0 -24 17 -46 38 -45 42 -165 108 -181 99 -5 -4 -13 -19 -17 -34 -11 -45 -37 -93 -46 -87 -5 3 -9 -2 -9 -10 0 -23 -17 -19 -23 5 -5 17 -8 18 -25 8 -11 -7 -18 -18 -15 -26 3 -7 9 -10 14 -7 5 3 9 -4 9 -15 0 -25 30 -28 31 -3 0 13 2 14 6 2 3 -8 11 -18 17 -22 8 -5 7 -8 -1 -8 -7 0 -10 -7 -6 -17 5 -16 4 -16 -9 1 -8 10 -27 19 -42 19 -20 0 -24 2 -15 8 11 8 11 11 -3 20 -18 10 -22 59 -5 59 5 0 6 9 2 19 -8 27 13 37 31 15 14 -18 14 -17 4 4 -7 14 -17 21 -26 18 -13 -5 -19 5 -15 27 0 4 -14 7 -33 7 -34 0 -63 21 -52 39 8 13 -4 42 -15 35 -5 -3 -9 0 -9 6 0 8 -9 10 -25 6 -20 -5 -25 -3 -25 13 0 10 7 24 15 31 13 11 19 8 17 -10 -1 -8 45 -6 53 2 4 4 15 3 24 -2 18 -11 167 -60 180 -60 5 0 19 25 31 56 13 30 40 82 61 115 22 33 39 63 39 67 0 5 14 18 30 30 17 13 30 29 30 36 0 8 19 30 43 50 23 20 50 43 60 51 9 8 22 15 27 15 6 0 13 7 16 15 4 8 11 15 18 15 6 0 25 11 41 25 17 13 34 24 38 25 5 0 29 -14 55 -32z m-848 -423 c0 -8 -2 -15 -4 -15 -2 0 -6 7 -10 15 -3 8 -1 15 4 15 6 0 10 -7 10 -15z m81 -71 c8 -9 8 -14 1 -14 -6 0 -14 5 -17 10 -4 6 -10 8 -15 5 -4 -3 -13 1 -19 9 -9 11 -6 12 14 9 13 -3 30 -11 36 -19z m39 12 c0 -3 -5 -8 -12 -12 -7 -4 -8 -3 -4 4 7 12 16 16 16 8z m87 -223 c-4 -3 -7 0 -7 7 0 7 3 10 7 7 3 -4 3 -10 0 -14z m290 -220 c-4 -3 -7 0 -7 7 0 7 3 10 7 7 3 -4 3 -10 0 -14z m147 -124 c-3 -5 -14 -9 -26 -9 -17 0 -18 3 -8 14 12 15 44 10 34 -5z m1 -29 c3 -5 1 -10 -4 -10 -6 0 -11 5 -11 10 0 6 2 10 4 10 3 0 8 -4 11 -10z m277 -170 c11 0 22 -8 25 -20 3 -11 9 -17 14 -15 10 7 49 -30 49 -46 0 -5 4 -8 8 -5 5 3 19 -13 31 -34 22 -40 22 -40 2 -40 -22 0 -46 34 -35 51 4 8 -1 9 -16 4 -13 -4 -20 -3 -17 2 8 13 -60 76 -73 68 -5 -3 -10 -3 -11 2 0 4 -2 19 -4 33 -2 14 -1 19 1 13 3 -7 15 -13 26 -13z m-97 0 c-3 -5 -11 -10 -16 -10 -6 0 -7 5 -4 10 3 6 11 10 16 10 6 0 7 -4 4 -10z m32 -42 c-3 -8 -6 -5 -6 6 -1 11 2 17 5 13 3 -3 4 -12 1 -19z m27 -1 c2 -19 34 -50 44 -44 4 3 16 -1 27 -9 17 -13 18 -14 1 -14 -13 0 -16 -5 -12 -17 4 -11 -3 -8 -18 9 -13 15 -27 24 -32 20 -4 -4 -4 -2 -1 4 4 7 0 17 -8 24 -8 7 -15 22 -15 33 0 22 10 18 14 -6z m93 -114 c-4 -3 -10 -3 -14 0 -3 4 0 7 7 7 7 0 10 -3 7 -7z m16 -28 c4 -8 1 -17 -5 -21 -6 -4 -8 -3 -4 4 3 6 -2 15 -11 21 -16 9 -16 10 -2 11 9 0 19 -7 22 -15z m84 -2 c-4 -3 -10 -3 -14 0 -3 4 0 7 7 7 7 0 10 -3 7 -7z m-37 -17 c0 -8 6 -17 13 -19 7 -4 6 -6 -4 -6 -19 -1 -42 23 -32 32 11 12 23 8 23 -7z m36 -42 c-3 -8 -11 -14 -18 -13 -10 0 -10 2 0 6 6 2 13 17 13 31 1 18 3 21 6 9 3 -10 2 -25 -1 -33z m158 -169 c3 -8 1 -15 -4 -15 -6 0 -10 7 -10 15 0 8 2 15 4 15 2 0 6 -7 10 -15z m23 -22 c-4 -3 -7 0 -7 7 0 7 3 10 7 7 3 -4 3 -10 0 -14z m143 -123 c0 -5 -5 -10 -11 -10 -5 0 -7 5 -4 10 3 6 8 10 11 10 2 0 4 -4 4 -10z m277 -257 c-4 -3 -10 -3 -14 0 -3 4 0 7 7 7 7 0 10 -3 7 -7z m143 -132 c0 -17 -18 -21 -24 -6 -3 9 0 15 9 15 8 0 15 -4 15 -9z m0 -41 c0 -5 -2 -10 -4 -10 -3 0 -8 5 -11 10 -3 6 -1 10 4 10 6 0 11 -4 11 -10z"/>
</g>
<g id="layer106" fill="#286c94" stroke="none">
<path d="M0 5140 l0 -5140 6000 0 6000 0 0 5140 0 5140 -6000 0 -6000 0 0 -5140z m6416 2289 c3 -5 16 -9 28 -9 47 0 73 -54 66 -136 -9 -103 -53 -132 -208 -135 -96 -3 -116 -13 -114 -60 l1 -34 -19 25 c-11 14 -20 29 -20 34 0 4 -7 5 -16 2 -9 -3 -12 -2 -9 5 4 5 1 16 -5 24 -18 21 13 64 51 72 16 3 32 9 34 13 3 4 33 6 67 3 75 -6 108 5 128 41 13 25 12 29 -12 53 -25 25 -30 26 -165 27 l-138 1 -3 33 c-3 26 0 32 17 32 11 0 22 4 25 9 7 11 284 12 292 0z m474 -189 l0 -199 88 -3 87 -3 3 -48 3 -47 -248 2 -248 3 -3 28 c-6 51 20 67 110 67 l78 0 0 200 0 200 65 0 65 0 0 -200z m388 105 c-2 -76 0 -94 10 -90 8 3 32 5 55 5 37 0 45 4 67 38 13 20 32 53 42 72 31 64 40 70 107 70 33 0 61 -3 61 -8 0 -4 -17 -32 -37 -62 -31 -45 -73 -118 -73 -126 0 -1 16 -11 35 -23 61 -35 80 -112 49 -190 -30 -74 -62 -84 -289 -85 l-160 -1 -3 248 -2 247 71 0 71 0 -4 -95z m712 25 c0 -65 4 -77 43 -148 24 -42 47 -84 51 -92 4 -8 18 -33 31 -55 13 -22 35 -61 49 -87 l24 -48 -65 0 -64 0 -35 73 c-20 39 -49 96 -66 125 l-30 54 -19 -39 c-10 -21 -23 -45 -28 -53 -5 -8 -25 -46 -44 -85 l-36 -70 -65 -3 c-53 -2 -66 0 -66 12 0 8 5 18 10 21 6 4 17 22 24 40 14 32 78 143 118 204 32 47 38 71 38 147 l0 74 65 0 65 0 0 -70z m-2781 49 c62 -20 85 -36 116 -80 28 -41 29 -49 30 -149 0 -92 -3 -110 -23 -143 -12 -21 -20 -43 -17 -48 4 -5 0 -6 -8 -3 -8 3 -18 1 -21 -4 -3 -6 -15 -8 -26 -5 -11 3 -17 9 -14 14 2 5 -4 14 -15 21 -16 10 -18 15 -8 26 22 27 37 88 36 152 -1 84 -29 140 -79 157 -44 15 -137 16 -145 2 -4 -6 -14 -8 -22 -5 -9 4 -21 2 -27 -3 -7 -6 -22 6 -44 35 l-33 44 132 0 c73 0 149 -5 168 -11z m688 -56 c-4 -3 -7 0 -7 7 0 7 3 10 7 7 3 -4 3 -10 0 -14z m-342 -116 c18 -17 20 -33 23 -153 l4 -135 -49 3 -48 3 1 80 c1 44 2 124 3 179 l1 99 22 -29 c12 -16 31 -37 43 -47z m927 -252 l-4 -46 -35 7 c-22 4 -44 2 -59 -7 -20 -10 -29 -10 -44 -1 -11 7 -32 12 -48 12 -15 0 -35 9 -45 20 -9 11 -13 20 -9 20 4 0 1 4 -7 9 -9 6 31 10 109 10 68 1 129 6 134 11 6 6 10 10 11 10 0 0 -1 -20 -3 -45z m931 -267 c15 -2 17 -10 15 -53 l-3 -50 -174 -1 c-172 -2 -174 -2 -187 -25 -7 -13 -13 -43 -14 -65 0 -40 1 -42 38 -50 20 -4 93 -8 162 -8 l125 -1 3 -45 3 -45 -135 2 c-77 1 -138 -2 -141 -8 -4 -5 -18 -9 -32 -9 -25 0 -25 -1 -21 -60 2 -33 7 -62 10 -66 4 -3 87 -7 185 -7 l178 -2 0 -50 0 -50 -50 -1 c-27 0 -111 -4 -185 -8 -125 -7 -138 -7 -180 12 -102 47 -108 62 -116 280 -9 221 0 264 55 289 20 9 41 15 48 14 6 -1 15 4 19 10 5 8 58 10 193 5 102 -3 194 -7 204 -8z m304 -192 c1 -109 4 -201 7 -203 3 -3 10 5 15 19 5 13 30 45 55 71 25 26 46 52 46 57 0 5 11 17 25 26 13 9 27 23 30 32 2 10 29 43 57 74 29 32 67 74 83 93 29 34 32 35 90 33 l60 -3 3 -308 2 -308 -82 3 -83 3 0 190 c0 164 -2 190 -15 187 -8 -2 -20 -11 -27 -20 -22 -30 -67 -84 -95 -113 -16 -15 -28 -31 -28 -35 0 -8 -17 -27 -82 -91 -16 -15 -28 -33 -28 -40 0 -7 -13 -22 -30 -35 -16 -12 -30 -28 -30 -35 0 -9 -19 -13 -70 -13 l-70 0 0 303 c0 167 3 307 7 311 4 4 41 5 83 4 l75 -3 2 -199z m-2109 110 c2 -38 -1 -73 -5 -77 -5 -5 -17 7 -27 26 -11 19 -27 37 -37 40 -19 6 -23 17 -20 44 2 7 -2 10 -7 7 -5 -3 -18 4 -28 15 -18 20 -18 20 51 17 l70 -3 3 -69z m366 59 c14 -14 13 -19 -2 -44 -56 -95 -92 -161 -92 -170 0 -6 15 -18 33 -27 47 -24 75 -53 82 -85 4 -16 11 -31 16 -34 11 -8 12 -48 0 -61 -5 -5 -14 -26 -21 -46 -6 -21 -24 -47 -40 -58 -34 -24 -40 -25 -40 -5 0 9 -7 18 -15 21 -8 4 -15 15 -15 26 0 15 -5 19 -20 15 -24 -6 -24 -8 -4 32 20 40 13 97 -16 125 -17 17 -33 21 -87 21 -44 0 -68 4 -70 13 -3 7 1 10 11 6 9 -3 16 -2 16 4 0 5 -7 12 -15 16 -8 3 -15 12 -15 21 0 8 -7 15 -16 15 -8 0 -12 5 -9 10 5 8 11 7 21 -1 8 -6 27 -9 47 -5 28 5 40 18 85 92 28 47 52 90 52 95 0 5 5 9 10 9 6 0 10 7 10 15 0 21 73 20 94 0z m664 -8 c40 -17 99 -97 108 -146 4 -20 10 -41 15 -47 12 -16 -10 -134 -24 -128 -7 2 -24 23 -39 47 -15 23 -38 53 -51 67 -13 14 -33 45 -46 70 -12 25 -36 53 -52 63 -17 9 -28 21 -25 26 7 11 -22 25 -45 22 -9 -1 -16 5 -16 13 0 8 4 13 9 10 4 -3 8 -1 8 5 0 5 -6 12 -12 15 -28 13 139 -3 170 -17z m-447 -247 c10 0 19 -6 19 -13 0 -7 9 -23 20 -35 11 -12 20 -25 20 -30 0 -5 8 -16 18 -25 12 -11 18 -33 20 -68 1 -28 5 -55 8 -60 3 -5 25 -9 50 -9 43 0 49 -5 45 -37 -1 -7 15 -15 36 -18 21 -4 45 -8 53 -10 8 -1 -60 -3 -152 -4 l-168 -1 1 178 c1 97 4 167 6 155 3 -15 12 -23 24 -23z m70 -23 c-10 -9 -11 -8 -5 6 3 10 9 15 12 12 3 -3 0 -11 -7 -18z m-153 -829 c26 -17 51 -38 55 -45 4 -7 13 -13 18 -13 13 0 159 -144 159 -156 0 -5 11 -19 23 -31 13 -11 32 -38 42 -59 11 -21 30 -54 43 -72 12 -19 22 -42 22 -51 1 -37 16 -45 51 -26 41 20 114 43 160 50 19 2 57 8 84 12 81 12 261 6 318 -12 6 -2 24 -6 38 -9 21 -4 28 -13 32 -38 3 -18 11 -58 17 -88 20 -104 0 -389 -30 -425 -5 -6 -13 -29 -18 -50 -5 -22 -13 -48 -17 -57 -5 -13 -2 -18 10 -18 9 0 43 -15 74 -34 32 -19 68 -37 79 -40 11 -4 23 -13 26 -21 3 -8 12 -15 19 -15 17 0 197 -173 197 -189 0 -7 7 -14 15 -17 8 -4 15 -11 15 -16 0 -6 11 -24 25 -40 31 -36 27 -74 -11 -115 -13 -14 -24 -31 -24 -37 0 -6 -9 -17 -20 -24 -11 -7 -20 -18 -20 -24 0 -16 -91 -108 -107 -108 -7 0 -18 -9 -25 -20 -7 -11 -19 -20 -26 -20 -7 0 -15 -7 -18 -15 -4 -8 -11 -15 -17 -15 -5 0 -24 -11 -41 -23 -17 -13 -47 -29 -66 -35 -19 -7 -49 -21 -67 -32 l-32 -19 25 -68 c13 -37 27 -75 31 -83 13 -33 19 -272 9 -355 -15 -130 -29 -148 -119 -159 -27 -3 -53 -8 -58 -11 -13 -9 -211 -9 -231 0 -10 4 -24 5 -32 2 -7 -3 -18 -1 -23 4 -5 5 -25 11 -44 13 -19 2 -45 8 -59 13 -117 46 -121 45 -129 -40 -1 -5 -6 -7 -13 -5 -16 6 -21 50 -7 59 12 7 -38 39 -61 39 -17 0 -48 37 -47 55 1 12 -9 21 -28 28 -36 12 -166 139 -189 185 -10 20 -24 32 -37 32 -16 0 -19 4 -14 20 7 22 8 22 -87 24 -74 3 -89 16 -18 16 57 0 60 15 5 23 -24 3 -21 4 13 6 23 0 42 3 42 6 0 2 -11 20 -24 40 -14 20 -23 42 -21 48 7 18 -10 40 -32 42 -10 1 -35 9 -57 18 -21 10 -47 17 -57 17 -11 0 -19 4 -19 9 0 5 -11 16 -25 25 -23 15 -28 15 -77 -4 -72 -27 -71 -18 2 13 33 15 60 32 60 39 0 9 -3 8 -10 -2 -9 -13 -13 -11 -31 10 -11 14 -17 19 -13 11 5 -9 3 -12 -4 -7 -7 4 -12 15 -12 24 0 9 -13 25 -30 34 l-29 16 -17 -44 c-9 -24 -19 -43 -21 -41 -2 2 4 24 14 49 16 44 16 46 -4 74 -11 16 -27 49 -37 74 -37 96 -41 102 -88 126 -59 30 -70 30 -63 1 3 -12 2 -34 -4 -47 -9 -24 -10 -23 -10 10 -1 23 -8 42 -21 53 -11 9 -20 12 -20 7 0 -6 -5 -10 -11 -10 -6 0 -25 -10 -42 -21 -25 -17 -23 -12 11 20 44 42 52 79 14 67 -11 -4 -28 4 -47 22 -16 15 -34 27 -39 27 -5 0 -10 8 -12 18 -1 9 -35 49 -74 88 -46 45 -70 75 -66 85 3 8 1 12 -4 9 -5 -3 -19 -1 -30 5 -15 8 -19 17 -15 31 6 17 3 20 -17 17 -18 -2 -23 2 -22 18 0 16 -5 20 -22 16 -12 -2 -25 2 -29 9 -5 7 -4 10 2 6 5 -3 10 0 10 7 0 16 -41 9 -86 -16 -18 -10 -35 -17 -38 -14 -2 2 30 21 72 42 42 21 78 41 81 46 3 4 -6 29 -19 55 -13 27 -22 53 -20 59 2 6 -2 24 -8 40 -7 16 -11 35 -10 42 1 8 -1 19 -6 25 -10 14 1 315 14 372 10 46 29 58 119 74 89 16 154 14 154 -4 0 -8 5 -15 11 -15 5 0 7 5 4 10 -3 6 -1 10 6 10 6 0 9 -8 6 -20 -3 -11 -1 -20 4 -20 5 0 8 -5 6 -11 -1 -6 12 -14 28 -16 17 -2 34 -8 39 -13 5 -5 18 -5 30 1 20 10 20 10 2 -5 -16 -13 -47 -16 -148 -16 -175 0 -169 7 -164 -187 6 -187 32 -283 68 -247 4 3 36 7 73 10 37 2 72 7 78 11 6 4 50 6 98 4 l86 -3 7 100 c4 54 4 106 0 115 -3 10 0 19 8 22 8 3 13 17 12 35 -1 17 2 30 8 30 5 0 7 9 3 19 -8 27 13 37 31 15 14 -18 14 -17 4 4 -7 14 -17 21 -26 18 -13 -5 -19 5 -15 27 0 4 -14 7 -33 7 -34 0 -63 21 -52 39 8 13 -4 42 -15 35 -5 -3 -9 0 -9 6 0 8 -9 10 -25 6 -20 -5 -25 -3 -25 13 0 10 7 24 15 31 13 11 19 8 17 -10 -1 -8 45 -6 53 2 4 4 15 3 24 -2 18 -11 167 -60 180 -60 5 0 19 25 31 56 13 30 40 82 61 115 22 33 39 63 39 67 0 5 14 18 30 30 17 13 30 29 30 36 0 8 19 30 43 50 23 20 50 43 60 51 9 8 22 15 27 15 6 0 13 7 16 15 4 8 11 15 18 15 6 0 25 11 41 25 17 13 34 24 38 25 5 0 29 -14 55 -32z m-1298 -1192 c0 -3 -5 -8 -12 -12 -7 -4 -8 -3 -4 4 7 12 16 16 16 8z m160 -41 c0 -2 -10 -9 -22 -15 -22 -11 -22 -10 -4 4 21 17 26 19 26 11z m30 -14 c0 -5 16 -33 36 -62 31 -48 32 -50 5 -19 -40 47 -65 90 -52 90 6 0 11 -4 11 -9z m125 -169 c23 -27 29 -38 15 -27 -30 24 -70 64 -70 71 0 13 19 -3 55 -44z m66 -69 c13 -16 12 -17 -3 -4 -10 7 -18 15 -18 17 0 8 8 3 21 -13z m-41 -86 c0 -2 -12 -14 -27 -28 l-28 -24 24 28 c23 25 31 32 31 24z m230 -23 c0 -8 -5 -12 -10 -9 -6 4 -8 11 -5 16 9 14 15 11 15 -7z m10 -60 c0 -14 -4 -23 -9 -20 -5 3 -7 15 -4 26 7 28 13 25 13 -6z m7 -61 c-4 -3 -7 0 -7 7 0 7 3 10 7 7 3 -4 3 -10 0 -14z m63 -38 c0 -5 -5 -3 -10 5 -5 8 -10 20 -10 25 0 6 5 3 10 -5 5 -8 10 -19 10 -25z m-53 8 c-4 -3 -7 0 -7 7 0 7 3 10 7 7 3 -4 3 -10 0 -14z m33 -68 c0 -5 -5 -3 -10 5 -5 8 -10 20 -10 25 0 6 5 3 10 -5 5 -8 10 -19 10 -25z m111 -92 c13 -16 12 -17 -3 -4 -17 13 -22 21 -14 21 2 0 10 -8 17 -17z m46 -20 c-4 -3 -7 0 -7 7 0 7 3 10 7 7 3 -4 3 -10 0 -14z m68 -93 c3 -5 4 -10 1 -10 -3 0 -8 5 -11 10 -3 6 -4 10 -1 10 3 0 8 -4 11 -10z m30 -20 c3 -5 4 -10 1 -10 -3 0 -8 5 -11 10 -3 6 -4 10 -1 10 3 0 8 -4 11 -10z m30 -20 c3 -5 4 -10 1 -10 -3 0 -8 5 -11 10 -3 6 -4 10 -1 10 3 0 8 -4 11 -10z m103 -46 c4 2 13 -3 21 -11 12 -13 11 -14 -10 -8 -32 10 -99 44 -99 50 0 3 18 -4 40 -15 23 -11 44 -19 48 -16z m69 -30 c-3 -3 -12 -4 -19 -1 -8 3 -5 6 6 6 11 1 17 -2 13 -5z m-100 -11 c-4 -3 -10 -3 -14 0 -3 4 0 7 7 7 7 0 10 -3 7 -7z m78 -23 c7 -12 -2 -12 -30 0 -19 8 -19 9 2 9 12 1 25 -3 28 -9z m110 -87 l-28 -28 23 33 c12 18 24 31 27 28 3 -2 -7 -17 -22 -33z m150 -173 c33 -33 57 -60 54 -60 -2 0 -31 27 -64 60 -33 33 -57 60 -54 60 2 0 31 -27 64 -60z m-145 6 c0 -3 -5 -8 -12 -12 -7 -4 -8 -3 -4 4 7 12 16 16 16 8z m270 -112 c0 -3 -13 4 -30 16 -16 12 -30 24 -30 26 0 3 14 -4 30 -16 17 -12 30 -24 30 -26z m54 -29 c11 -8 18 -17 15 -19 -2 -3 -15 4 -29 14 -14 11 -20 20 -15 19 6 0 19 -6 29 -14z m16 -42 c0 -5 -10 -19 -21 -33 l-21 -25 18 33 c18 32 24 38 24 25z m110 -42 c0 -6 -4 -13 -10 -16 -5 -3 -10 1 -10 9 0 9 5 16 10 16 6 0 10 -4 10 -9z m-30 -51 c-6 -11 -13 -20 -16 -20 -2 0 0 9 6 20 6 11 13 20 16 20 2 0 0 -9 -6 -20z"/>
<path d="M6014 5447 c-12 -12 -49 -47 -82 -77 -34 -30 -62 -61 -62 -67 0 -7 -4 -13 -9 -13 -11 0 -81 -106 -80 -122 0 -11 66 -60 137 -103 10 -6 43 -36 75 -68 31 -32 63 -57 70 -55 6 3 18 16 25 30 7 14 29 40 50 57 20 17 45 37 55 46 9 8 21 15 25 15 5 0 24 14 42 30 18 17 40 30 47 30 15 0 18 36 3 45 -5 3 -17 21 -26 40 -28 60 -215 238 -247 235 -1 0 -12 -10 -23 -23z"/>
<path d="M5435 5110 c10 -11 20 -20 22 -20 2 0 -2 9 -9 20 -7 11 -17 20 -22 20 -5 0 -1 -9 9 -20z"/>
<path d="M5620 5064 c-6 -14 -10 -28 -10 -31 0 -17 -34 -72 -41 -67 -5 3 -9 -10 -9 -30 0 -19 6 -37 13 -39 9 -4 9 -6 -1 -6 -8 -1 -16 8 -19 19 -3 11 -9 20 -14 20 -5 0 -6 7 -3 15 3 8 3 19 -1 24 -9 15 -44 -9 -38 -26 3 -7 9 -10 14 -7 5 3 9 -5 9 -18 0 -19 -2 -20 -11 -8 -9 13 -10 13 -6 0 2 -8 13 -14 24 -12 11 1 26 -5 34 -14 11 -14 11 -18 -6 -30 -10 -8 -14 -14 -8 -14 5 0 13 -35 16 -81 4 -44 10 -85 14 -92 4 -7 6 -22 5 -34 -5 -36 13 -35 80 5 34 21 71 41 81 45 27 10 20 -9 -10 -28 -16 -10 -47 -34 -71 -53 -41 -34 -42 -36 -25 -52 10 -9 41 -24 69 -33 50 -18 51 -17 102 6 28 13 57 29 64 35 9 7 19 7 28 2 12 -7 10 -11 -7 -17 -17 -6 -20 -12 -13 -23 7 -11 10 -11 10 -2 0 7 5 10 10 7 14 -9 -7 -35 -26 -35 -8 0 -14 -3 -14 -8 0 -4 -12 -13 -27 -19 -50 -23 -121 -98 -160 -169 -43 -78 -71 -252 -43 -269 5 -3 7 -12 4 -19 -3 -8 0 -17 5 -21 6 -3 9 -10 6 -15 -12 -19 52 -126 108 -182 58 -58 175 -125 202 -115 7 3 16 3 19 -1 4 -3 41 -6 84 -7 84 -2 173 21 227 57 38 27 135 120 135 130 0 7 38 72 58 98 2 2 7 -2 12 -10 6 -9 5 -17 -2 -21 -7 -4 -7 -9 1 -13 16 -10 14 -40 -5 -79 -15 -32 -15 -39 1 -91 25 -80 40 -89 77 -46 44 53 47 57 59 84 13 29 39 42 39 21 0 -8 -4 -15 -10 -15 -5 0 -13 -12 -16 -27 -7 -28 -42 -85 -56 -91 -13 -6 -9 -42 5 -47 26 -10 262 -22 268 -13 3 5 13 6 22 2 9 -3 29 1 44 10 15 8 52 22 80 31 29 9 55 20 58 25 8 13 -58 132 -97 174 -21 21 -38 43 -38 46 0 14 -127 127 -149 133 -24 6 -47 -24 -37 -49 3 -8 1 -22 -4 -32 -15 -26 -33 -76 -31 -85 1 -5 -3 -6 -9 -2 -5 3 -10 -1 -10 -9 0 -9 -7 -16 -15 -16 -17 0 -20 16 -6 25 6 3 10 13 10 23 -1 32 8 93 15 99 11 12 6 50 -8 62 -11 10 -23 8 -56 -9 -23 -12 -44 -19 -47 -16 -8 8 -31 -18 -26 -31 3 -6 -5 -17 -17 -23 -13 -7 -20 -8 -16 -2 3 6 -1 17 -9 25 -8 9 -15 21 -15 27 0 6 -4 8 -10 5 -14 -8 -13 8 1 22 7 7 8 17 3 25 -5 7 -10 29 -10 48 -4 109 -39 194 -111 271 -46 49 -142 107 -187 114 -11 1 -29 6 -38 10 -9 4 -21 4 -26 1 -5 -3 -23 1 -40 10 -35 17 -100 14 -113 -7 -7 -11 -9 -8 -9 9 0 12 -7 25 -15 28 -8 4 -15 12 -15 20 0 17 36 19 43 2 4 -8 6 -6 7 5 3 22 4 26 19 62 6 17 17 43 23 58 6 15 8 30 5 34 -3 3 -37 -1 -74 -8 -37 -7 -79 -13 -93 -13 -14 0 -28 -4 -31 -9 -4 -6 -14 -7 -23 -4 -14 6 -15 9 -4 21 7 7 18 12 24 9 7 -2 15 1 19 6 3 6 11 9 16 6 5 -4 9 -2 9 3 0 12 49 28 110 36 14 1 28 4 33 4 4 1 0 14 -10 30 -18 30 -124 142 -134 142 -3 0 -24 17 -46 38 -38 35 -151 102 -173 102 -6 0 -15 -12 -20 -26z m425 -704 c4 -6 15 -8 26 -5 13 4 19 2 19 -9 0 -14 18 -21 43 -17 4 0 7 -4 7 -10 0 -5 4 -8 9 -4 5 3 8 18 6 33 -2 15 -2 21 1 15 3 -7 15 -13 26 -13 11 0 22 -8 25 -20 3 -11 9 -17 14 -15 10 7 49 -30 49 -46 0 -5 4 -8 8 -5 5 3 19 -13 31 -34 22 -40 22 -40 2 -40 -22 0 -46 34 -35 51 4 8 -1 9 -16 4 -13 -4 -20 -3 -17 2 3 5 -9 24 -28 42 -29 27 -38 30 -54 21 -11 -5 -24 -17 -29 -26 -7 -13 -15 -14 -44 -6 -25 7 -46 6 -79 -5 -84 -28 -132 -83 -146 -168 -13 -79 66 -186 148 -200 131 -22 228 60 229 192 0 34 -4 65 -10 68 -17 11 -11 37 8 33 11 -2 17 -12 16 -31 -1 -27 9 -36 21 -17 9 15 25 12 25 -4 0 -8 6 -17 13 -20 6 -4 2 -4 -10 -2 -13 2 -20 -1 -17 -8 2 -6 13 -12 24 -12 14 0 20 8 21 26 2 24 2 24 6 2 3 -13 -1 -30 -8 -38 -9 -11 -9 -18 -1 -26 29 -29 -1 -118 -61 -185 -51 -56 -115 -84 -205 -92 -69 -5 -82 -3 -132 20 -51 25 -154 120 -156 144 -1 19 -15 70 -25 87 -12 23 -12 65 1 73 6 3 10 16 10 28 0 35 45 119 81 153 19 18 52 41 74 52 42 22 120 29 130 12z m122 -86 c3 -8 11 -13 17 -11 7 3 20 -1 31 -9 18 -13 18 -14 1 -14 -13 0 -16 -5 -12 -17 4 -11 -3 -8 -18 9 -13 15 -27 24 -32 20 -4 -4 -4 -1 0 6 4 6 2 12 -3 12 -6 0 -11 5 -11 10 0 16 20 12 27 -6z m170 -111 c-4 -3 -10 -3 -14 0 -3 4 0 7 7 7 7 0 10 -3 7 -7z m180 -250 c-4 -3 -7 0 -7 7 0 7 3 10 7 7 3 -4 3 -10 0 -14z"/>
<path d="M6063 4333 c4 -3 10 -3 14 0 3 4 0 7 -7 7 -7 0 -10 -3 -7 -7z"/>
<path d="M6100 4300 c0 -7 3 -10 7 -7 3 4 3 10 0 14 -4 3 -7 0 -7 -7z"/>
<path d="M6429 5071 c-14 -10 -41 -26 -62 -34 -20 -9 -37 -21 -37 -26 0 -6 -7 -11 -15 -11 -9 0 -18 -7 -21 -15 -4 -8 -10 -15 -15 -15 -15 0 -189 -181 -184 -191 3 -4 18 -8 33 -7 32 0 74 -6 87 -14 6 -3 28 -11 50 -18 57 -18 132 -57 188 -96 71 -51 66 -60 67 116 0 52 -2 113 -5 135 -10 75 -12 90 -14 90 -1 0 -4 11 -6 25 -5 37 -23 80 -33 80 -5 0 -20 -9 -33 -19z"/>
<path d="M6755 5073 c-11 -2 -46 -11 -78 -20 -45 -13 -56 -20 -51 -32 6 -16 9 -34 20 -101 3 -19 7 -79 9 -134 l3 -98 109 0 c59 0 113 -5 120 -10 7 -5 21 -7 32 -3 10 3 22 2 25 -3 9 -16 71 -8 72 8 1 8 3 20 4 25 4 12 4 16 15 85 4 30 7 93 6 140 -3 145 2 134 -66 142 -57 7 -178 7 -220 1z"/>
<path d="M6085 4721 c-3 -5 9 -37 27 -70 29 -53 38 -63 73 -72 22 -6 68 -25 103 -42 l63 -31 52 19 c29 10 56 21 61 26 35 31 -265 186 -319 165 -8 -3 -17 -1 -20 4 -8 13 -32 13 -40 1z"/>
<path d="M5295 4560 c-4 -6 -21 -8 -40 -4 -22 4 -45 1 -66 -10 -17 -9 -35 -13 -39 -11 -5 3 -21 0 -37 -7 -15 -6 -33 -10 -40 -9 -26 4 -23 -24 9 -86 18 -36 45 -79 61 -95 15 -17 27 -32 27 -34 0 -6 121 -124 127 -124 3 0 16 -12 29 -26 26 -28 48 -24 39 7 -4 11 -1 26 5 34 7 8 10 21 7 30 -4 8 -2 17 3 20 6 4 10 14 10 23 0 25 53 133 99 201 54 79 54 96 2 87 -23 -3 -42 -2 -46 4 -8 13 -142 13 -150 0z"/>
<path d="M6589 4544 c-6 -8 9 -39 46 -94 30 -45 55 -87 55 -94 0 -7 9 -39 21 -72 11 -32 22 -79 25 -103 6 -54 11 -62 28 -38 7 9 18 17 24 17 7 0 19 11 28 25 9 14 23 25 30 25 8 0 17 8 21 18 3 9 20 31 37 49 56 58 66 70 66 80 0 6 7 13 15 17 8 3 15 12 15 19 0 8 11 35 25 59 30 54 22 66 -46 74 -24 3 -49 10 -55 15 -6 5 -19 7 -27 3 -9 -3 -21 -3 -27 1 -20 12 -271 11 -281 -1z"/>
<path d="M5532 4468 c-56 -82 -109 -206 -98 -233 2 -7 2 -16 -2 -20 -6 -5 -11 -95 -6 -95 1 0 27 12 58 26 40 18 61 34 68 53 5 14 25 58 43 97 23 49 33 83 30 106 -4 45 -33 108 -51 108 -7 0 -26 -19 -42 -42z"/>
<path d="M6515 4500 c-3 -5 -14 -34 -25 -65 l-19 -55 34 -65 c19 -35 37 -81 41 -100 6 -31 14 -39 66 -65 33 -17 64 -30 69 -30 12 0 12 67 -1 75 -5 3 -7 12 -4 19 3 8 0 17 -5 21 -6 3 -9 11 -5 16 3 5 -3 29 -14 52 -11 23 -22 50 -26 61 -9 26 -89 146 -98 146 -4 0 -10 -4 -13 -10z"/>
<path d="M7116 4336 c-3 -13 -17 -34 -31 -47 -13 -13 -25 -27 -25 -31 0 -10 -13 -25 -92 -112 l-63 -68 60 -56 c33 -31 65 -64 70 -73 8 -14 79 -121 90 -137 5 -6 81 41 104 64 13 13 28 24 32 24 11 0 139 128 139 139 0 5 9 15 21 22 18 13 19 17 7 39 -14 28 -163 180 -175 180 -4 0 -32 18 -61 40 -29 22 -56 40 -61 40 -5 0 -12 -11 -15 -24z"/>
<path d="M6301 3648 c-18 -12 -61 -31 -95 -43 -57 -21 -63 -26 -93 -81 -17 -32 -29 -62 -27 -66 7 -12 62 -10 69 2 4 6 14 8 23 6 37 -12 208 60 272 113 31 26 33 32 20 44 -15 14 -103 47 -124 47 -6 0 -26 -10 -45 -22z"/>
<path d="M6855 3590 c-3 -5 -1 -10 4 -10 6 0 11 5 11 10 0 6 -2 10 -4 10 -3 0 -8 -4 -11 -10z"/>
<path d="M6874 3579 c-3 -6 -17 -8 -30 -5 -32 8 -31 -2 2 -14 15 -6 22 -14 18 -22 -5 -8 -2 -9 10 -5 10 4 22 4 28 1 21 -13 -68 -34 -144 -34 -42 0 -82 -2 -90 -5 -10 -4 -13 -23 -10 -75 3 -44 0 -75 -7 -84 -7 -8 -14 -43 -16 -78 -2 -35 -6 -70 -9 -78 -19 -52 31 -81 146 -84 36 -1 70 -5 74 -9 9 -9 82 -8 144 1 40 6 46 11 57 42 7 19 12 82 12 139 1 85 4 102 15 98 10 -4 19 7 29 31 16 39 12 61 -6 43 -17 -17 -24 -13 -29 14 -3 13 -1 22 3 19 5 -3 9 -1 9 4 0 6 -7 13 -16 16 -23 9 -27 8 -20 -9 3 -8 1 -15 -4 -15 -9 0 -13 20 -13 55 0 6 -11 10 -24 10 -12 0 -23 -4 -23 -8 0 -5 -4 -6 -9 -3 -13 9 -6 42 9 38 6 -1 9 2 5 8 -5 8 -11 7 -21 -1 -11 -9 -17 -9 -29 1 -8 6 -19 9 -25 5 -5 -3 -10 -1 -10 4 0 14 -17 14 -26 0z m63 -46 c-4 -3 -10 -3 -14 0 -3 4 0 7 7 7 7 0 10 -3 7 -7z m143 -132 c0 -17 -18 -21 -24 -6 -3 9 0 15 9 15 8 0 15 -4 15 -9z"/>
<path d="M6416 3515 c-45 -31 -106 -63 -145 -75 -36 -12 -74 -25 -84 -31 -10 -5 -22 -7 -27 -4 -15 9 -60 -6 -60 -20 0 -7 11 -20 25 -29 14 -9 25 -21 25 -27 0 -11 104 -119 114 -119 3 0 16 -10 28 -23 34 -33 165 -110 177 -103 12 8 44 116 37 124 -3 3 -1 11 6 19 14 17 19 312 5 331 -13 17 -13 17 -101 -43z"/>
</g>
<g id="layer107" fill="#178f9b" stroke="none">
<path d="M0 5140 l0 -5140 6000 0 6000 0 0 5140 0 5140 -6000 0 -6000 0 0 -5140z m5283 2267 c30 -18 47 -35 47 -47 0 -10 7 -23 15 -27 20 -12 38 -116 31 -179 -7 -58 -55 -163 -73 -157 -6 2 -14 0 -17 -6 -3 -5 -15 -7 -26 -4 -11 3 -18 9 -15 13 3 5 -4 15 -15 23 -18 13 -19 16 -5 27 9 7 15 20 14 29 -1 9 0 19 1 24 1 7 2 151 1 181 -1 8 -11 27 -24 41 -22 26 -27 27 -125 27 -56 1 -105 -2 -109 -5 -3 -4 -20 12 -36 34 -17 22 -39 45 -51 50 -13 5 46 8 159 6 177 -2 181 -2 228 -30z m562 22 c4 -6 13 -8 20 -5 8 3 25 -4 38 -15 14 -10 30 -19 36 -19 6 0 11 -6 11 -14 0 -7 7 -19 15 -26 12 -10 15 -47 15 -211 l0 -199 -65 0 -65 0 0 175 c0 183 -10 234 -45 236 -59 3 -143 0 -160 -6 -11 -4 -26 -9 -32 -11 -10 -2 -13 -51 -13 -199 l0 -195 -65 0 c-55 0 -65 3 -66 18 0 9 -2 88 -3 176 -3 162 -1 174 43 256 16 30 100 49 218 50 69 0 114 -4 118 -11z m609 -9 c46 -24 68 -73 63 -141 -4 -50 -8 -61 -37 -86 -45 -38 -55 -41 -130 -43 -36 -1 -83 -4 -105 -8 -39 -7 -40 -8 -40 -51 0 -39 3 -45 24 -48 14 -2 31 -8 38 -15 13 -10 94 -7 183 8 l35 6 -3 -47 c-4 -45 -5 -46 -32 -40 -16 3 -31 2 -35 -4 -8 -15 -192 -15 -200 0 -4 6 -13 8 -21 5 -7 -3 -16 -1 -20 5 -3 6 -12 8 -19 5 -7 -2 -16 2 -19 10 -3 8 -12 14 -20 14 -20 0 -30 34 -29 100 2 120 30 142 187 150 l111 5 3 39 c2 21 -2 44 -8 50 -6 6 -68 13 -153 16 l-142 5 0 35 c0 45 12 48 195 46 107 -1 153 -5 174 -16z m436 -180 l0 -199 88 -3 87 -3 3 -48 3 -47 -248 2 -248 3 0 45 0 45 93 3 92 3 0 199 0 200 65 0 65 0 0 -200z m388 105 c-2 -76 0 -94 10 -90 8 3 32 5 55 5 37 0 45 4 67 38 13 20 32 53 42 72 31 64 40 70 107 70 33 0 61 -3 61 -8 0 -4 -17 -32 -37 -62 -31 -45 -73 -118 -73 -126 0 -1 16 -11 35 -23 61 -35 80 -112 49 -190 -30 -74 -62 -84 -289 -85 l-160 -1 -3 248 -2 247 71 0 71 0 -4 -95z m712 25 c0 -65 4 -77 43 -148 24 -42 47 -84 51 -92 4 -8 18 -33 31 -55 13 -22 35 -61 49 -87 l24 -48 -65 0 -64 0 -35 73 c-20 39 -49 96 -66 125 l-30 54 -19 -39 c-10 -21 -23 -45 -28 -53 -5 -8 -25 -46 -44 -85 l-36 -70 -65 -3 c-53 -2 -66 0 -66 12 0 8 5 18 10 21 6 4 17 22 24 40 14 32 78 143 118 204 32 47 38 71 38 147 l0 74 65 0 65 0 0 -70z m-1955 -639 c3 -5 -2 -17 -11 -26 -9 -9 -28 -38 -41 -66 -14 -27 -28 -49 -33 -49 -9 0 -74 -99 -69 -104 2 -2 26 -15 53 -28 27 -12 52 -30 56 -38 29 -59 32 -73 28 -126 -5 -53 -9 -61 -48 -96 -46 -41 -60 -46 -60 -23 0 9 -7 18 -15 21 -8 4 -15 15 -15 26 0 14 -5 19 -18 16 -15 -4 -17 3 -13 73 3 73 2 78 -20 90 -13 7 -51 13 -83 13 -38 1 -61 5 -63 14 -3 7 1 10 11 6 9 -3 16 -2 16 4 0 5 -7 12 -15 16 -8 3 -15 12 -15 21 0 8 -7 15 -16 15 -8 0 -12 5 -9 10 3 6 24 10 45 10 43 0 80 24 80 51 0 9 6 19 14 22 8 3 19 21 24 40 5 18 21 52 36 75 l26 42 75 0 c40 0 76 -4 80 -9z m530 -4 c74 -15 133 -63 175 -141 22 -42 25 -58 25 -159 0 -104 -2 -116 -30 -172 -19 -39 -40 -65 -57 -73 -16 -7 -28 -17 -28 -22 0 -7 -13 -12 -85 -28 -11 -2 -111 -6 -222 -9 l-203 -4 0 311 0 311 198 -4 c108 -2 211 -7 227 -10z m789 6 l77 -6 -3 -51 -3 -51 -174 -1 c-172 -2 -174 -2 -187 -25 -7 -13 -13 -43 -14 -66 0 -41 1 -41 41 -48 23 -4 96 -8 163 -9 l121 -1 3 -46 3 -46 -113 -2 c-62 0 -137 -4 -165 -7 l-53 -6 0 -48 c0 -78 9 -82 207 -84 l168 -1 0 -50 0 -50 -175 -8 c-244 -12 -310 3 -345 77 -14 30 -16 67 -13 249 3 245 4 246 87 272 50 15 245 20 375 8z m363 -197 c1 -109 4 -201 7 -203 3 -3 10 5 15 19 5 13 30 45 55 71 25 26 46 52 46 57 0 5 11 17 25 26 13 9 27 23 30 32 2 10 29 43 57 74 29 32 67 74 83 93 29 34 32 35 90 33 l60 -3 3 -308 2 -308 -82 3 -83 3 0 187 c0 104 -3 188 -7 188 -5 0 -12 0 -18 0 -5 0 -16 -12 -24 -27 -8 -16 -37 -52 -65 -81 -28 -29 -51 -56 -51 -60 0 -4 -25 -33 -55 -64 -30 -31 -55 -59 -55 -63 0 -3 -15 -24 -32 -45 -32 -39 -34 -40 -100 -40 l-68 0 0 303 c0 167 3 307 7 311 4 4 41 5 83 4 l75 -3 2 -199z m-2109 110 c2 -38 -1 -73 -5 -77 -5 -5 -17 7 -27 26 -11 19 -27 37 -37 40 -19 6 -23 17 -20 44 2 7 -2 10 -7 7 -5 -3 -18 4 -28 15 -18 20 -18 20 51 17 l70 -3 3 -69z m500 -1048 c26 -17 51 -38 55 -45 4 -7 13 -13 18 -13 13 0 159 -144 159 -156 0 -5 11 -19 23 -31 13 -11 32 -38 42 -59 11 -21 30 -54 43 -72 12 -19 22 -42 22 -51 1 -37 16 -45 51 -26 41 20 114 43 160 50 19 2 57 8 84 12 81 12 261 6 318 -12 6 -2 24 -6 38 -9 21 -4 28 -13 32 -38 3 -18 11 -58 17 -88 22 -112 3 -357 -34 -435 -8 -16 -16 -48 -18 -69 l-3 -39 85 -44 c47 -24 89 -51 93 -59 4 -8 14 -14 22 -14 18 0 212 -192 226 -223 5 -12 21 -37 34 -56 27 -37 24 -49 -20 -97 -14 -15 -25 -31 -25 -35 0 -10 -10 -23 -86 -106 -31 -35 -61 -63 -66 -63 -5 0 -24 -14 -41 -31 -17 -18 -45 -38 -62 -46 -16 -8 -52 -27 -80 -43 -27 -16 -58 -32 -68 -36 -21 -8 -17 -64 8 -117 9 -19 17 -45 17 -58 1 -13 6 -30 11 -37 13 -17 18 -287 6 -342 -26 -118 -25 -117 -77 -130 -66 -18 -312 -20 -399 -4 -39 7 -91 21 -115 32 -23 11 -55 22 -71 26 -29 7 -30 6 -42 -47 -3 -16 -11 -27 -17 -25 -16 6 -21 50 -7 59 12 7 -38 39 -61 39 -17 0 -48 37 -47 55 1 12 -9 21 -28 28 -36 12 -166 139 -189 185 -10 20 -24 32 -37 32 -16 0 -19 4 -14 20 7 22 8 22 -87 24 -74 3 -89 16 -18 16 57 0 60 15 5 23 -24 3 -21 4 13 6 23 0 42 3 42 6 0 3 -10 19 -21 35 -12 16 -23 39 -24 52 -1 13 -3 26 -4 31 0 4 -11 7 -23 7 -13 0 -35 6 -50 14 -15 8 -40 17 -57 21 -17 4 -31 10 -31 15 0 4 -11 15 -25 24 -23 15 -28 15 -77 -4 -72 -27 -71 -18 2 13 33 15 60 32 60 39 0 9 -3 8 -10 -2 -9 -13 -13 -11 -31 10 -11 14 -17 19 -13 11 5 -9 3 -12 -4 -7 -7 4 -12 15 -12 24 0 9 -13 25 -30 34 l-29 16 -17 -44 c-9 -24 -19 -43 -21 -40 -2 2 4 23 13 46 14 34 15 46 5 62 -23 37 -66 123 -67 133 -1 28 -25 65 -42 65 -11 0 -31 9 -45 20 -34 27 -49 26 -42 -3 3 -12 2 -34 -4 -47 -9 -24 -10 -23 -10 10 -1 23 -8 42 -21 53 -11 9 -20 12 -20 7 0 -6 -5 -10 -11 -10 -6 0 -25 -10 -42 -21 -25 -17 -23 -12 11 20 44 42 52 79 14 67 -11 -4 -28 4 -47 22 -16 15 -34 27 -39 27 -5 0 -10 8 -12 18 -1 9 -35 49 -74 88 -46 45 -70 75 -66 85 3 8 1 12 -4 9 -5 -3 -19 -1 -30 5 -15 8 -19 17 -15 31 6 17 3 20 -17 17 -18 -2 -23 2 -22 18 0 16 -5 20 -22 16 -12 -2 -25 2 -29 9 -5 7 -4 10 2 6 5 -3 10 0 10 7 0 16 -41 9 -86 -16 -18 -10 -35 -17 -38 -14 -2 2 30 21 72 42 42 21 78 40 80 43 2 4 -8 30 -21 58 -14 29 -26 63 -26 75 -1 13 -5 28 -10 35 -28 37 -28 357 0 458 10 36 44 50 148 61 111 13 191 10 324 -10 54 -9 168 -45 175 -56 12 -19 22 -10 45 38 13 26 27 54 31 62 4 8 17 34 29 57 11 22 27 44 35 47 8 3 15 12 15 20 0 9 9 20 20 26 11 6 20 17 20 24 0 18 164 166 184 166 6 0 25 11 41 25 17 13 34 24 38 25 5 0 29 -14 55 -32z m-1298 -1192 c0 -3 -5 -8 -12 -12 -7 -4 -8 -3 -4 4 7 12 16 16 16 8z m160 -41 c0 -2 -10 -9 -22 -15 -22 -11 -22 -10 -4 4 21 17 26 19 26 11z m30 -14 c0 -5 16 -33 36 -62 31 -48 32 -50 5 -19 -40 47 -65 90 -52 90 6 0 11 -4 11 -9z m125 -169 c23 -27 29 -38 15 -27 -30 24 -70 64 -70 71 0 13 19 -3 55 -44z m66 -69 c13 -16 12 -17 -3 -4 -10 7 -18 15 -18 17 0 8 8 3 21 -13z m-41 -86 c0 -2 -12 -14 -27 -28 l-28 -24 24 28 c23 25 31 32 31 24z m230 -23 c0 -8 -5 -12 -10 -9 -6 4 -8 11 -5 16 9 14 15 11 15 -7z m10 -60 c0 -14 -4 -23 -9 -20 -5 3 -7 15 -4 26 7 28 13 25 13 -6z m7 -61 c-4 -3 -7 0 -7 7 0 7 3 10 7 7 3 -4 3 -10 0 -14z m63 -38 c0 -5 -5 -3 -10 5 -5 8 -10 20 -10 25 0 6 5 3 10 -5 5 -8 10 -19 10 -25z m-53 8 c-4 -3 -7 0 -7 7 0 7 3 10 7 7 3 -4 3 -10 0 -14z m33 -68 c0 -5 -5 -3 -10 5 -5 8 -10 20 -10 25 0 6 5 3 10 -5 5 -8 10 -19 10 -25z m111 -92 c13 -16 12 -17 -3 -4 -17 13 -22 21 -14 21 2 0 10 -8 17 -17z m46 -20 c-4 -3 -7 0 -7 7 0 7 3 10 7 7 3 -4 3 -10 0 -14z m68 -93 c3 -5 4 -10 1 -10 -3 0 -8 5 -11 10 -3 6 -4 10 -1 10 3 0 8 -4 11 -10z m30 -20 c3 -5 4 -10 1 -10 -3 0 -8 5 -11 10 -3 6 -4 10 -1 10 3 0 8 -4 11 -10z m30 -20 c3 -5 4 -10 1 -10 -3 0 -8 5 -11 10 -3 6 -4 10 -1 10 3 0 8 -4 11 -10z m103 -46 c4 2 13 -3 21 -11 12 -13 11 -14 -10 -8 -32 10 -99 44 -99 50 0 3 18 -4 40 -15 23 -11 44 -19 48 -16z m69 -30 c-3 -3 -12 -4 -19 -1 -8 3 -5 6 6 6 11 1 17 -2 13 -5z m-100 -11 c-4 -3 -10 -3 -14 0 -3 4 0 7 7 7 7 0 10 -3 7 -7z m78 -23 c7 -12 -2 -12 -30 0 -19 8 -19 9 2 9 12 1 25 -3 28 -9z m110 -87 l-28 -28 23 33 c12 18 24 31 27 28 3 -2 -7 -17 -22 -33z m150 -173 c33 -33 57 -60 54 -60 -2 0 -31 27 -64 60 -33 33 -57 60 -54 60 2 0 31 -27 64 -60z m-145 6 c0 -3 -5 -8 -12 -12 -7 -4 -8 -3 -4 4 7 12 16 16 16 8z m270 -112 c0 -3 -13 4 -30 16 -16 12 -30 24 -30 26 0 3 14 -4 30 -16 17 -12 30 -24 30 -26z m54 -29 c11 -8 18 -17 15 -19 -2 -3 -15 4 -29 14 -14 11 -20 20 -15 19 6 0 19 -6 29 -14z m16 -42 c0 -5 -10 -19 -21 -33 l-20 -25 16 33 c15 30 25 41 25 25z m110 -42 c0 -6 -4 -13 -10 -16 -5 -3 -10 1 -10 9 0 9 5 16 10 16 6 0 10 -4 10 -9z m-30 -51 c-6 -11 -13 -20 -16 -20 -2 0 0 9 6 20 6 11 13 20 16 20 2 0 0 -9 -6 -20z"/>
<path d="M5334 4559 c-4 -7 -24 -9 -55 -6 -28 4 -51 2 -55 -4 -3 -6 -13 -8 -21 -5 -9 4 -21 1 -29 -4 -7 -6 -27 -12 -44 -12 -17 -1 -33 -5 -36 -10 -3 -4 -14 -8 -25 -8 -10 0 -19 -3 -19 -7 0 -18 67 -138 93 -165 15 -17 27 -32 27 -34 0 -6 121 -124 127 -124 3 0 16 -12 29 -26 26 -28 48 -24 39 7 -4 11 -1 26 5 34 7 8 9 22 6 31 -4 9 -1 23 5 30 6 7 8 17 5 23 -3 5 8 35 24 66 17 31 30 63 30 70 0 7 7 15 15 19 8 3 15 13 15 21 0 9 14 30 30 47 47 46 40 53 -41 49 -20 -2 -40 2 -44 8 -8 14 -72 14 -81 0z"/>
<path d="M5561 4487 c-5 -13 -21 -34 -35 -47 -14 -14 -26 -30 -26 -37 0 -17 -31 -84 -48 -105 -8 -9 -16 -32 -17 -50 -2 -18 -5 -33 -6 -33 -1 0 -2 -21 -3 -47 -1 -27 0 -48 2 -48 16 0 121 63 117 70 -3 5 1 24 9 42 8 18 18 44 21 58 4 14 16 34 26 46 22 24 23 77 2 109 -7 11 -13 30 -13 42 0 30 -18 30 -29 0z"/>
<path d="M6029 4506 c-2 -2 -30 -6 -62 -9 -45 -4 -70 -13 -120 -46 -81 -53 -147 -117 -171 -167 -10 -21 -23 -47 -28 -57 -5 -10 -6 -22 -3 -27 3 -5 1 -11 -5 -15 -5 -3 -7 -17 -4 -30 3 -12 1 -26 -5 -29 -6 -4 -11 -22 -11 -41 0 -19 5 -37 11 -41 6 -3 8 -17 5 -29 -3 -13 -2 -27 4 -30 5 -3 10 -13 10 -22 0 -22 37 -98 56 -113 7 -7 14 -17 14 -22 0 -13 64 -75 102 -98 49 -30 99 -51 125 -54 13 -2 25 -5 27 -7 6 -6 137 -2 156 4 8 3 40 13 70 23 30 10 62 24 71 31 8 7 19 13 22 13 4 0 31 25 62 56 49 50 63 72 95 149 10 24 23 98 25 140 1 38 -31 163 -51 192 -8 12 -14 29 -14 38 0 9 -7 18 -15 21 -8 4 -15 12 -15 18 0 16 -42 56 -58 56 -7 0 -12 4 -12 10 0 9 -59 38 -135 67 -38 14 -137 27 -146 19z m98 -118 c15 -7 33 -12 38 -13 26 -3 54 -17 59 -30 3 -8 12 -15 20 -15 31 0 113 -146 107 -192 -1 -9 3 -19 9 -23 13 -8 13 -52 -1 -60 -6 -4 -8 -14 -5 -22 4 -9 1 -22 -5 -29 -6 -7 -8 -17 -5 -22 3 -6 -1 -15 -9 -22 -8 -7 -15 -18 -15 -25 0 -15 -70 -89 -93 -98 -9 -3 -17 -11 -17 -16 0 -10 -39 -27 -54 -23 -4 2 -14 -2 -22 -9 -7 -6 -18 -8 -23 -5 -6 4 -19 1 -30 -6 -16 -10 -27 -10 -52 -1 -18 7 -36 10 -40 7 -5 -3 -35 10 -66 29 -32 18 -66 36 -76 40 -9 3 -22 18 -27 32 -5 14 -16 28 -24 31 -24 9 -56 108 -56 172 0 42 7 70 25 104 14 26 25 52 25 58 0 14 72 90 86 90 6 0 28 11 48 25 20 13 42 22 50 19 8 -3 17 -1 21 5 8 15 97 14 132 -1z"/>
<path d="M6334 3655 c-3 -8 -14 -15 -24 -15 -9 0 -28 -9 -42 -19 -25 -20 -74 -37 -95 -33 -7 2 -20 -10 -29 -25 -9 -15 -27 -43 -40 -62 -13 -19 -21 -38 -18 -43 7 -12 62 -10 69 3 4 6 14 8 22 5 8 -3 20 -3 26 1 6 4 22 8 35 9 13 2 32 9 41 17 9 8 38 23 64 33 27 10 59 28 72 40 12 12 30 24 39 27 9 4 16 14 16 23 0 10 -6 14 -14 11 -7 -3 -24 1 -35 10 -12 8 -25 12 -28 9 -4 -3 -17 1 -30 9 -21 14 -24 14 -29 0z"/>
<path d="M6442 3520 c-18 -16 -38 -30 -44 -30 -5 0 -21 -9 -35 -20 -14 -11 -32 -20 -40 -20 -7 0 -24 -7 -37 -15 -12 -8 -36 -16 -52 -17 -16 -1 -35 -6 -41 -11 -7 -5 -20 -6 -29 -3 -22 9 -64 -4 -64 -19 0 -7 11 -20 25 -29 14 -9 25 -21 25 -27 0 -12 105 -119 116 -119 3 0 13 -9 22 -19 18 -21 65 -50 118 -75 17 -8 35 -19 38 -25 17 -27 44 8 50 64 1 12 5 26 9 32 4 6 4 18 1 26 -3 8 -1 18 5 22 6 3 8 17 5 30 -3 12 -2 25 3 28 9 6 8 205 -1 215 -3 3 -6 14 -6 24 0 27 -31 22 -68 -12z"/>
</g>
<g id="layer108" fill="#3177a4" stroke="none">
<path d="M0 5140 l0 -5140 6000 0 6000 0 0 5140 0 5140 -6000 0 -6000 0 0 -5140z m4108 2213 c-1 -73 -2 -78 -5 -28 -5 69 -27 102 -77 108 -17 2 -6 4 27 5 l57 2 -2 -87z m270 -78 c-1 -91 -2 -165 -1 -165 7 0 73 77 73 85 0 6 9 16 20 23 11 7 20 17 20 23 0 16 96 129 104 122 3 -3 10 5 15 18 21 50 35 59 95 59 l56 0 -2 -247 -3 -248 -65 0 -65 0 0 163 c0 89 -2 162 -4 162 -10 0 -41 -34 -41 -45 0 -7 -11 -20 -25 -29 -14 -9 -25 -22 -25 -29 0 -7 -13 -23 -30 -35 -16 -13 -30 -28 -30 -35 0 -7 -13 -23 -30 -35 -16 -13 -30 -28 -30 -35 0 -7 -9 -18 -20 -25 -12 -7 -25 -24 -30 -37 -9 -22 -15 -25 -64 -25 -40 0 -54 3 -51 13 4 8 20 11 49 9 38 -3 46 0 70 29 19 22 24 35 17 42 -17 17 -13 37 6 37 14 0 15 2 4 13 -11 10 -14 10 -18 0 -9 -24 -28 -12 -63 37 -19 27 -38 46 -42 42 -4 -4 -9 -32 -11 -62 -2 -30 -4 34 -5 143 l-2 197 66 0 66 0 -4 -165z m905 132 c30 -18 47 -35 47 -47 0 -10 7 -23 15 -27 20 -12 38 -116 31 -178 -9 -77 -53 -160 -101 -187 -38 -22 -50 -23 -225 -23 l-185 0 -3 248 -2 249 187 -4 c185 -3 189 -3 236 -31z m562 22 c4 -6 13 -8 20 -5 8 3 25 -4 38 -15 14 -10 30 -19 36 -19 6 0 11 -6 11 -14 0 -7 7 -19 15 -26 12 -10 15 -47 15 -211 l0 -199 -65 0 -65 0 0 175 c0 183 -10 234 -45 236 -59 3 -143 0 -160 -6 -11 -4 -26 -9 -32 -11 -10 -2 -13 -51 -13 -199 l0 -195 -65 0 c-55 0 -65 3 -66 18 0 9 -2 88 -3 176 -3 162 -1 174 43 256 16 30 100 49 218 50 69 0 114 -4 118 -11z m609 -9 c46 -24 68 -73 63 -141 -4 -50 -8 -61 -37 -86 -45 -38 -55 -41 -130 -43 -36 -1 -83 -4 -105 -8 -39 -7 -40 -8 -40 -51 0 -39 3 -45 24 -48 14 -2 31 -8 38 -15 13 -10 94 -7 183 8 l35 6 -3 -47 c-4 -45 -5 -46 -32 -40 -16 3 -31 2 -35 -4 -8 -15 -192 -15 -200 0 -4 6 -13 8 -21 5 -7 -3 -16 -1 -20 5 -3 6 -12 8 -19 5 -7 -2 -16 2 -19 10 -3 8 -12 14 -20 14 -20 0 -30 34 -29 100 2 120 30 142 187 150 l111 5 3 39 c2 21 -2 44 -8 50 -6 6 -68 13 -153 16 l-142 5 0 35 c0 45 12 48 195 46 107 -1 153 -5 174 -16z m436 -180 l0 -199 88 -3 87 -3 3 -48 3 -47 -248 2 -248 3 0 45 0 45 93 3 92 3 0 199 0 200 65 0 65 0 0 -200z m388 105 c-2 -76 0 -94 10 -90 8 3 32 5 55 5 37 0 45 4 67 38 13 20 32 53 42 72 31 64 40 70 107 70 33 0 61 -3 61 -8 0 -4 -17 -32 -37 -62 -31 -45 -73 -118 -73 -126 0 -1 16 -11 35 -23 61 -35 80 -112 49 -190 -30 -74 -62 -84 -289 -85 l-160 -1 -3 248 -2 247 71 0 71 0 -4 -95z m712 25 c0 -65 4 -77 43 -148 24 -42 47 -84 51 -92 4 -8 18 -33 31 -55 13 -22 35 -61 49 -87 l24 -48 -65 0 -64 0 -35 73 c-20 39 -49 96 -66 125 l-30 54 -19 -39 c-10 -21 -23 -45 -28 -53 -5 -8 -25 -46 -44 -85 l-36 -70 -65 -3 c-53 -2 -66 0 -66 12 0 8 5 18 10 21 6 4 17 22 24 40 14 32 78 143 118 204 32 47 38 71 38 147 l0 74 65 0 65 0 0 -70z m-3884 -417 c-4 -5 -32 -8 -61 -8 -29 0 -51 3 -48 8 2 4 29 7 60 7 31 0 53 -3 49 -7z m139 -223 c4 -6 -6 -10 -22 -9 -25 0 -26 1 -8 9 11 5 21 9 22 9 1 1 5 -3 8 -9z m230 0 c3 -5 -1 -10 -10 -10 -9 0 -13 5 -10 10 3 6 8 10 10 10 2 0 7 -4 10 -10z m335 -4 c0 -8 9 -38 20 -68 l21 -53 146 2 145 2 14 26 c7 15 13 29 12 33 -1 4 3 22 9 40 l12 32 82 0 82 0 -6 -27 c-7 -34 -136 -339 -158 -373 -15 -22 -69 -154 -83 -202 -5 -16 -19 -18 -106 -18 -60 0 -100 4 -100 10 0 6 38 10 93 10 85 0 93 2 93 19 0 11 -5 19 -10 18 -5 -1 -16 10 -23 26 -8 15 -21 27 -30 27 -10 0 -13 5 -8 18 25 61 74 202 80 230 l7 32 -101 0 c-55 0 -103 -4 -106 -10 -3 -5 0 -22 8 -37 26 -50 46 -101 63 -163 16 -60 11 -62 -11 -4 -25 67 -41 95 -48 87 -4 -3 -7 1 -7 10 0 10 -7 17 -15 17 -8 0 -15 4 -15 8 0 9 -48 69 -88 109 -12 12 -22 25 -22 28 1 3 -8 18 -19 33 -24 32 -27 16 -6 -35 19 -45 19 -52 0 -27 -8 10 -15 26 -15 34 0 8 -16 46 -35 84 -19 39 -35 76 -35 83 0 10 21 13 80 13 62 0 80 -3 80 -14z m766 5 c-3 -5 3 -11 14 -14 17 -4 20 -15 22 -103 l3 -99 62 -3 c66 -3 103 15 103 49 0 9 6 19 14 22 8 3 19 21 24 40 5 18 21 52 36 75 l26 42 75 0 c79 0 95 -8 69 -35 -9 -9 -28 -38 -41 -66 -14 -27 -28 -49 -33 -49 -9 0 -74 -99 -69 -104 2 -2 26 -15 53 -28 27 -12 52 -30 56 -38 29 -59 32 -73 28 -124 -3 -35 -12 -63 -23 -76 -10 -11 -15 -20 -10 -20 18 0 -24 -35 -65 -54 -40 -18 -69 -21 -257 -24 l-213 -4 0 304 c0 168 3 308 7 311 10 10 125 8 119 -2z m989 -4 c74 -15 133 -63 175 -141 22 -42 25 -58 25 -159 0 -104 -2 -116 -30 -172 -19 -39 -40 -65 -57 -73 -16 -7 -28 -17 -28 -22 0 -7 -13 -12 -85 -28 -11 -2 -111 -6 -222 -9 l-203 -4 0 311 0 311 198 -4 c108 -2 211 -7 227 -10z m789 6 l77 -6 -3 -51 -3 -51 -174 -1 c-172 -2 -174 -2 -187 -25 -7 -13 -13 -43 -14 -66 0 -41 1 -41 41 -48 23 -4 96 -8 163 -9 l121 -1 3 -46 3 -46 -113 -2 c-62 0 -137 -4 -165 -7 l-53 -6 0 -48 c0 -78 9 -82 207 -84 l168 -1 0 -50 0 -50 -175 -8 c-244 -12 -310 3 -345 77 -14 30 -16 67 -13 249 3 245 4 246 87 272 50 15 245 20 375 8z m363 -197 c1 -109 4 -201 7 -203 3 -3 10 5 15 19 5 13 30 45 55 71 25 26 46 52 46 57 0 5 11 17 25 26 13 9 27 23 30 32 2 10 29 43 57 74 29 32 67 74 83 93 29 34 32 35 90 33 l60 -3 3 -308 2 -308 -82 3 -83 3 0 187 c0 104 -3 188 -7 188 -5 0 -12 0 -18 0 -5 0 -16 -12 -24 -27 -8 -16 -37 -52 -65 -81 -28 -29 -51 -56 -51 -60 0 -4 -25 -33 -55 -64 -30 -31 -55 -59 -55 -63 0 -3 -15 -24 -32 -45 -32 -39 -34 -40 -100 -40 l-68 0 0 303 c0 167 3 307 7 311 4 4 41 5 83 4 l75 -3 2 -199z m-3362 174 c3 -5 -1 -10 -10 -10 -9 0 -13 5 -10 10 3 6 8 10 10 10 2 0 7 -4 10 -10z m32 -17 c-4 -3 -10 -3 -14 0 -3 4 0 7 7 7 7 0 10 -3 7 -7z m-100 -65 c-33 -7 -55 -7 -70 0 -18 9 -8 11 48 10 l70 0 -48 -10z m90 -5 c-4 -3 -10 -3 -14 0 -3 4 0 7 7 7 7 0 10 -3 7 -7z m390 -160 c-4 -3 -7 0 -7 7 0 7 3 10 7 7 3 -4 3 -10 0 -14z m21 -44 c-3 -8 -7 -3 -11 10 -4 17 -3 21 5 13 5 -5 8 -16 6 -23z m-328 -23 c0 -11 -19 -15 -25 -6 -3 5 1 10 9 10 9 0 16 -2 16 -4z m42 -8 c-9 -9 -15 -9 -24 0 -9 9 -7 12 12 12 19 0 21 -3 12 -12z m306 -19 c-3 -8 -7 -3 -11 10 -4 17 -3 21 5 13 5 -5 8 -16 6 -23z m32 -74 c0 -5 -5 -3 -10 5 -5 8 -10 20 -10 25 0 6 5 3 10 -5 5 -8 10 -19 10 -25z m30 -68 c0 -5 -4 -5 -10 -2 -5 3 -10 14 -10 23 0 15 2 15 10 2 5 -8 10 -19 10 -23z m125 3 c3 -5 4 -10 1 -10 -3 0 -8 5 -11 10 -3 6 -4 10 -1 10 3 0 8 -4 11 -10z m-788 -7 c-4 -3 -10 -3 -14 0 -3 4 0 7 7 7 7 0 10 -3 7 -7z m261 0 c-10 -2 -28 -2 -40 0 -13 2 -5 4 17 4 22 1 32 -1 23 -4z m39 0 c-4 -3 -10 -3 -14 0 -3 4 0 7 7 7 7 0 10 -3 7 -7z m390 -70 c-4 -3 -7 0 -7 7 0 7 3 10 7 7 3 -4 3 -10 0 -14z m-390 -10 c-4 -3 -7 0 -7 7 0 7 3 10 7 7 3 -4 3 -10 0 -14z m-40 0 c-4 -3 -10 -3 -14 0 -3 4 0 7 7 7 7 0 10 -3 7 -7z m-312 -13 c3 -5 2 -10 -4 -10 -5 0 -13 5 -16 10 -3 6 -2 10 4 10 5 0 13 -4 16 -10z m245 0 c-20 -13 -33 -13 -25 0 3 6 14 10 23 10 15 0 15 -2 2 -10z m-137 -7 c-7 -2 -21 -2 -30 0 -10 3 -4 5 12 5 17 0 24 -2 18 -5z m1845 -525 c26 -17 51 -38 55 -45 4 -7 13 -13 18 -13 13 0 159 -144 159 -156 0 -5 11 -19 23 -31 13 -11 32 -38 42 -59 11 -21 30 -54 43 -72 12 -19 22 -42 22 -51 1 -37 16 -45 51 -26 41 20 114 43 160 50 19 2 57 8 84 12 81 12 261 6 318 -12 6 -2 24 -6 38 -9 21 -4 28 -13 32 -38 3 -18 11 -58 17 -88 22 -112 3 -357 -34 -435 -8 -16 -16 -48 -18 -69 l-3 -39 85 -44 c47 -24 89 -51 93 -59 4 -8 14 -14 22 -14 18 0 212 -192 226 -223 5 -12 21 -37 34 -56 27 -37 24 -49 -20 -97 -14 -15 -25 -31 -25 -35 0 -10 -10 -23 -86 -106 -31 -35 -61 -63 -66 -63 -5 0 -24 -14 -41 -31 -17 -18 -45 -38 -62 -46 -16 -8 -52 -27 -80 -43 -27 -16 -58 -32 -68 -36 -21 -8 -17 -64 8 -117 9 -19 17 -45 17 -58 1 -13 6 -30 11 -37 13 -17 18 -287 6 -342 -26 -118 -25 -117 -77 -130 -109 -29 -409 -16 -497 21 -16 7 -37 13 -45 14 -9 1 -25 7 -37 14 -30 15 -31 15 -38 -18 -3 -16 -25 -58 -48 -92 -23 -35 -49 -77 -57 -92 -8 -16 -22 -33 -32 -38 -10 -5 -18 -15 -18 -22 0 -16 -91 -107 -107 -107 -7 0 -18 -9 -25 -20 -7 -11 -16 -20 -21 -20 -4 0 -32 -16 -61 -36 -63 -41 -55 -43 -170 45 -106 81 -216 213 -269 323 -43 89 -57 100 -93 73 -10 -8 -29 -15 -41 -15 -12 0 -24 -4 -27 -9 -8 -12 -95 -6 -109 8 -9 10 -6 12 18 9 21 -2 30 1 30 12 0 10 -9 15 -28 14 -22 -1 -25 1 -16 13 9 11 8 12 -5 7 -9 -3 -16 -1 -16 5 0 6 -3 10 -7 10 -33 -5 -143 3 -139 10 4 5 38 9 76 9 39 0 76 5 83 10 7 6 28 12 47 14 30 3 35 7 37 30 1 15 -2 30 -7 33 -4 3 -6 14 -3 25 3 11 0 26 -6 34 -6 7 -12 29 -12 47 -1 19 -2 70 -2 115 l-2 80 -82 -4 c-49 -3 -94 0 -110 7 -16 6 -47 13 -71 15 -23 2 -45 6 -49 10 -15 15 -43 5 -43 -15 0 -11 -5 -29 -10 -39 -6 -11 -12 -42 -13 -70 -3 -49 -16 -82 -18 -44 -2 65 -6 94 -12 100 -4 4 -7 2 -7 -4 0 -7 -4 -12 -8 -12 -5 0 -9 7 -9 15 0 8 5 15 10 15 6 0 2 9 -8 20 -20 22 -39 27 -33 8 2 -6 -4 -20 -14 -30 -10 -10 -16 -23 -13 -28 4 -6 1 -10 -4 -10 -19 0 -12 42 23 138 l34 93 -22 14 c-11 7 -46 25 -76 39 -31 15 -87 51 -125 81 -39 30 -80 59 -92 65 -12 5 -30 22 -40 37 -10 15 -46 65 -80 110 -35 44 -63 84 -63 87 0 3 16 28 35 55 19 26 35 52 35 57 0 5 9 15 20 22 11 7 20 18 20 24 0 16 91 108 107 108 7 0 17 9 23 20 6 11 16 20 23 20 7 0 22 11 34 24 13 13 59 42 103 65 44 23 80 48 80 55 0 7 -9 38 -19 69 -11 30 -17 58 -14 61 3 3 0 12 -6 20 -31 37 -33 353 -3 461 10 36 44 50 148 61 111 13 191 10 324 -10 54 -9 168 -45 175 -56 12 -19 22 -10 45 38 13 26 27 54 31 62 4 8 17 34 29 57 11 22 27 44 35 47 8 3 15 12 15 20 0 9 9 20 20 26 11 6 20 17 20 24 0 18 164 166 184 166 6 0 25 11 41 25 17 13 34 24 38 25 5 0 29 -14 55 -32z m-1170 -2305 c-4 -26 -5 -25 -12 9 -5 21 -5 46 0 55 6 15 8 13 12 -9 2 -16 2 -40 0 -55z m-1 -120 c-4 -17 -4 -17 -12 0 -4 9 -4 25 0 35 8 16 8 16 12 0 3 -10 3 -26 0 -35z m133 -16 c0 -5 -4 -5 -10 -2 -5 3 -10 14 -10 23 0 15 2 15 10 2 5 -8 10 -19 10 -23z m-123 -74 c-4 -3 -7 0 -7 7 0 7 3 10 7 7 3 -4 3 -10 0 -14z m176 10 c-7 -2 -19 -2 -25 0 -7 3 -2 5 12 5 14 0 19 -2 13 -5z m82 -3 c4 -6 -7 -10 -25 -10 -18 0 -29 4 -25 10 3 6 15 10 25 10 10 0 22 -4 25 -10z m-245 -50 c0 -5 -2 -10 -4 -10 -3 0 -8 5 -11 10 -3 6 -1 10 4 10 6 0 11 -4 11 -10z m85 -60 c3 -5 4 -10 1 -10 -3 0 -8 5 -11 10 -3 6 -4 10 -1 10 3 0 8 -4 11 -10z m380 0 c-3 -5 -25 -10 -48 -9 -36 1 -38 2 -17 9 36 12 72 12 65 0z m-322 -7 c-7 -2 -19 -2 -25 0 -7 3 -2 5 12 5 14 0 19 -2 13 -5z m134 -10 c-4 -3 -10 -3 -14 0 -3 4 0 7 7 7 7 0 10 -3 7 -7z"/>
<path d="M5078 7352 l-78 -3 0 -144 c0 -79 -2 -149 -5 -157 -4 -10 14 -12 92 -10 97 3 98 3 128 36 29 32 30 37 28 117 -1 46 -2 89 -2 96 -1 19 -44 61 -66 65 -11 2 -55 2 -97 0z"/>
<path d="M7280 7121 c0 -33 -2 -65 -5 -73 -9 -22 160 -16 185 7 21 19 19 62 -6 103 -13 20 -22 22 -94 22 l-80 0 0 -59z"/>
<path d="M5615 6398 c-3 -8 -5 -48 -3 -89 l3 -74 96 0 c126 0 141 11 137 99 -3 69 2 66 -135 73 -75 4 -94 2 -98 -9z"/>
<path d="M6402 6623 l-102 -4 2 -192 3 -192 86 -3 c147 -5 193 25 208 134 10 67 -4 188 -24 217 -11 16 -65 51 -69 45 0 -1 -47 -4 -104 -5z"/>
<path d="M6010 5437 c-39 -25 -120 -102 -120 -114 0 -4 -14 -23 -32 -42 -32 -34 -68 -96 -68 -117 0 -12 73 -64 90 -64 6 0 44 -34 85 -75 40 -41 77 -75 80 -75 4 0 41 32 83 70 42 39 81 70 88 70 7 0 17 6 21 13 4 7 24 24 43 37 19 13 36 25 38 26 2 1 -8 20 -22 43 -14 22 -26 45 -26 50 0 6 -6 14 -12 18 -7 4 -31 28 -53 53 -48 55 -135 130 -149 130 -6 0 -27 -11 -46 -23z"/>
<path d="M6444 5079 c-3 -6 -26 -20 -49 -30 -23 -10 -48 -26 -55 -34 -7 -8 -18 -15 -26 -15 -7 0 -18 -9 -24 -20 -6 -11 -17 -20 -25 -20 -8 0 -18 -6 -22 -14 -4 -8 -39 -46 -76 -85 -37 -39 -65 -76 -62 -82 4 -6 13 -8 20 -5 19 7 144 -21 171 -39 13 -8 30 -15 37 -15 8 0 26 -9 40 -20 14 -11 32 -20 40 -20 8 0 17 -7 21 -15 3 -8 12 -15 19 -15 8 0 22 -9 32 -20 34 -37 33 -40 35 125 0 50 -2 108 -4 130 -7 55 -35 185 -42 196 -7 12 -21 11 -30 -2z"/>
<path d="M5125 5073 c-62 -7 -62 -5 -68 -148 -2 -44 0 -87 4 -96 4 -9 9 -36 10 -60 1 -24 5 -48 7 -54 3 -5 7 -20 8 -33 4 -31 9 -36 31 -27 10 5 24 7 31 6 8 -1 19 3 26 9 8 5 21 8 30 4 9 -3 22 -1 29 4 8 7 52 10 112 8 l100 -3 2 81 c3 141 4 150 15 163 5 7 7 20 4 29 -4 9 -1 23 5 31 7 7 9 16 6 20 -4 3 -2 12 4 19 13 16 11 17 -76 33 -70 13 -222 21 -280 14z"/>
<path d="M5617 5039 c-10 -22 -15 -44 -12 -49 3 -5 0 -12 -6 -15 -6 -4 -8 -18 -5 -30 3 -13 3 -26 -1 -28 -6 -4 -10 -288 -4 -305 1 -2 19 10 40 27 21 17 46 31 55 31 9 0 19 6 22 14 9 24 204 91 260 89 19 -1 34 2 34 6 0 4 -13 22 -30 41 -16 19 -29 41 -30 48 0 6 -4 12 -8 12 -5 0 -33 24 -63 53 -30 28 -71 61 -92 71 -20 11 -37 23 -37 28 0 8 -82 48 -98 48 -4 0 -15 -18 -25 -41z"/>
<path d="M6755 5074 c-11 -3 -46 -12 -78 -21 -45 -13 -56 -20 -51 -32 13 -35 25 -120 30 -233 l5 -98 77 -1 c106 -2 189 -10 207 -20 6 -3 24 -5 40 -5 23 1 30 6 31 21 1 11 6 45 13 75 14 63 13 297 0 306 -11 7 -245 13 -274 8z"/>
<path d="M5933 4707 c-3 -5 -11 -6 -18 -3 -7 2 -30 -4 -51 -15 -21 -10 -48 -19 -60 -19 -12 0 -33 -9 -47 -20 -14 -11 -30 -20 -35 -20 -5 0 -16 -7 -23 -16 -7 -9 -24 -20 -37 -25 -13 -5 -20 -13 -17 -19 3 -5 1 -10 -6 -10 -26 0 4 -15 32 -16 16 -1 38 -9 47 -18 15 -12 25 -14 55 -5 20 5 40 15 44 22 5 7 30 18 57 25 59 15 106 47 106 71 0 10 9 30 20 44 11 14 20 27 20 29 0 8 -82 3 -87 -5z"/>
<path d="M6123 4713 c-29 -5 -29 -21 -1 -78 16 -33 28 -45 44 -45 28 0 85 -20 105 -36 8 -8 23 -14 31 -14 9 0 18 -7 22 -15 7 -19 40 -19 56 0 7 8 27 17 46 21 39 7 45 30 11 43 -13 5 -36 20 -53 33 -34 27 -63 42 -119 59 -22 6 -45 16 -51 20 -6 5 -18 7 -27 3 -8 -3 -18 -1 -22 5 -3 6 -9 10 -13 10 -4 -1 -17 -4 -29 -6z"/>
<path d="M5334 4559 c-4 -7 -24 -9 -55 -6 -28 4 -51 2 -55 -4 -3 -5 -14 -7 -24 -4 -10 3 -21 2 -24 -3 -3 -5 -33 -15 -66 -23 -33 -7 -60 -16 -60 -19 0 -10 35 -75 52 -95 9 -11 37 -47 62 -81 25 -34 79 -91 121 -128 l75 -68 0 31 c0 16 4 32 10 36 5 3 7 12 3 20 -3 8 -2 23 3 33 4 9 9 27 10 40 2 13 14 43 28 67 15 24 26 50 26 58 0 8 7 17 15 21 8 3 15 13 15 21 0 9 14 30 30 47 47 46 40 53 -41 49 -20 -2 -40 2 -44 8 -8 14 -72 14 -81 0z"/>
<path d="M6604 4547 c-18 -10 -18 -36 1 -43 8 -4 15 -12 15 -19 0 -6 9 -20 20 -30 11 -10 20 -25 20 -33 0 -9 6 -23 14 -31 30 -35 61 -148 65 -234 l1 -29 33 27 c80 67 184 175 203 210 6 11 25 45 42 76 36 63 32 76 -29 84 -19 2 -56 9 -84 15 -62 13 -281 18 -301 7z"/>
<path d="M5561 4487 c-5 -13 -21 -34 -35 -47 -14 -14 -26 -30 -26 -37 0 -17 -31 -84 -48 -105 -8 -9 -16 -32 -17 -50 -2 -18 -5 -33 -6 -33 -1 0 -2 -21 -3 -47 -1 -43 7 -64 16 -38 2 6 13 12 25 14 35 7 84 36 78 46 -3 6 1 24 9 42 8 18 18 44 21 58 4 14 16 34 26 46 22 24 23 77 2 109 -7 11 -13 30 -13 42 0 30 -18 30 -29 0z"/>
<path d="M6029 4506 c-2 -2 -30 -6 -62 -9 -45 -4 -70 -13 -120 -46 -81 -53 -147 -117 -171 -167 -10 -21 -23 -47 -28 -57 -5 -10 -6 -22 -3 -27 3 -5 1 -11 -5 -15 -5 -3 -7 -17 -4 -30 3 -12 1 -26 -5 -29 -14 -9 -14 -73 -1 -81 6 -3 10 -15 10 -26 0 -74 100 -239 169 -279 14 -9 39 -24 54 -34 15 -10 30 -16 34 -12 4 3 17 -1 30 -9 13 -9 28 -13 33 -10 5 3 11 2 13 -3 6 -8 132 -7 157 1 8 3 40 13 70 23 30 10 62 24 71 31 8 7 19 13 22 13 4 0 31 25 62 56 49 50 63 72 95 149 10 24 23 98 25 140 1 38 -31 163 -51 192 -8 12 -14 29 -14 38 0 9 -7 18 -15 21 -8 4 -15 12 -15 18 0 16 -42 56 -58 56 -7 0 -12 4 -12 10 0 9 -59 38 -135 67 -38 14 -137 27 -146 19z m98 -118 c15 -7 33 -12 38 -13 26 -3 54 -17 59 -30 3 -8 12 -15 20 -15 31 0 113 -146 107 -192 -1 -9 3 -19 9 -23 13 -8 13 -52 -1 -60 -6 -4 -8 -14 -5 -22 4 -9 1 -22 -5 -29 -6 -7 -8 -17 -5 -22 3 -6 -1 -15 -9 -22 -8 -7 -15 -18 -15 -25 0 -15 -70 -89 -93 -98 -9 -3 -17 -11 -17 -16 0 -10 -39 -27 -54 -23 -4 2 -14 -2 -22 -9 -7 -6 -18 -8 -23 -5 -6 4 -19 1 -30 -6 -16 -10 -27 -10 -52 -1 -18 7 -36 10 -40 7 -5 -3 -35 10 -66 29 -32 18 -66 36 -76 40 -9 3 -22 18 -27 32 -5 14 -16 28 -24 31 -24 9 -56 108 -56 172 0 42 7 70 25 104 14 26 25 52 25 58 0 14 72 90 86 90 6 0 28 11 48 25 20 13 42 22 50 19 8 -3 17 -1 21 5 8 15 97 14 132 -1z"/>
<path d="M5987 4253 c-12 -6 -32 -17 -45 -22 -12 -6 -25 -19 -29 -28 -4 -10 -14 -28 -23 -40 -36 -47 -1 -213 45 -213 7 0 16 -7 19 -16 3 -9 12 -14 20 -11 7 3 26 -1 41 -9 32 -16 61 -18 70 -4 3 5 11 7 18 4 21 -8 94 51 101 83 4 15 15 43 23 61 12 25 13 36 4 45 -6 6 -11 22 -11 35 0 26 -58 102 -78 102 -7 0 -23 5 -35 12 -30 16 -94 17 -120 1z"/>
<path d="M6510 4484 c-6 -16 -17 -48 -23 -71 -10 -39 -9 -45 10 -62 22 -21 57 -113 55 -144 0 -12 17 -26 56 -45 31 -15 59 -30 60 -34 2 -5 8 -8 13 -8 11 0 12 43 1 56 -5 5 -14 36 -21 69 -14 63 -64 177 -87 196 -8 6 -14 17 -14 24 0 6 -9 20 -20 30 -19 17 -20 17 -30 -11z"/>
<path d="M7107 4321 c-18 -40 -40 -67 -140 -176 -58 -63 -63 -79 -28 -93 20 -9 111 -105 111 -119 0 -5 14 -25 30 -43 17 -18 30 -39 30 -45 0 -6 5 -16 11 -22 8 -8 30 2 80 38 38 27 71 49 74 49 2 0 31 28 64 63 33 34 69 72 80 83 18 19 20 24 9 45 -14 27 -163 179 -175 179 -4 0 -32 18 -61 40 -29 22 -56 40 -60 40 -4 0 -15 -18 -25 -39z"/>
<path d="M6617 4015 c-48 -23 -76 -58 -81 -101 -1 -11 -10 -31 -19 -44 -9 -14 -17 -32 -17 -42 0 -9 -4 -19 -9 -23 -18 -11 17 -145 35 -135 5 3 8 8 7 12 -2 5 2 7 8 5 22 -5 102 155 120 238 7 33 17 66 22 72 10 14 3 44 -10 42 -4 0 -30 -11 -56 -24z"/>
<path d="M6746 4018 c-3 -7 -7 -32 -10 -54 -3 -23 -13 -54 -21 -70 -8 -16 -15 -34 -15 -41 0 -7 -9 -29 -20 -48 -11 -20 -18 -40 -15 -45 3 -4 -2 -10 -10 -14 -8 -3 -15 -14 -15 -24 0 -10 -16 -35 -35 -55 -33 -34 -35 -42 -11 -38 5 1 16 -1 25 -5 22 -9 205 -9 220 0 6 4 24 5 40 1 17 -3 32 -2 36 5 3 5 11 8 16 5 5 -4 15 -3 22 2 6 4 17 8 22 8 6 1 25 7 43 14 33 13 40 25 22 36 -5 3 -10 15 -10 25 0 10 -13 33 -30 51 -16 18 -37 48 -45 66 -9 18 -20 33 -25 33 -4 0 -24 23 -44 50 -20 28 -47 55 -60 60 -13 5 -27 14 -31 19 -12 21 -45 33 -49 19z"/>
<path d="M6334 3655 c-3 -8 -14 -15 -24 -15 -9 0 -28 -8 -41 -19 -26 -20 -62 -33 -94 -35 -13 -1 -29 -18 -47 -51 -15 -27 -28 -55 -28 -61 0 -16 41 -25 57 -13 6 6 17 8 23 4 5 -3 15 -3 22 1 7 4 23 9 36 10 13 2 32 9 41 17 9 8 38 23 64 33 27 10 59 28 72 40 12 12 30 24 39 27 9 4 16 14 16 23 0 10 -6 14 -14 11 -7 -3 -24 1 -35 10 -12 8 -25 12 -28 9 -4 -3 -17 1 -30 9 -21 14 -24 14 -29 0z"/>
<path d="M5694 3638 c-3 -4 -16 -8 -29 -8 -13 0 -26 -4 -29 -9 -8 -12 130 -103 179 -119 64 -20 194 -50 199 -45 2 3 -6 20 -19 39 -13 20 -22 41 -19 48 5 13 -50 46 -75 46 -6 0 -39 13 -73 29 -60 29 -123 38 -134 19z"/>
<path d="M6442 3520 c-18 -16 -38 -30 -44 -30 -5 0 -21 -9 -35 -20 -14 -11 -32 -20 -40 -20 -7 0 -24 -7 -37 -15 -12 -8 -36 -16 -52 -17 -16 -1 -34 -6 -41 -11 -7 -5 -21 -6 -33 -2 -12 4 -20 2 -20 -5 0 -7 -8 -9 -20 -5 -11 3 -20 3 -20 0 0 -13 106 -127 157 -169 29 -24 49 -46 46 -50 -4 -3 3 -6 14 -6 11 0 30 -11 43 -25 13 -14 29 -25 35 -25 7 0 24 -9 38 -20 14 -11 28 -20 31 -20 8 0 27 48 30 75 1 12 5 26 9 32 4 6 4 18 1 26 -3 8 -1 18 5 22 6 3 8 17 5 30 -3 12 -2 25 3 28 9 6 8 205 -1 215 -3 3 -6 14 -6 24 0 27 -31 22 -68 -12z"/>
<path d="M6965 3510 c-4 -6 -11 -8 -16 -4 -5 3 -16 1 -23 -5 -13 -11 -22 -12 -171 -14 l-100 -2 4 -79 c2 -50 -1 -87 -9 -101 -7 -13 -10 -31 -6 -41 3 -9 1 -23 -5 -30 -6 -8 -8 -21 -5 -30 4 -9 2 -22 -4 -29 -34 -41 67 -73 240 -76 138 -2 152 2 168 52 7 22 10 43 8 47 -3 4 -6 55 -7 112 -1 58 -6 110 -11 117 -6 7 -7 17 -3 23 3 5 3 16 -2 23 -4 6 -8 18 -8 26 0 16 -41 25 -50 11z"/>
</g>
<g id="layer109" fill="#17a39e" stroke="none">
<path d="M0 5140 l0 -5140 6000 0 6000 0 0 5140 0 5140 -6000 0 -6000 0 0 -5140z m4108 2213 c-1 -73 -2 -78 -5 -28 -5 69 -27 102 -77 108 -17 2 -6 4 27 5 l57 2 -2 -87z m270 -78 c-1 -91 -2 -165 -1 -165 7 0 73 77 73 85 0 6 9 16 20 23 11 7 20 17 20 23 0 16 96 129 104 122 3 -3 10 5 15 18 21 50 35 59 95 59 l56 0 -2 -247 -3 -248 -65 0 -65 0 0 163 c0 89 -2 162 -4 162 -10 0 -41 -34 -41 -45 0 -7 -11 -20 -25 -29 -14 -9 -25 -22 -25 -29 0 -7 -13 -23 -30 -35 -16 -13 -30 -28 -30 -35 0 -7 -13 -23 -30 -35 -16 -13 -30 -28 -30 -35 0 -7 -9 -18 -20 -25 -12 -7 -25 -24 -30 -37 -9 -22 -15 -25 -64 -25 -40 0 -54 3 -51 13 4 8 20 11 49 9 38 -3 46 0 70 29 19 22 24 35 17 42 -17 17 -13 37 6 37 14 0 15 2 4 13 -11 10 -14 10 -18 0 -9 -24 -28 -12 -63 37 -19 27 -38 46 -42 42 -4 -4 -9 -32 -11 -62 -2 -30 -4 34 -5 143 l-2 197 66 0 66 0 -4 -165z m904 133 c68 -41 92 -96 93 -213 0 -116 -30 -187 -97 -226 -41 -23 -50 -24 -228 -24 l-185 0 -3 248 -2 249 187 -4 c184 -3 189 -4 235 -30z m625 4 c69 -36 73 -53 73 -277 l0 -195 -65 0 -65 0 0 180 c0 179 0 181 -25 205 -21 22 -33 25 -98 25 -60 0 -79 -4 -101 -21 l-26 -20 0 -185 0 -184 -65 0 c-55 0 -65 3 -66 18 -5 118 -4 343 2 370 19 85 87 113 269 109 107 -2 131 -6 167 -25z m525 16 c62 -18 88 -57 88 -132 0 -103 -50 -146 -172 -146 -35 0 -80 -5 -100 -11 -36 -9 -38 -12 -38 -49 0 -35 3 -39 37 -51 24 -8 72 -10 140 -6 l104 5 -3 -41 c-3 -41 -4 -42 -48 -50 -25 -4 -92 -6 -150 -5 -166 5 -210 38 -210 157 0 104 52 141 198 141 92 0 112 10 112 55 0 18 -6 37 -12 42 -7 4 -76 10 -153 13 l-140 5 0 35 c0 28 4 35 25 41 42 12 280 10 322 -3z m458 -188 l0 -199 88 -3 87 -3 3 -48 3 -47 -248 2 -248 3 0 45 0 45 93 3 92 3 0 199 0 200 65 0 65 0 0 -200z m390 110 l0 -90 53 0 53 0 50 88 50 87 67 3 c37 2 67 0 67 -3 0 -4 -25 -47 -55 -97 -30 -49 -55 -91 -55 -93 0 -2 16 -12 35 -24 90 -53 83 -210 -11 -257 -34 -16 -62 -19 -214 -19 l-175 0 -3 248 -2 247 70 0 70 0 0 -90z m710 19 c0 -68 2 -74 62 -177 105 -183 138 -241 138 -247 0 -3 -29 -5 -65 -5 l-64 0 -61 115 c-34 63 -65 115 -70 115 -5 0 -36 -52 -70 -115 l-61 -115 -65 0 c-45 0 -64 4 -64 13 0 6 43 86 95 175 l95 164 0 74 0 74 65 0 65 0 0 -71z m-3884 -416 c-4 -5 -32 -8 -61 -8 -29 0 -51 3 -48 8 2 4 29 7 60 7 31 0 53 -3 49 -7z m139 -223 c4 -6 -6 -10 -22 -9 -25 0 -26 1 -8 9 11 5 21 9 22 9 1 1 5 -3 8 -9z m230 0 c3 -5 -1 -10 -10 -10 -9 0 -13 5 -10 10 3 6 8 10 10 10 2 0 7 -4 10 -10z m335 -4 c0 -8 9 -38 20 -68 l21 -53 146 2 145 2 14 26 c7 15 13 29 12 33 -1 4 3 22 9 40 l12 32 82 0 82 0 -6 -27 c-7 -34 -136 -339 -158 -373 -15 -22 -69 -154 -83 -202 -5 -16 -19 -18 -106 -18 -60 0 -100 4 -100 10 0 6 38 10 93 10 85 0 93 2 93 19 0 11 -5 19 -10 18 -5 -1 -16 10 -23 26 -8 15 -21 27 -30 27 -10 0 -13 5 -8 18 25 61 74 202 80 230 l7 32 -101 0 c-55 0 -103 -4 -106 -10 -3 -5 0 -22 8 -37 26 -50 46 -101 63 -163 16 -60 11 -62 -11 -4 -25 67 -41 95 -48 87 -4 -3 -7 1 -7 10 0 10 -7 17 -15 17 -8 0 -15 4 -15 8 0 9 -48 69 -88 109 -12 12 -22 25 -22 28 1 3 -8 18 -19 33 -24 32 -27 16 -6 -35 19 -45 19 -52 0 -27 -8 10 -15 26 -15 34 0 8 -16 46 -35 84 -19 39 -35 76 -35 83 0 10 21 13 80 13 62 0 80 -3 80 -14z m800 -101 l5 -110 65 -3 65 -2 65 112 65 113 74 3 c41 2 78 -1 82 -5 4 -4 -25 -59 -64 -122 -66 -105 -70 -115 -53 -125 76 -45 106 -92 106 -168 0 -80 -32 -136 -95 -168 -48 -24 -59 -25 -262 -28 l-213 -4 0 304 c0 168 3 308 7 312 4 4 39 5 78 4 l70 -3 5 -110z m994 96 c53 -17 121 -83 143 -139 28 -73 25 -250 -6 -318 -53 -120 -97 -136 -383 -142 l-218 -4 0 312 0 312 213 -5 c125 -2 228 -9 251 -16z m750 12 l77 -6 -3 -51 -3 -51 -170 -3 c-159 -2 -171 -3 -187 -23 -15 -17 -27 -104 -15 -110 1 -1 74 -4 162 -8 l160 -6 3 -47 3 -48 -119 0 c-66 0 -140 -3 -166 -6 l-46 -7 0 -47 c0 -76 8 -79 206 -82 l169 -3 0 -50 0 -50 -178 -8 c-216 -10 -275 -1 -325 49 l-33 33 3 229 c3 261 3 261 87 287 50 15 245 20 375 8z m364 -185 c1 -104 6 -188 11 -188 5 0 82 86 171 190 l162 191 61 -3 62 -3 3 -308 2 -308 -82 3 -83 3 0 187 c0 102 -3 189 -6 193 -6 6 -41 -34 -253 -287 l-81 -98 -67 0 -68 0 0 303 c0 167 3 307 7 311 4 4 41 5 83 4 l75 -3 3 -187z m-3363 162 c3 -5 -1 -10 -10 -10 -9 0 -13 5 -10 10 3 6 8 10 10 10 2 0 7 -4 10 -10z m32 -17 c-4 -3 -10 -3 -14 0 -3 4 0 7 7 7 7 0 10 -3 7 -7z m-100 -65 c-33 -7 -55 -7 -70 0 -18 9 -8 11 48 10 l70 0 -48 -10z m90 -5 c-4 -3 -10 -3 -14 0 -3 4 0 7 7 7 7 0 10 -3 7 -7z m390 -160 c-4 -3 -7 0 -7 7 0 7 3 10 7 7 3 -4 3 -10 0 -14z m21 -44 c-3 -8 -7 -3 -11 10 -4 17 -3 21 5 13 5 -5 8 -16 6 -23z m-328 -23 c0 -11 -19 -15 -25 -6 -3 5 1 10 9 10 9 0 16 -2 16 -4z m42 -8 c-9 -9 -15 -9 -24 0 -9 9 -7 12 12 12 19 0 21 -3 12 -12z m306 -19 c-3 -8 -7 -3 -11 10 -4 17 -3 21 5 13 5 -5 8 -16 6 -23z m32 -74 c0 -5 -5 -3 -10 5 -5 8 -10 20 -10 25 0 6 5 3 10 -5 5 -8 10 -19 10 -25z m30 -68 c0 -5 -4 -5 -10 -2 -5 3 -10 14 -10 23 0 15 2 15 10 2 5 -8 10 -19 10 -23z m125 3 c3 -5 4 -10 1 -10 -3 0 -8 5 -11 10 -3 6 -4 10 -1 10 3 0 8 -4 11 -10z m-788 -7 c-4 -3 -10 -3 -14 0 -3 4 0 7 7 7 7 0 10 -3 7 -7z m261 0 c-10 -2 -28 -2 -40 0 -13 2 -5 4 17 4 22 1 32 -1 23 -4z m39 0 c-4 -3 -10 -3 -14 0 -3 4 0 7 7 7 7 0 10 -3 7 -7z m390 -70 c-4 -3 -7 0 -7 7 0 7 3 10 7 7 3 -4 3 -10 0 -14z m-390 -10 c-4 -3 -7 0 -7 7 0 7 3 10 7 7 3 -4 3 -10 0 -14z m-40 0 c-4 -3 -10 -3 -14 0 -3 4 0 7 7 7 7 0 10 -3 7 -7z m-312 -13 c3 -5 2 -10 -4 -10 -5 0 -13 5 -16 10 -3 6 -2 10 4 10 5 0 13 -4 16 -10z m245 0 c-20 -13 -33 -13 -25 0 3 6 14 10 23 10 15 0 15 -2 2 -10z m-137 -7 c-7 -2 -21 -2 -30 0 -10 3 -4 5 12 5 17 0 24 -2 18 -5z m1871 -543 c130 -90 250 -230 325 -378 26 -51 36 -62 49 -57 109 47 320 81 430 70 64 -6 158 -21 193 -31 23 -6 40 -92 46 -234 6 -134 -10 -252 -48 -360 -10 -30 -19 -57 -19 -61 0 -4 33 -24 72 -44 40 -20 100 -56 134 -80 77 -55 220 -208 256 -273 l28 -49 -39 -59 c-87 -133 -233 -263 -376 -334 -39 -19 -72 -36 -74 -37 -1 -1 6 -30 17 -65 11 -35 26 -88 34 -118 18 -75 16 -358 -3 -425 -13 -46 -17 -50 -59 -63 -65 -20 -285 -27 -377 -12 -66 10 -171 40 -225 64 -12 6 -18 1 -23 -22 -3 -17 -25 -59 -48 -93 -23 -35 -49 -77 -57 -92 -8 -16 -22 -33 -32 -38 -10 -5 -18 -15 -18 -22 0 -16 -91 -107 -107 -107 -7 0 -18 -9 -25 -20 -7 -11 -16 -20 -21 -20 -4 0 -32 -16 -61 -36 -63 -41 -55 -43 -170 45 -106 81 -216 213 -269 323 -43 89 -57 100 -93 73 -10 -8 -29 -15 -41 -15 -12 0 -24 -4 -27 -9 -8 -12 -95 -6 -109 8 -9 10 -6 12 18 9 21 -2 30 1 30 12 0 10 -9 15 -28 14 -22 -1 -25 1 -16 13 9 11 8 12 -5 7 -9 -3 -16 -1 -16 5 0 6 -3 10 -7 10 -33 -5 -143 3 -139 10 4 5 38 9 76 9 39 0 76 5 83 10 7 6 28 12 47 14 30 3 35 7 37 30 1 15 -2 30 -7 33 -4 3 -6 14 -3 25 3 11 0 26 -6 34 -6 7 -12 29 -12 47 -1 19 -2 70 -2 115 l-2 80 -82 -4 c-49 -3 -94 0 -110 7 -16 6 -47 13 -71 15 -23 2 -45 6 -49 10 -15 15 -43 5 -43 -15 0 -11 -5 -29 -10 -39 -6 -11 -12 -42 -13 -70 -3 -49 -16 -82 -18 -44 -2 65 -6 94 -12 100 -4 4 -7 2 -7 -4 0 -7 -4 -12 -8 -12 -5 0 -9 7 -9 15 0 8 5 15 10 15 6 0 2 9 -8 20 -20 22 -39 27 -33 8 2 -6 -4 -20 -14 -30 -10 -10 -16 -23 -13 -28 4 -6 1 -10 -4 -10 -19 0 -12 42 23 138 l34 93 -22 14 c-11 7 -46 25 -76 39 -31 15 -87 51 -125 81 -39 30 -80 59 -92 65 -12 5 -30 22 -40 37 -10 15 -46 65 -80 110 -35 44 -63 84 -63 87 0 3 16 28 35 55 19 26 35 52 35 57 0 5 9 15 20 22 11 7 20 18 20 24 0 16 91 108 107 108 7 0 17 9 23 20 6 11 16 20 23 20 7 0 22 11 34 24 13 13 59 42 103 65 44 23 80 47 80 54 0 7 -11 46 -25 88 -47 150 -57 352 -22 499 11 50 16 56 48 67 73 24 229 35 330 24 80 -9 215 -41 279 -65 11 -5 25 13 51 66 52 104 145 225 230 298 73 63 155 120 172 120 5 0 41 -23 81 -50z m-1196 -2287 c-4 -26 -5 -25 -12 9 -5 21 -5 46 0 55 6 15 8 13 12 -9 2 -16 2 -40 0 -55z m-1 -120 c-4 -17 -4 -17 -12 0 -4 9 -4 25 0 35 8 16 8 16 12 0 3 -10 3 -26 0 -35z m133 -16 c0 -5 -4 -5 -10 -2 -5 3 -10 14 -10 23 0 15 2 15 10 2 5 -8 10 -19 10 -23z m-123 -74 c-4 -3 -7 0 -7 7 0 7 3 10 7 7 3 -4 3 -10 0 -14z m176 10 c-7 -2 -19 -2 -25 0 -7 3 -2 5 12 5 14 0 19 -2 13 -5z m82 -3 c4 -6 -7 -10 -25 -10 -18 0 -29 4 -25 10 3 6 15 10 25 10 10 0 22 -4 25 -10z m-245 -50 c0 -5 -2 -10 -4 -10 -3 0 -8 5 -11 10 -3 6 -1 10 4 10 6 0 11 -4 11 -10z m85 -60 c3 -5 4 -10 1 -10 -3 0 -8 5 -11 10 -3 6 -4 10 -1 10 3 0 8 -4 11 -10z m380 0 c-3 -5 -25 -10 -48 -9 -36 1 -38 2 -17 9 36 12 72 12 65 0z m-322 -7 c-7 -2 -19 -2 -25 0 -7 3 -2 5 12 5 14 0 19 -2 13 -5z m134 -10 c-4 -3 -10 -3 -14 0 -3 4 0 7 7 7 7 0 10 -3 7 -7z"/>
<path d="M4683 6693 c4 -3 10 -3 14 0 3 4 0 7 -7 7 -7 0 -10 -3 -7 -7z"/>
<path d="M4760 6590 c0 -5 5 -10 10 -10 6 0 10 5 10 10 0 6 -4 10 -10 10 -5 0 -10 -4 -10 -10z"/>
<path d="M4840 6489 c0 -5 5 -7 10 -4 6 3 10 8 10 11 0 2 -4 4 -10 4 -5 0 -10 -5 -10 -11z"/>
</g>
<g id="layer110" fill="#389da3" stroke="none">
<path d="M0 5140 l0 -5140 6000 0 6000 0 0 5140 0 5140 -6000 0 -6000 0 0 -5140z m4108 2053 l-3 -248 -55 0 -55 0 3 248 3 247 55 0 54 0 -2 -247z m270 82 c-1 -91 -2 -165 -1 -165 7 0 73 77 73 85 0 6 9 16 20 23 11 7 20 17 20 23 0 16 96 129 104 122 3 -3 10 5 15 18 21 50 35 59 95 59 l56 0 -2 -247 -3 -248 -65 0 -65 0 0 163 c0 89 -2 162 -4 162 -10 0 -41 -34 -41 -45 0 -7 -11 -20 -25 -29 -14 -9 -25 -22 -25 -29 0 -7 -13 -23 -30 -35 -16 -13 -30 -28 -30 -35 0 -7 -13 -23 -30 -35 -16 -13 -30 -28 -30 -35 0 -7 -9 -18 -20 -25 -12 -7 -25 -24 -30 -37 -8 -22 -15 -25 -62 -25 l-53 0 3 250 3 250 65 0 66 0 -4 -165z m904 133 c68 -41 92 -96 93 -213 0 -116 -30 -187 -97 -226 -41 -23 -50 -24 -228 -24 l-185 0 -3 248 -2 249 187 -4 c184 -3 189 -4 235 -30z m625 4 c69 -36 73 -53 73 -277 l0 -195 -65 0 -65 0 0 180 c0 179 0 181 -25 205 -21 22 -33 25 -98 25 -60 0 -79 -4 -101 -21 l-26 -20 0 -185 0 -184 -65 0 c-55 0 -65 3 -66 18 -5 118 -4 343 2 370 19 85 87 113 269 109 107 -2 131 -6 167 -25z m525 16 c62 -18 88 -57 88 -132 0 -103 -50 -146 -172 -146 -35 0 -80 -5 -100 -11 -36 -9 -38 -12 -38 -49 0 -35 3 -39 37 -51 24 -8 72 -10 140 -6 l104 5 -3 -41 c-3 -41 -4 -42 -48 -50 -25 -4 -92 -6 -150 -5 -166 5 -210 38 -210 157 0 104 52 141 198 141 92 0 112 10 112 55 0 18 -6 37 -12 42 -7 4 -76 10 -153 13 l-140 5 0 35 c0 28 4 35 25 41 42 12 280 10 322 -3z m458 -188 l0 -199 88 -3 87 -3 3 -48 3 -47 -248 2 -248 3 0 45 0 45 93 3 92 3 0 199 0 200 65 0 65 0 0 -200z m390 110 l0 -90 53 0 53 0 50 88 50 87 67 3 c37 2 67 0 67 -3 0 -4 -25 -47 -55 -97 -30 -49 -55 -91 -55 -93 0 -2 16 -12 35 -24 90 -53 83 -210 -11 -257 -34 -16 -62 -19 -214 -19 l-175 0 -3 248 -2 247 70 0 70 0 0 -90z m710 19 c0 -68 2 -74 62 -177 105 -183 138 -241 138 -247 0 -3 -29 -5 -65 -5 l-64 0 -61 115 c-34 63 -65 115 -70 115 -5 0 -36 -52 -70 -115 l-61 -115 -65 0 c-45 0 -64 4 -64 13 0 6 43 86 95 175 l95 164 0 74 0 74 65 0 65 0 0 -71z m-3690 -652 c25 -2 58 -9 73 -16 36 -14 32 -15 63 14 19 18 31 22 38 15 5 -5 23 -10 38 -10 l28 0 0 -157 0 -158 -27 -12 c-18 -9 -30 -10 -39 -2 -8 7 -14 7 -19 -1 -5 -9 -10 -9 -18 -1 -6 6 -48 11 -94 11 l-83 0 0 40 0 40 69 0 c77 0 81 3 81 73 0 69 -5 71 -132 73 l-113 1 -31 -31 c-27 -27 -33 -42 -39 -99 -11 -101 2 -191 31 -227 35 -41 67 -47 237 -44 l147 3 0 -45 c0 -25 -4 -43 -9 -40 -5 3 -31 1 -57 -5 -57 -12 -292 -18 -314 -7 -8 3 -30 12 -47 18 -55 21 -109 89 -123 156 -18 85 -9 247 17 304 21 48 70 96 106 105 47 12 153 21 162 14 6 -4 30 -9 55 -12z m510 9 c0 -8 9 -38 20 -68 l21 -53 146 2 145 2 14 26 c7 15 13 29 12 33 -1 4 3 22 9 40 l12 32 82 0 82 0 -6 -27 c-7 -34 -136 -339 -158 -373 -15 -22 -69 -154 -83 -202 -5 -16 -19 -18 -106 -18 -75 0 -100 3 -100 13 0 7 -11 35 -24 63 -13 27 -47 108 -76 179 -28 72 -58 140 -66 152 -8 12 -14 28 -14 35 0 7 -16 44 -35 82 -19 39 -35 76 -35 83 0 10 21 13 80 13 62 0 80 -3 80 -14z m800 -101 l5 -110 65 -3 65 -2 65 112 65 113 74 3 c41 2 78 -1 82 -5 4 -4 -25 -59 -64 -122 -66 -105 -70 -115 -53 -125 76 -45 106 -92 106 -168 0 -80 -32 -136 -95 -168 -48 -24 -59 -25 -262 -28 l-213 -4 0 304 c0 168 3 308 7 312 4 4 39 5 78 4 l70 -3 5 -110z m994 96 c53 -17 121 -83 143 -139 28 -73 25 -250 -6 -318 -53 -120 -97 -136 -383 -142 l-218 -4 0 312 0 312 213 -5 c125 -2 228 -9 251 -16z m750 12 l77 -6 -3 -51 -3 -51 -170 -3 c-159 -2 -171 -3 -187 -23 -15 -17 -27 -104 -15 -110 1 -1 74 -4 162 -8 l160 -6 3 -47 3 -48 -119 0 c-66 0 -140 -3 -166 -6 l-46 -7 0 -47 c0 -76 8 -79 206 -82 l169 -3 0 -50 0 -50 -178 -8 c-216 -10 -275 -1 -325 49 l-33 33 3 229 c3 261 3 261 87 287 50 15 245 20 375 8z m364 -185 c1 -104 6 -188 11 -188 5 0 82 86 171 190 l162 191 61 -3 62 -3 3 -308 2 -308 -82 3 -83 3 0 187 c0 102 -3 189 -6 193 -6 6 -41 -34 -253 -287 l-81 -98 -67 0 -68 0 0 303 c0 167 3 307 7 311 4 4 41 5 83 4 l75 -3 3 -187z m-1584 -968 c130 -90 250 -230 325 -378 26 -51 36 -62 49 -57 109 47 320 81 430 70 64 -6 158 -21 193 -31 23 -6 40 -92 46 -234 6 -134 -10 -252 -48 -360 -10 -30 -19 -57 -19 -61 0 -4 33 -24 72 -44 40 -20 100 -56 134 -80 77 -55 220 -208 256 -273 l28 -49 -39 -59 c-87 -133 -233 -263 -376 -334 -39 -19 -72 -36 -74 -37 -1 -1 6 -30 17 -65 11 -35 26 -88 34 -118 18 -75 16 -358 -3 -425 -13 -46 -17 -50 -59 -63 -65 -20 -285 -27 -377 -12 -66 10 -171 40 -225 64 -12 6 -18 1 -23 -22 -3 -17 -25 -59 -48 -93 -23 -35 -49 -77 -57 -92 -8 -16 -22 -33 -32 -38 -10 -5 -18 -15 -18 -22 0 -16 -91 -107 -107 -107 -7 0 -18 -9 -25 -20 -7 -11 -16 -20 -21 -20 -4 0 -32 -16 -61 -36 -63 -41 -55 -43 -170 45 -106 81 -216 213 -269 323 -43 89 -57 100 -93 73 -10 -8 -28 -15 -40 -15 -11 0 -24 -3 -27 -7 -4 -3 -21 -8 -39 -10 -17 -2 -37 -8 -44 -14 -19 -15 -350 -13 -394 4 -8 3 -27 8 -41 11 -30 6 -38 26 -45 101 -3 28 -7 57 -11 65 -9 24 -11 200 -2 206 5 3 9 26 9 52 0 28 14 84 34 140 l34 93 -22 14 c-11 7 -46 25 -76 39 -31 15 -87 51 -125 81 -39 30 -80 59 -92 65 -12 5 -30 22 -40 37 -10 15 -46 65 -80 110 -35 44 -63 84 -63 87 0 3 16 28 35 55 19 26 35 52 35 57 0 5 9 15 20 22 11 7 20 18 20 24 0 16 91 108 107 108 7 0 17 9 23 20 6 11 16 20 23 20 7 0 22 11 34 24 13 13 59 42 103 65 44 23 80 47 80 54 0 7 -11 46 -25 88 -47 150 -57 352 -22 499 11 50 16 56 48 67 73 24 229 35 330 24 80 -9 215 -41 279 -65 11 -5 25 13 51 66 52 104 145 225 230 298 73 63 155 120 172 120 5 0 41 -23 81 -50z"/>
<path d="M5000 7206 c0 -79 -2 -150 -5 -158 -4 -10 14 -12 92 -10 88 3 101 6 123 28 22 22 25 35 28 108 4 95 -12 146 -54 165 -14 6 -61 11 -104 11 l-80 0 0 -144z"/>
<path d="M4895 6500 c-3 -5 0 -22 8 -37 14 -27 31 -66 47 -108 5 -11 14 -41 20 -68 14 -52 27 -67 41 -46 12 20 75 198 84 237 l7 32 -101 0 c-55 0 -103 -4 -106 -10z"/>
<path d="M5180 4534 c-36 -8 -80 -17 -97 -20 -18 -4 -33 -11 -33 -16 0 -28 134 -204 214 -281 l91 -88 6 48 c14 103 59 221 119 307 17 26 28 51 25 56 -9 15 -249 10 -325 -6z"/>
<path d="M5533 4442 c-44 -66 -58 -97 -81 -177 -25 -86 -34 -145 -21 -145 5 0 9 4 9 8 0 5 22 19 49 31 41 20 50 29 61 65 6 22 25 67 41 99 l30 59 -18 54 c-9 30 -21 54 -27 54 -6 0 -25 -21 -43 -48z"/>
<path d="M4950 4346 c-6 -8 -32 -25 -56 -36 -24 -12 -44 -26 -44 -31 0 -5 -4 -9 -10 -9 -12 0 -140 -126 -140 -138 0 -6 -7 -12 -15 -16 -20 -7 -10 -55 16 -78 10 -9 19 -20 19 -24 0 -14 83 -94 97 -94 7 0 13 -4 13 -10 0 -5 20 -23 45 -40 25 -17 45 -28 45 -24 0 4 11 -3 25 -16 14 -13 26 -22 28 -19 36 48 77 111 77 118 0 5 7 11 15 15 8 3 15 12 15 20 0 7 27 39 60 69 63 59 69 67 46 67 -25 0 -206 218 -206 249 0 16 -15 14 -30 -3z"/>
<path d="M5423 4034 c5 -16 18 -92 22 -129 5 -43 115 -235 134 -235 5 0 13 15 16 33 4 17 11 37 16 42 12 16 4 56 -23 110 -14 28 -31 69 -37 93 -10 36 -19 46 -64 69 -71 38 -70 38 -64 17z"/>
<path d="M5330 4020 c-6 -11 -15 -20 -19 -20 -11 0 -141 -127 -141 -138 0 -5 -13 -22 -30 -38 -16 -16 -30 -34 -30 -40 0 -6 -13 -28 -30 -50 -33 -44 -38 -73 -12 -76 27 -2 35 -4 66 -17 16 -6 35 -10 42 -7 8 3 16 0 20 -5 4 -6 20 -8 39 -5 19 4 36 2 40 -3 8 -13 183 -13 191 0 3 6 17 8 29 5 36 -9 38 8 4 45 -33 36 -113 192 -112 218 0 9 -4 21 -9 28 -5 6 -12 37 -15 67 -6 59 -15 69 -33 36z"/>
<path d="M5694 3638 c-3 -4 -16 -8 -29 -8 -13 0 -26 -4 -29 -9 -8 -12 130 -103 179 -119 80 -25 195 -49 200 -41 3 4 1 10 -5 14 -6 4 -21 28 -35 55 -20 39 -31 50 -57 55 -18 4 -60 20 -93 36 -58 27 -120 35 -131 17z"/>
<path d="M5589 3548 c-5 -92 -3 -281 3 -284 5 -3 5 -16 2 -29 -3 -12 -1 -26 5 -30 6 -3 9 -10 6 -14 -7 -12 24 -111 35 -111 5 0 12 5 16 11 3 6 21 17 38 25 55 26 108 60 118 77 5 9 13 17 18 17 10 0 140 129 140 140 0 4 7 13 15 20 24 20 18 27 -24 28 -45 2 -167 38 -176 52 -3 6 -12 10 -20 10 -8 0 -34 14 -58 30 -25 17 -48 30 -51 30 -3 0 -15 9 -26 20 -23 23 -40 26 -41 8z"/>
<path d="M6470 3529 c-76 -61 -312 -149 -356 -132 -29 11 -12 -15 64 -93 77 -81 142 -133 238 -191 l52 -32 22 87 c32 130 40 383 12 382 -4 0 -18 -10 -32 -21z"/>
<path d="M5090 3499 c0 -11 -5 -29 -10 -39 -25 -48 -31 -332 -8 -356 11 -11 308 -7 321 4 7 6 28 12 47 14 30 3 35 7 37 30 1 15 -2 30 -7 33 -4 3 -6 14 -3 25 3 11 0 26 -6 34 -6 7 -12 29 -12 47 -1 19 -2 70 -2 115 l-2 80 -82 -4 c-49 -3 -94 0 -110 7 -16 6 -47 13 -71 15 -23 2 -45 6 -49 10 -15 15 -43 5 -43 -15z"/>
<path d="M6000 3175 c-30 -30 -60 -55 -67 -55 -7 0 -17 -9 -23 -20 -6 -11 -15 -20 -20 -20 -17 0 -110 -64 -110 -76 0 -6 16 -31 35 -55 19 -24 35 -50 35 -56 0 -7 11 -20 25 -29 14 -9 25 -22 25 -28 0 -13 61 -76 74 -76 4 0 21 -13 38 -30 35 -35 42 -36 68 -10 11 11 24 20 28 20 13 0 122 114 122 128 0 7 5 12 10 12 6 0 15 10 20 23 5 12 18 36 29 52 27 40 26 59 -4 75 -14 7 -25 17 -25 22 0 5 -10 12 -23 17 -34 13 -148 113 -158 139 -5 12 -12 22 -17 22 -4 0 -32 -25 -62 -55z"/>
</g>
<g id="layer111" fill="none" stroke="none">
<path d="M0 5140 l0 -5140 6000 0 6000 0 0 5140 0 5140 -6000 0 -6000 0 0 -5140z m4120 2050 l0 -250 -65 0 -65 0 0 250 0 250 65 0 65 0 0 -250z m260 100 c0 -82 3 -150 8 -150 4 0 63 67 132 150 l125 149 58 1 57 0 -2 -247 -3 -248 -65 0 -65 0 -3 148 c-1 84 -7 147 -12 147 -5 0 -66 -67 -136 -150 l-127 -150 -53 0 -54 0 0 250 0 250 70 0 70 0 0 -150z m902 118 c68 -41 92 -96 93 -213 0 -116 -30 -187 -97 -226 -41 -23 -50 -24 -228 -24 l-185 0 -3 248 -2 249 187 -4 c184 -3 189 -4 235 -30z m625 4 c69 -36 73 -53 73 -277 l0 -195 -65 0 -65 0 0 180 c0 179 0 181 -25 205 -21 22 -33 25 -98 25 -60 0 -79 -4 -101 -21 l-26 -20 0 -185 0 -184 -65 0 c-55 0 -65 3 -66 18 -5 118 -4 343 2 370 19 85 87 113 269 109 107 -2 131 -6 167 -25z m525 16 c62 -18 88 -57 88 -132 0 -103 -50 -146 -172 -146 -35 0 -80 -5 -100 -11 -36 -9 -38 -12 -38 -49 0 -35 3 -39 37 -51 24 -8 72 -10 140 -6 l104 5 -3 -41 c-3 -41 -4 -42 -48 -50 -25 -4 -92 -6 -150 -5 -166 5 -210 38 -210 157 0 104 52 141 198 141 92 0 112 10 112 55 0 18 -6 37 -12 42 -7 4 -76 10 -153 13 l-140 5 0 35 c0 28 4 35 25 41 42 12 280 10 322 -3z m458 -188 l0 -199 88 -3 87 -3 3 -48 3 -47 -248 2 -248 3 0 45 0 45 93 3 92 3 0 199 0 200 65 0 65 0 0 -200z m390 110 l0 -90 53 0 53 0 50 88 50 87 67 3 c37 2 67 0 67 -3 0 -4 -25 -47 -55 -97 -30 -49 -55 -91 -55 -93 0 -2 16 -12 35 -24 90 -53 83 -210 -11 -257 -34 -16 -62 -19 -214 -19 l-175 0 -3 248 -2 247 70 0 70 0 0 -90z m710 19 c0 -68 2 -74 62 -177 105 -183 138 -241 138 -247 0 -3 -29 -5 -65 -5 l-64 0 -61 115 c-34 63 -65 115 -70 115 -5 0 -36 -52 -70 -115 l-61 -115 -65 0 c-45 0 -64 4 -64 13 0 6 43 86 95 175 l95 164 0 74 0 74 65 0 65 0 0 -71z m-3636 -655 c49 -17 50 -17 64 4 12 18 24 22 73 22 l59 0 0 -174 c0 -149 -2 -175 -16 -180 -20 -8 -111 -8 -207 0 l-77 7 0 48 0 49 70 0 70 0 0 59 c0 70 -1 71 -130 71 -99 0 -122 -11 -141 -68 -19 -56 -16 -219 5 -260 29 -56 67 -65 244 -60 l153 5 -3 -45 c-3 -41 -6 -47 -33 -55 -16 -5 -109 -10 -205 -11 -163 -1 -178 1 -216 21 -97 52 -129 133 -122 313 3 100 8 125 29 165 45 88 110 118 244 111 50 -2 112 -12 139 -22z m481 -39 l28 -65 137 0 138 0 25 63 25 62 82 3 83 3 -6 -28 c-5 -25 -43 -119 -195 -478 l-47 -110 -105 0 -105 0 -122 290 c-67 160 -122 298 -123 308 0 15 10 17 79 17 l79 0 27 -65z m775 -50 l5 -110 65 -3 65 -2 65 112 65 113 74 3 c41 2 78 -1 82 -5 4 -4 -25 -59 -64 -122 -66 -105 -70 -115 -53 -125 76 -45 106 -92 106 -168 0 -80 -32 -136 -95 -168 -48 -24 -59 -25 -262 -28 l-213 -4 0 304 c0 168 3 308 7 312 4 4 39 5 78 4 l70 -3 5 -110z m994 96 c53 -17 121 -83 143 -139 28 -73 25 -250 -6 -318 -53 -120 -97 -136 -383 -142 l-218 -4 0 312 0 312 213 -5 c125 -2 228 -9 251 -16z m750 12 l77 -6 -3 -51 -3 -51 -170 -3 c-159 -2 -171 -3 -187 -23 -15 -17 -27 -104 -15 -110 1 -1 74 -4 162 -8 l160 -6 3 -47 3 -48 -119 0 c-66 0 -140 -3 -166 -6 l-46 -7 0 -47 c0 -76 8 -79 206 -82 l169 -3 0 -50 0 -50 -178 -8 c-216 -10 -275 -1 -325 49 l-33 33 3 229 c3 261 3 261 87 287 50 15 245 20 375 8z m364 -185 c1 -104 6 -188 11 -188 5 0 82 86 171 190 l162 191 61 -3 62 -3 3 -308 2 -308 -82 3 -83 3 0 187 c0 102 -3 189 -6 193 -6 6 -41 -34 -253 -287 l-81 -98 -67 0 -68 0 0 303 c0 167 3 307 7 311 4 4 41 5 83 4 l75 -3 3 -187z m-1584 -968 c130 -90 250 -230 325 -378 26 -51 36 -62 49 -57 109 47 320 81 430 70 64 -6 158 -21 193 -31 23 -6 40 -92 46 -234 6 -134 -10 -252 -48 -360 -10 -30 -19 -57 -19 -61 0 -4 33 -24 72 -44 40 -20 100 -56 134 -80 77 -55 220 -208 256 -273 l28 -49 -39 -59 c-87 -133 -233 -263 -376 -334 -39 -19 -72 -36 -74 -37 -1 -1 6 -30 17 -65 11 -35 26 -88 34 -118 18 -75 16 -358 -3 -425 -13 -46 -17 -50 -59 -63 -63 -19 -291 -27 -376 -13 -38 6 -107 24 -153 38 -61 19 -86 23 -89 15 -2 -7 -20 -43 -39 -80 -77 -145 -187 -268 -320 -356 l-72 -48 -68 45 c-132 88 -287 268 -347 405 -14 30 -24 42 -35 39 -9 -3 -56 -17 -106 -33 -85 -26 -100 -28 -270 -28 -131 0 -192 4 -225 15 -43 14 -45 17 -59 69 -8 35 -14 112 -14 210 0 139 2 165 27 250 43 153 43 146 3 159 -60 20 -215 129 -289 204 -71 72 -158 190 -158 215 0 23 81 134 148 204 71 74 173 148 270 197 34 17 62 37 62 44 0 6 -11 46 -25 88 -47 150 -57 352 -22 499 11 50 16 56 48 67 73 24 229 35 330 24 80 -9 215 -41 279 -65 11 -5 25 13 51 66 52 104 145 225 230 298 73 63 155 120 172 120 5 0 41 -23 81 -50z"/>
<path d="M5000 7195 l0 -155 93 0 c88 0 95 2 118 26 21 22 24 37 27 109 4 94 -12 145 -54 164 -14 6 -61 11 -104 11 l-80 0 0 -155z"/>
<path d="M7280 7110 l0 -70 79 0 c91 0 111 12 111 63 0 59 -30 77 -124 77 l-66 0 0 -70z"/>
<path d="M4914 6487 c-5 -14 61 -204 77 -221 5 -5 11 -7 14 -4 13 13 86 219 80 228 -10 16 -165 13 -171 -3z"/>
<path d="M5615 6398 c-3 -8 -5 -48 -3 -89 l3 -74 96 0 c119 0 139 12 139 85 0 71 -20 84 -136 88 -75 3 -95 1 -99 -10z"/>
<path d="M6302 6428 l3 -193 105 0 c122 0 152 12 177 73 21 51 20 185 -2 240 -25 61 -52 72 -180 72 l-105 0 2 -192z"/>
<path d="M6004 5431 c-67 -48 -214 -226 -214 -259 0 -5 26 -26 58 -47 31 -21 89 -70 129 -108 l72 -70 73 68 c40 37 100 86 133 108 33 22 62 41 64 43 5 5 -78 124 -118 169 -46 52 -132 125 -146 125 -7 0 -30 -13 -51 -29z"/>
<path d="M5120 5072 c-42 -7 -45 -9 -53 -47 -16 -71 0 -265 28 -351 2 -8 22 -7 72 2 37 8 114 14 171 14 l102 1 0 52 c0 29 5 93 12 142 6 50 12 106 12 125 1 34 0 35 -54 47 -68 15 -229 24 -290 15z"/>
<path d="M5616 5008 c-31 -129 -41 -310 -20 -376 3 -9 22 -1 60 27 65 46 180 93 272 111 34 7 62 16 62 20 0 19 -105 130 -167 177 -76 57 -165 113 -180 113 -5 0 -18 -33 -27 -72z"/>
<path d="M6400 5048 c-83 -47 -161 -110 -229 -184 -33 -37 -61 -70 -61 -74 0 -4 36 -14 80 -23 91 -17 204 -66 268 -115 24 -18 47 -31 50 -27 12 12 14 197 3 275 -13 89 -38 180 -49 180 -4 0 -32 -14 -62 -32z"/>
<path d="M6755 5070 c-68 -11 -125 -28 -125 -38 0 -4 7 -43 15 -87 8 -44 14 -119 15 -167 l0 -88 98 0 c80 0 151 -7 236 -23 23 -4 47 133 44 260 -2 67 -8 127 -13 132 -15 15 -198 22 -270 11z"/>
<path d="M5890 4694 c-94 -25 -240 -106 -240 -133 0 -4 24 -15 54 -24 54 -17 54 -17 102 8 27 14 71 32 99 40 45 14 54 20 73 60 12 25 22 50 22 55 0 14 -45 11 -110 -6z"/>
<path d="M6102 4702 c2 -4 12 -29 23 -55 19 -44 24 -48 75 -63 30 -8 75 -27 100 -40 l44 -25 58 18 c32 10 58 21 58 25 0 10 -76 61 -137 92 -76 38 -231 72 -221 48z"/>
<path d="M5180 4535 c-84 -17 -120 -31 -120 -47 0 -7 25 -51 56 -98 55 -82 205 -240 228 -240 6 0 17 29 24 65 16 85 55 180 103 256 22 33 37 64 34 70 -9 13 -250 9 -325 -6z"/>
<path d="M6595 4541 c-3 -5 13 -35 35 -67 48 -69 97 -193 106 -268 4 -31 10 -59 14 -61 12 -7 156 131 200 190 20 28 52 76 70 108 l32 57 -25 9 c-14 6 -59 17 -101 25 -83 18 -321 22 -331 7z"/>
<path d="M5982 4499 c-80 -14 -160 -56 -223 -119 -68 -67 -96 -119 -115 -213 -16 -74 -8 -173 18 -234 97 -226 357 -326 573 -219 217 108 300 375 179 582 -35 60 -125 141 -188 170 -47 22 -151 46 -181 43 -5 -1 -34 -5 -63 -10z m199 -126 c148 -66 226 -262 162 -405 -30 -67 -104 -142 -166 -168 -114 -50 -255 -23 -343 64 -86 87 -114 203 -78 326 21 72 116 168 189 193 66 22 173 18 236 -10z"/>
<path d="M5985 4246 c-43 -18 -93 -79 -101 -121 -32 -172 168 -280 290 -158 56 57 65 159 19 222 -43 58 -142 86 -208 57z"/>
<path d="M5533 4442 c-43 -64 -57 -95 -82 -176 -22 -73 -27 -126 -11 -126 5 0 29 10 54 21 36 18 46 29 56 63 6 23 25 67 41 99 l30 59 -18 54 c-9 30 -21 54 -27 54 -6 0 -25 -21 -43 -48z"/>
<path d="M6503 4436 l-20 -54 23 -37 c12 -21 30 -66 40 -100 17 -58 22 -65 61 -84 50 -24 73 -27 73 -8 0 30 -40 168 -61 209 -26 51 -79 128 -89 128 -4 0 -16 -24 -27 -54z"/>
<path d="M4909 4317 c-78 -54 -136 -105 -184 -162 -37 -43 -46 -60 -41 -79 13 -51 234 -246 279 -246 8 0 31 25 51 55 19 30 65 86 101 123 36 38 65 73 65 77 0 3 -33 43 -73 88 -39 45 -86 103 -102 129 -17 27 -34 48 -40 47 -5 0 -31 -14 -56 -32z"/>
<path d="M7092 4292 c-22 -32 -71 -91 -109 -132 l-70 -75 64 -65 c35 -36 85 -95 110 -132 45 -66 46 -67 72 -53 79 40 271 217 271 248 0 21 -82 115 -142 163 -70 56 -139 104 -150 104 -4 0 -25 -26 -46 -58z"/>
<path d="M5434 3985 c12 -101 103 -295 139 -295 7 0 21 23 30 51 16 52 16 52 -13 108 -15 31 -33 76 -39 99 -10 36 -19 46 -61 67 -27 14 -52 25 -56 25 -4 0 -4 -25 0 -55z"/>
<path d="M6616 4015 c-45 -22 -51 -28 -66 -78 -10 -31 -28 -75 -42 -99 -24 -43 -24 -45 -8 -94 10 -28 23 -49 31 -49 22 0 95 119 117 193 25 80 37 152 25 151 -4 0 -30 -11 -57 -24z"/>
<path d="M5251 3943 c-81 -80 -191 -230 -191 -260 0 -16 83 -40 188 -54 82 -11 246 -8 259 5 3 3 -13 34 -36 70 -58 89 -111 230 -111 299 0 15 -4 27 -10 27 -5 0 -50 -39 -99 -87z"/>
<path d="M6746 4018 c-2 -7 -9 -40 -15 -74 -15 -82 -54 -176 -103 -247 -22 -33 -36 -62 -33 -65 4 -4 66 -7 138 -7 123 0 269 21 306 45 9 5 3 23 -19 61 -58 97 -93 143 -165 212 -80 78 -103 94 -109 75z"/>
<path d="M5693 3633 c-24 -8 -43 -19 -43 -24 0 -14 116 -86 174 -108 63 -23 165 -45 174 -37 3 4 -6 31 -20 60 -22 45 -33 55 -60 61 -18 4 -60 20 -94 36 -69 33 -73 33 -131 12z"/>
<path d="M6275 3619 c-33 -16 -75 -32 -93 -35 -27 -5 -37 -15 -57 -55 -34 -67 -33 -72 18 -64 119 18 302 106 302 144 0 15 -56 39 -90 39 -11 0 -47 -13 -80 -29z"/>
<path d="M5596 3539 c-31 -91 12 -439 54 -439 22 0 129 69 197 127 60 50 148 151 140 159 -3 3 -34 11 -69 19 -106 22 -206 67 -295 131 -19 13 -24 14 -27 3z"/>
<path d="M6470 3529 c-51 -41 -184 -101 -270 -121 -105 -24 -104 -21 -8 -120 85 -87 259 -211 274 -195 16 15 45 165 50 258 7 103 0 199 -14 199 -4 0 -18 -10 -32 -21z"/>
<path d="M5091 3487 c-28 -74 -40 -351 -16 -376 15 -14 241 -12 314 3 41 9 76 18 79 21 3 2 0 37 -7 77 -7 40 -15 117 -18 171 l-6 97 -76 0 c-71 0 -183 13 -237 26 -19 5 -26 1 -33 -19z"/>
<path d="M6940 3499 c-19 -5 -90 -12 -157 -16 l-123 -6 0 -86 c-1 -47 -7 -122 -15 -166 -8 -44 -15 -83 -15 -87 0 -4 33 -14 74 -23 78 -17 306 -19 323 -2 13 14 9 276 -5 340 -14 61 -17 63 -82 46z"/>
<path d="M5979 3156 c-37 -35 -94 -82 -128 -105 -34 -23 -61 -46 -61 -50 0 -34 145 -206 225 -266 40 -31 42 -31 129 46 58 52 166 193 166 218 0 10 -17 27 -37 39 -21 11 -79 57 -130 101 -51 45 -94 81 -95 81 -2 -1 -33 -29 -69 -64z"/>
</g>


</svg>